<?xml version="1.0" encoding="UTF-8" standalone="no"?>
<!-- Created with Inkscape (http://www.inkscape.org/) -->

<svg
   xmlns:dc="http://purl.org/dc/elements/1.1/"
   xmlns:cc="http://creativecommons.org/ns#"
   xmlns:rdf="http://www.w3.org/1999/02/22-rdf-syntax-ns#"
   xmlns:svg="http://www.w3.org/2000/svg"
   xmlns="http://www.w3.org/2000/svg"
   xmlns:xlink="http://www.w3.org/1999/xlink"
   xmlns:sodipodi="http://sodipodi.sourceforge.net/DTD/sodipodi-0.dtd"
   xmlns:inkscape="http://www.inkscape.org/namespaces/inkscape"
   id="svg5816"
   viewBox="0 0 38.141731 27.142903"
   sodipodi:version="0.32"
   inkscape:output_extension="org.inkscape.output.svg.inkscape"
   inkscape:version="0.48.5 r10040"
   sodipodi:docname="inboxFlag.svg"
   version="1.1"
   width="100%"
   height="100%">
  <defs
     id="defs3">
    <linearGradient
       id="linearGradient15107">
      <stop
         id="stop15109"
         style="stop-color:#ffffff"
         offset="0" />
      <stop
         id="stop15111"
         style="stop-color:#e2e2e2"
         offset="1" />
    </linearGradient>
    <linearGradient
       id="linearGradient1483"
       y2="26.023001"
       xlink:href="#linearGradient15107"
       gradientUnits="userSpaceOnUse"
       x2="18.475"
       gradientTransform="matrix(1.3435,0,0,1.5058,2.8795,-2.266)"
       y1="4.7462001"
       x1="11.573"
       inkscape:collect="always" />
    <linearGradient
       id="linearGradient1487"
       y2="52.091"
       gradientUnits="userSpaceOnUse"
       x2="9.8855"
       gradientTransform="matrix(2.4548,0,0,0.762,2.8818,0.33739)"
       y1="38.070999"
       x1="9.1643"
       inkscape:collect="always">
      <stop
         id="stop2626"
         style="stop-color:#dfe0df"
         offset="0" />
      <stop
         id="stop2630"
         style="stop-color:#a6b0a6"
         offset=".23810" />
      <stop
         id="stop2628"
         style="stop-color:#b5beb5"
         offset="1" />
    </linearGradient>
    <radialGradient
       id="radialGradient1491"
       gradientUnits="userSpaceOnUse"
       cy="38.712002"
       cx="27.740999"
       gradientTransform="matrix(0.62993,0.45937,-0.14768,0.24851,16.517,9.0537)"
       r="17.978001"
       inkscape:collect="always">
      <stop
         id="stop2276"
         style="stop-color:#000000;stop-opacity:.12871"
         offset="0" />
      <stop
         id="stop2278"
         style="stop-color:#000000;stop-opacity:0"
         offset="1" />
    </radialGradient>
    <linearGradient
       id="linearGradient1497"
       y2="11.982"
       xlink:href="#linearGradient15107"
       gradientUnits="userSpaceOnUse"
       x2="13.847"
       gradientTransform="matrix(1.296,0,0,-1.4369,3.7466,33.205)"
       y1="11.485"
       x1="11.742"
       inkscape:collect="always" />
    <linearGradient
       id="linearGradient1501"
       y2="-7.5275002"
       xlink:href="#linearGradient15107"
       gradientUnits="userSpaceOnUse"
       x2="17.177999"
       gradientTransform="matrix(1.5706,0,0,-1.2315,2.9734,33.335)"
       y1="20.219999"
       x1="10.027"
       inkscape:collect="always" />
    <linearGradient
       id="linearGradient1503"
       y2="7.4120998"
       gradientUnits="userSpaceOnUse"
       x2="40.023998"
       gradientTransform="matrix(1.3709,0,0,-1.4646,2.5251,33.713)"
       y1="4.2507"
       x1="11.842"
       inkscape:collect="always">
      <stop
         id="stop9751"
         style="stop-color:#ffffff"
         offset="0" />
      <stop
         id="stop9753"
         style="stop-color:#ededed"
         offset="1" />
    </linearGradient>
    <linearGradient
       id="linearGradient1505"
       y2="31.027"
       gradientUnits="userSpaceOnUse"
       x2="22.177999"
       y1="33.356998"
       x1="17.396999"
       inkscape:collect="always">
      <stop
         id="stop2575"
         style="stop-color:#ffffff"
         offset="0" />
      <stop
         id="stop2577"
         style="stop-color:#ffffff;stop-opacity:0"
         offset="1" />
    </linearGradient>
  </defs>
  <sodipodi:namedview
     id="base"
     inkscape:showpageshadow="false"
     inkscape:zoom="4.4502129"
     borderopacity="0.16862745"
     inkscape:current-layer="layer1"
     inkscape:cx="44.602744"
     inkscape:object-bbox="true"
     inkscape:grid-points="true"
     inkscape:grid-bbox="true"
     showgrid="false"
     inkscape:guide-bbox="true"
     inkscape:document-units="px"
     bordercolor="#666666"
     inkscape:window-x="0"
     inkscape:window-y="30"
     objecttolerance="2"
     inkscape:window-width="1205"
     inkscape:pageopacity="0.0"
     inkscape:pageshadow="2"
     guidetolerance="2"
     pagecolor="#ffffff"
     gridtolerance="2"
     inkscape:object-points="true"
     inkscape:cy="-10.077607"
     showguides="true"
     inkscape:window-height="818"
     fit-margin-top="0"
     fit-margin-left="0"
     fit-margin-right="0"
     fit-margin-bottom="0"
     inkscape:window-maximized="0">
    <inkscape:grid
       id="GridFromPre046Settings"
       opacity=".2"
       color="#0000ff"
       originy="-14.928557px"
       originx="-5.9281902px"
       empspacing="2"
       spacingy="1px"
       spacingx="1px"
       empopacity="0.4"
       type="xygrid"
       empcolor="#0000ff"
       visible="true"
       enabled="true"
       snapvisiblegridlinesonly="true" />
  </sodipodi:namedview>
  <g
     id="layer1"
     inkscape:label="Layer 1"
     inkscape:groupmode="layer"
     transform="translate(-5.9281902,-5.9285394)">
    <g
       id="g2570"
       inkscape:r_cx="true"
       inkscape:r_cy="true"
       transform="matrix(1.0047,0,0,1.006,0.054565,-9.1192)">
      <path
         id="path12723"
         style="fill:url(#linearGradient1483);fill-rule:evenodd;stroke:#888a85;stroke-width:0.99466002;stroke-linejoin:round"
         inkscape:r_cx="true"
         inkscape:r_cy="true"
         d="m 6.3438,15.455 v 25.987 h 36.968 l -0.062,-25.888 v -0.033 c -10e-4,-0.006 10e-4,-0.026 0,-0.033 -10e-4,-0.007 -0.029,-0.026 -0.031,-0.033 H 6.3438 z"
         inkscape:connector-curvature="0" />
      <path
         id="path1634"
         style="fill:url(#linearGradient1487);fill-rule:evenodd"
         inkscape:r_cy="true"
         inkscape:r_cx="true"
         sodipodi:nodetypes="ccccccc"
         d="M 20.491,29.059 7.095,40.031 21.004,30.426 h 9.018 L 42.441,39.909 30.577,29.059 H 20.491 z"
         inkscape:connector-curvature="0" />
      <path
         id="path15103"
         style="fill:none;stroke:#ffffff;stroke-width:0.99466002"
         inkscape:r_cx="true"
         inkscape:r_cy="true"
         d="m 7.3438,16.734 c -0.0067,0.013 0.0053,0.02 0,0.031 -0.0024,0.006 -0.0293,0.027 -0.0313,0.032 -0.0017,0.005 0.0014,0.027 0,0.032 -0.001,0.004 7e-4,0.027 0,0.031 l 0.0313,23.474 h 34.937 l -0.062,-23.347 c -0.001,-0.004 10e-4,-0.028 0,-0.032 -0.015,-0.048 -0.042,-0.132 -0.094,-0.221 H 7.3438 z"
         inkscape:connector-curvature="0" />
      <path
         id="path2563"
         style="fill:url(#radialGradient1491);fill-rule:evenodd"
         inkscape:r_cx="true"
         inkscape:r_cy="true"
         d="M 23.329,32.997 C 20.937,32.55 7.9,18.771 6.597,16.372 6.5816,16.343 6.556,16.289 6.5447,16.264 h 34.513 c -0.277,2.502 -7.524,16.505 -9.561,16.733 h -0.03 -8.021 c -0.033,0 -0.077,0.007 -0.117,0 z"
         inkscape:connector-curvature="0" />
      <path
         id="path1613"
         style="fill:url(#linearGradient1497);fill-rule:evenodd;stroke:#989898;stroke-width:0.85202998;stroke-linejoin:round"
         inkscape:r_cx="true"
         inkscape:r_cy="true"
         d="M 20.775,31.085 C 18.407,30.694 7.945,18.619 7.119,16.517 7.1093,16.492 7.0947,16.444 7.0884,16.422 h 35.543 c -0.824,2.193 -11.299,14.464 -13.445,14.663 -0.009,10e-4 -0.022,0 -0.031,0 h -8.26 c -0.034,0 -0.081,0.007 -0.12,0 z"
         inkscape:connector-curvature="0" />
      <path
         id="path18153"
         style="fill:url(#linearGradient1501);fill-rule:evenodd"
         inkscape:r_cx="true"
         inkscape:r_cy="true"
         d="M 20.625,30.49 C 18.519,30 7.723,17.988 7.031,16.466 7.0289,16.46 7.0336,16.44 7.0314,16.434 7.026,16.418 7.0023,16.382 7.0002,16.369 c 0,-0.003 -4e-4,-0.029 0,-0.032 0.0011,-0.002 0.0297,0.002 0.0312,0 L 7.1252,16.24 h 35.469 c -0.003,0.025 -0.023,0.067 -0.031,0.097 -0.008,0.024 -0.021,0.07 -0.032,0.097 -0.922,2.181 -11.508,13.767 -13.343,14.056 -0.015,0.002 -0.049,0 -0.063,0 h -8.375 c -0.03,-10e-4 -0.09,0.009 -0.125,0 z"
         inkscape:connector-curvature="0" />
      <path
         id="path1616"
         style="fill:none;stroke:url(#linearGradient1503);stroke-width:0.85202998"
         inkscape:r_cx="true"
         inkscape:r_cy="true"
         d="M 20.875,30.051 C 18.427,29.502 8.704,18.434 7.531,16.452 h 34.594 c -1.49,2.333 -11.046,13.412 -13.156,13.599 -0.009,0.001 -0.023,0 -0.031,0 h -7.907 c -0.026,0 -0.064,0.004 -0.093,0 -0.02,-0.003 -0.042,0.005 -0.063,0 z"
         inkscape:connector-curvature="0" />
      <path
         id="path1636"
         style="fill:url(#linearGradient1505);fill-rule:evenodd"
         inkscape:r_cy="true"
         inkscape:r_cx="true"
         sodipodi:nodetypes="cccccc"
         d="m 20.96,30.447 -11.942,8.271 2.219,0.006 9.999,-6.869 8.821,-1.423 -9.097,0.015 z"
         inkscape:connector-curvature="0" />
    </g>
    <g
       id="g3"
       transform="matrix(0.12104851,0,0,0.12104851,25.474249,7.2113252)">
      <path
         d="m 0,68.736 c 0,35.047 27.489,65.293 62.416,68.504 34.939,3.211 67.633,-21.357 74.024,-55.91 C 142.831,46.784 121.27,11.987 87.414,2.493 53.547,-7.005 16.951,11.434 4.462,44.311 1.504,52.097 0,60.408 0,68.736"
         style="fill:#970f00"
         id="path5"
         inkscape:connector-curvature="0" />
      <radialGradient
         r="63.929001"
         cx="68.794998"
         cy="68.737999"
         gradientUnits="userSpaceOnUse"
         id="XMLID_2_">
        <stop
           offset="0"
           style="stop-color:#F28888"
           id="stop8" />
        <stop
           offset="1"
           style="stop-color:#D82A2A"
           id="stop10" />
      </radialGradient>
      <path
         d="m 4.866,68.736 c 0,34.84 29.089,63.932 63.929,63.932 34.839,0 63.929,-29.092 63.929,-63.932 0,-34.838 -29.09,-63.928 -63.929,-63.928 C 33.96,4.807 4.87,33.896 4.87,68.734"
         style="fill:url(#XMLID_2_)"
         id="path12"
         inkscape:connector-curvature="0" />
      <path
         d="m 11.031,43.889 c -5.166,30.106 12.817,60.349 41.733,70.201 30.669,10.451 65.179,-4.994 78.005,-34.7 -6.163,35.951 -43.128,59.583 -78.349,50.078 C 16.054,119.658 -3.958,78.561 11.03,43.887"
         style="fill:#b20d0d"
         id="path14"
         inkscape:connector-curvature="0" />
      <path
         d="m 28.866,40.359 c 8.843,1.829 19.021,-10.696 26.687,-13.884 14.322,-5.952 32.211,-3.188 45.186,4.917 13.725,8.577 23.487,25.046 24.988,41.214 0.005,0.046 0.005,0.055 10e-4,0.024 C 124.714,62.84 125.399,53.636 121.67,44.172 115.492,28.486 102.132,16.202 86.024,11.265 69.369,6.163 51.156,9.411 36.808,19.135 32.378,22.137 15.325,37.556 28.866,40.359"
         style="fill:#ef5656"
         id="path16"
         inkscape:connector-curvature="0" />
      <path
         d="m 56.402,29.004 c 0,12.468 2.023,25.46 3.989,37.73 0.611,3.81 6.289,34.225 12.748,19.444 6.113,-13.989 6.633,-31.416 7.934,-46.428 0.374,-4.312 1.738,-10.094 0.152,-14.32 -4.347,-11.588 -24.823,-9.531 -24.823,3.574 m 2.83,0 c 0,-9.723 15.119,-11.221 19.028,-3.301 2.143,4.336 0.3,11.619 -0.168,16.177 -1.413,13.733 -2.669,28.264 -6.791,41.504 -0.96,3.083 -2.245,6.081 -3.875,1.675 C 65.383,79.538 64.527,73.475 63.579,67.695 61.503,55.065 59.232,41.844 59.232,29.004"
         style="fill:#970f00;fill-rule:evenodd"
         id="path18"
         inkscape:connector-curvature="0" />
      <path
         d="m 55.695,107.19 c 0,16.873 26.18,16.873 26.18,0 0,-16.881 -26.18,-16.883 -26.18,0 m 2.833,0 c 0,-13.229 20.511,-13.229 20.511,0 0,13.22 -20.511,13.22 -20.511,0"
         style="fill:#970f00;fill-rule:evenodd"
         id="path20"
         inkscape:connector-curvature="0" />
      <path
         d="m 80.459,29.004 c 0,12.923 -2.271,26.35 -4.382,39.055 C 75.566,71.125 70.98,97.798 66.181,85.205 60.975,71.549 60.151,55.453 58.739,41.032 58.296,36.513 56.66,29.928 58.526,25.548 c 4.151,-9.753 21.933,-7.942 21.933,3.456"
         style="fill:#ffffff;fill-rule:evenodd"
         id="path22"
         inkscape:connector-curvature="0" />
      <path
         d="m 80.459,107.19 c 0,15.054 -23.347,15.054 -23.347,0 0,-15.061 23.347,-15.061 23.347,0"
         style="fill:#ffffff;fill-rule:evenodd"
         id="path24"
         inkscape:connector-curvature="0" />
    </g>
  </g>
  <metadata
     id="metadata69">
    <rdf:RDF>
      <cc:Work>
        <dc:format>image/svg+xml</dc:format>
        <dc:type
           rdf:resource="http://purl.org/dc/dcmitype/StillImage" />
        <cc:license
           rdf:resource="http://creativecommons.org/licenses/publicdomain/" />
        <dc:publisher>
          <cc:Agent
             rdf:about="http://openclipart.org/">
            <dc:title>Openclipart</dc:title>
          </cc:Agent>
        </dc:publisher>
        <dc:title></dc:title>
        <dc:date>2010-03-26T08:12:43</dc:date>
        <dc:description>&quot;Reply sender&quot; icon from &lt;a href=&quot;http://tango.freedesktop.org/Tango_Desktop_Project&quot;&gt; Tango Project &lt;/a&gt; \n&lt;br&gt;&lt;br&gt;\nSince version 0.8.90 Tango Project icons are Public Domain: &lt;a href=&quot;http://tango.freedesktop.org/Frequently_Asked_Questions#Terms_of_Use.3F&quot;&gt; Tango Project FAQ &lt;/a&gt;</dc:description>
        <dc:source>https://openclipart.org/detail/34183/tango-mail-reply-sender-by-warszawianka</dc:source>
        <dc:creator>
          <cc:Agent>
            <dc:title>warszawianka</dc:title>
          </cc:Agent>
        </dc:creator>
        <dc:subject>
          <rdf:Bag>
            <rdf:li>email</rdf:li>
            <rdf:li>envelope</rdf:li>
            <rdf:li>externalsource</rdf:li>
            <rdf:li>icon</rdf:li>
            <rdf:li>mail</rdf:li>
            <rdf:li>reply</rdf:li>
            <rdf:li>tango</rdf:li>
          </rdf:Bag>
        </dc:subject>
      </cc:Work>
      <cc:License
         rdf:about="http://creativecommons.org/licenses/publicdomain/">
        <cc:permits
           rdf:resource="http://creativecommons.org/ns#Reproduction" />
        <cc:permits
           rdf:resource="http://creativecommons.org/ns#Distribution" />
        <cc:permits
           rdf:resource="http://creativecommons.org/ns#DerivativeWorks" />
      </cc:License>
    </rdf:RDF>
  </metadata>
</svg>
