<?xml version="1.0" encoding="UTF-8" standalone="no"?>
<!DOCTYPE svg PUBLIC "-//W3C//DTD SVG 1.1//EN"
 "http://www.w3.org/Graphics/SVG/1.1/DTD/svg11.dtd">
<!-- Generated by graphviz version 2.38.0 (20140413.2041)
 -->
<!-- Title: b Pages: 1 -->
<svg width="221pt" height="326pt"
 viewBox="0.00 0.00 220.58 325.62" xmlns="http://www.w3.org/2000/svg" xmlns:xlink="http://www.w3.org/1999/xlink">
<g id="graph0" class="graph" transform="scale(1 1) rotate(0) translate(-54.0422 321.623)">
<title>b</title>
<polygon fill="white" stroke="none" points="54.0422,4 54.0422,-321.623 274.623,-321.623 274.623,4 54.0422,4"/>
<!-- 0 -->
<g id="node1" class="node"><title>0</title>
<ellipse fill="lightgrey" stroke="black" cx="149.609" cy="-230.693" rx="43.5923" ry="18"/>
<text text-anchor="middle" x="149.609" y="-226.993" font-family="Times,serif" font-size="14.00">Mapping</text>
</g>
<!-- 1 -->
<g id="node2" class="node"><title>1</title>
<ellipse fill="lightgrey" stroke="black" cx="215.554" cy="-162.105" rx="33.2948" ry="18"/>
<text text-anchor="middle" x="215.554" y="-158.405" font-family="Times,serif" font-size="14.00">Scope</text>
</g>
<!-- 1&#45;&gt;0 -->
<g id="edge2" class="edge"><title>1&#45;&gt;0</title>
<path fill="none" stroke="black" d="M199.926,-178.36C189.719,-188.976 176.411,-202.817 166.045,-213.598"/>
</g>
<!-- 4 -->
<g id="node5" class="node"><title>4</title>
<ellipse fill="lightgrey" stroke="black" cx="237.476" cy="-90.1654" rx="33.2948" ry="18"/>
<text text-anchor="middle" x="237.476" y="-86.4654" font-family="Times,serif" font-size="14.00">Entity</text>
</g>
<!-- 1&#45;&gt;4 -->
<g id="edge4" class="edge"><title>1&#45;&gt;4</title>
<path fill="none" stroke="black" d="M220.973,-144.322C224.32,-133.338 228.603,-119.282 231.967,-108.243"/>
</g>
<!-- 2 -->
<g id="node3" class="node"><title>2</title>
<ellipse fill="lightgrey" stroke="black" cx="226.627" cy="-18" rx="43.5923" ry="18"/>
<text text-anchor="middle" x="226.627" y="-14.3" font-family="Times,serif" font-size="14.00">Attribute</text>
</g>
<!-- 3 -->
<g id="node4" class="node"><title>3</title>
<ellipse fill="lightgrey" stroke="black" cx="88.5895" cy="-299.623" rx="30.5947" ry="18"/>
<text text-anchor="middle" x="88.5895" y="-295.923" font-family="Times,serif" font-size="14.00">View</text>
</g>
<!-- 3&#45;&gt;0 -->
<g id="edge1" class="edge"><title>3&#45;&gt;0</title>
<path fill="none" stroke="black" d="M102.742,-283.636C110.113,-275.309 119.293,-264.938 127.57,-255.589"/>
<polygon fill="black" stroke="black" points="130.243,-257.85 134.25,-248.042 125.001,-253.21 130.243,-257.85"/>
</g>
<!-- 4&#45;&gt;2 -->
<g id="edge3" class="edge"><title>4&#45;&gt;2</title>
<path fill="none" stroke="black" d="M234.738,-71.955C233.569,-64.1775 232.177,-54.918 230.879,-46.2841"/>
<polygon fill="black" stroke="black" points="234.312,-45.5731 229.364,-36.2045 227.389,-46.6138 234.312,-45.5731"/>
</g>
</g>
</svg>
