<?xml version="1.0" encoding="UTF-8" standalone="no"?>
<!DOCTYPE svg PUBLIC "-//W3C//DTD SVG 1.1//EN"
 "http://www.w3.org/Graphics/SVG/1.1/DTD/svg11.dtd">
<!-- Generated by graphviz version 2.38.0 (20140413.2041)
 -->
<!-- Title: b Pages: 1 -->
<svg width="260pt" height="243pt"
 viewBox="0.00 0.00 260.01 243.39" xmlns="http://www.w3.org/2000/svg" xmlns:xlink="http://www.w3.org/1999/xlink">
<g id="graph0" class="graph" transform="scale(1 1) rotate(0) translate(-1.81985 239.39)">
<title>b</title>
<polygon fill="white" stroke="none" points="1.81985,4 1.81985,-239.39 261.831,-239.39 261.831,4 1.81985,4"/>
<!-- 0 -->
<g id="node1" class="node"><title>0</title>
<ellipse fill="lightgrey" stroke="black" cx="66.4758" cy="-90.0506" rx="33.2948" ry="18"/>
<text text-anchor="middle" x="66.4758" y="-86.3506" font-family="Times,serif" font-size="14.00">Scope</text>
</g>
<!-- 2 -->
<g id="node3" class="node"><title>2</title>
<ellipse fill="lightgrey" stroke="black" cx="74.0638" cy="-18" rx="68.4888" ry="18"/>
<text text-anchor="middle" x="74.0638" y="-14.3" font-family="Times,serif" font-size="14.00">Entity Mapping</text>
</g>
<!-- 0&#45;&gt;2 -->
<g id="edge2" class="edge"><title>0&#45;&gt;2</title>
<path fill="none" stroke="black" d="M68.3906,-71.8692C69.5409,-60.9469 70.9995,-47.0969 72.1496,-36.1756"/>
</g>
<!-- 3 -->
<g id="node4" class="node"><title>3</title>
<ellipse fill="lightgrey" stroke="black" cx="121.758" cy="-143.3" rx="65.7887" ry="18"/>
<text text-anchor="middle" x="121.758" y="-139.6" font-family="Times,serif" font-size="14.00">View Mapping</text>
</g>
<!-- 0&#45;&gt;3 -->
<g id="edge3" class="edge"><title>0&#45;&gt;3</title>
<path fill="none" stroke="black" d="M82.7633,-105.739C89.2605,-111.997 96.7708,-119.231 103.455,-125.67"/>
</g>
<!-- 5 -->
<g id="node6" class="node"><title>5</title>
<ellipse fill="lightgrey" stroke="black" cx="139.122" cy="-67.9185" rx="33.2948" ry="18"/>
<text text-anchor="middle" x="139.122" y="-64.2185" font-family="Times,serif" font-size="14.00">Entity</text>
</g>
<!-- 0&#45;&gt;5 -->
<g id="edge7" class="edge"><title>0&#45;&gt;5</title>
<path fill="none" stroke="black" d="M95.6052,-81.1762C100.342,-79.733 105.249,-78.2381 109.986,-76.7949"/>
</g>
<!-- 1 -->
<g id="node2" class="node"><title>1</title>
<ellipse fill="lightgrey" stroke="black" cx="214.285" cy="-34.6335" rx="43.5923" ry="18"/>
<text text-anchor="middle" x="214.285" y="-30.9335" font-family="Times,serif" font-size="14.00">Attribute</text>
</g>
<!-- 4 -->
<g id="node5" class="node"><title>4</title>
<ellipse fill="lightgrey" stroke="black" cx="128.852" cy="-217.39" rx="30.5947" ry="18"/>
<text text-anchor="middle" x="128.852" y="-213.69" font-family="Times,serif" font-size="14.00">View</text>
</g>
<!-- 4&#45;&gt;3 -->
<g id="edge4" class="edge"><title>4&#45;&gt;3</title>
<path fill="none" stroke="black" d="M127.098,-199.075C126.299,-190.731 125.336,-180.667 124.448,-171.397"/>
<polygon fill="black" stroke="black" points="127.928,-171.024 123.491,-161.403 120.96,-171.691 127.928,-171.024"/>
</g>
<!-- 5&#45;&gt;1 -->
<g id="edge6" class="edge"><title>5&#45;&gt;1</title>
<path fill="none" stroke="black" d="M164.989,-56.4637C168.327,-54.9852 171.803,-53.4459 175.295,-51.8995"/>
<polygon fill="black" stroke="black" points="176.768,-55.0754 184.494,-47.826 173.933,-48.6749 176.768,-55.0754"/>
</g>
<!-- 5&#45;&gt;2 -->
<g id="edge5" class="edge"><title>5&#45;&gt;2</title>
<path fill="none" stroke="black" d="M119.954,-53.2113C115.133,-49.5121 109.838,-45.4493 104.612,-41.4391"/>
<polygon fill="black" stroke="black" points="106.597,-38.5509 96.5329,-35.2403 102.336,-44.1045 106.597,-38.5509"/>
</g>
<!-- 5&#45;&gt;3 -->
<g id="edge1" class="edge"><title>5&#45;&gt;3</title>
<path fill="none" stroke="black" d="M135.007,-85.7827C132.259,-97.712 128.658,-113.346 125.904,-125.302"/>
</g>
</g>
</svg>
