<?xml version="1.0" encoding="UTF-8" standalone="no"?>
<!DOCTYPE svg PUBLIC "-//W3C//DTD SVG 1.1//EN"
 "http://www.w3.org/Graphics/SVG/1.1/DTD/svg11.dtd">
<!-- Generated by graphviz version 2.36.0 (20140111.2315)
 -->
<!-- Title: b Pages: 1 -->
<svg width="336pt" height="291pt"
 viewBox="0.00 0.00 336.26 290.63" xmlns="http://www.w3.org/2000/svg" xmlns:xlink="http://www.w3.org/1999/xlink">
<g id="graph0" class="graph" transform="scale(1 1) rotate(0) translate(4 286.627)">
<title>b</title>
<polygon fill="white" stroke="none" points="-4,4 -4,-286.627 332.264,-286.627 332.264,4 -4,4"/>
<!-- 0 -->
<g id="node1" class="node"><title>0</title>
<ellipse fill="#4292c6" stroke="black" cx="33.1471" cy="-210.074" rx="33.2948" ry="18"/>
<text text-anchor="middle" x="33.1471" y="-206.374" font-family="Times,serif" font-size="14.00">Scope</text>
</g>
<!-- 3 -->
<g id="node4" class="node"><title>3</title>
<ellipse fill="#9ecae1" stroke="black" cx="123.773" cy="-253.47" rx="68.4888" ry="18"/>
<text text-anchor="middle" x="123.773" y="-249.77" font-family="Times,serif" font-size="14.00">Entity Mapping</text>
</g>
<!-- 0&#45;&gt;3 -->
<g id="edge4" class="edge"><title>0&#45;&gt;3</title>
<path fill="none" stroke="black" d="M58.3914,-222.162C68.3425,-226.927 79.9117,-232.467 90.5278,-237.551"/>
</g>
<!-- 5 -->
<g id="node6" class="node"><title>5</title>
<ellipse fill="#9ecae1" stroke="black" cx="97.5733" cy="-97.2906" rx="65.7887" ry="18"/>
<text text-anchor="middle" x="97.5733" y="-93.5906" font-family="Times,serif" font-size="14.00">View Mapping</text>
</g>
<!-- 0&#45;&gt;5 -->
<g id="edge7" class="edge"><title>0&#45;&gt;5</title>
<path fill="none" stroke="black" d="M43.2137,-192.452C55.2464,-171.387 75.2696,-136.335 87.3648,-115.161"/>
</g>
<!-- 1 -->
<g id="node2" class="node"><title>1</title>
<ellipse fill="#6baed6" stroke="black" cx="237.451" cy="-207.02" rx="43.5923" ry="18"/>
<text text-anchor="middle" x="237.451" y="-203.32" font-family="Times,serif" font-size="14.00">Attribute</text>
</g>
<!-- 2 -->
<g id="node3" class="node"><title>2</title>
<ellipse fill="#c6dbef" stroke="black" cx="213.137" cy="-54.9253" rx="44.393" ry="18"/>
<text text-anchor="middle" x="213.137" y="-51.2253" font-family="Times,serif" font-size="14.00">Category</text>
</g>
<!-- 7 -->
<g id="node8" class="node"><title>7</title>
<ellipse fill="#4292c6" stroke="black" cx="169.7" cy="-148.058" rx="33.2948" ry="18"/>
<text text-anchor="middle" x="169.7" y="-144.358" font-family="Times,serif" font-size="14.00">Entity</text>
</g>
<!-- 2&#45;&gt;7 -->
<g id="edge2" class="edge"><title>2&#45;&gt;7</title>
<path fill="none" stroke="black" d="M204.762,-72.8822C197.021,-89.4795 185.587,-113.994 177.902,-130.472"/>
</g>
<!-- 4 -->
<g id="node5" class="node"><title>4</title>
<ellipse fill="#c6dbef" stroke="black" cx="299.016" cy="-264.627" rx="29.4969" ry="18"/>
<text text-anchor="middle" x="299.016" y="-260.927" font-family="Times,serif" font-size="14.00">Type</text>
</g>
<!-- 4&#45;&gt;1 -->
<g id="edge6" class="edge"><title>4&#45;&gt;1</title>
<path fill="none" stroke="black" d="M282.841,-249.491C274.433,-241.624 264.132,-231.986 255.47,-223.881"/>
</g>
<!-- 6 -->
<g id="node7" class="node"><title>6</title>
<ellipse fill="#4292c6" stroke="black" cx="51.2073" cy="-18" rx="30.5947" ry="18"/>
<text text-anchor="middle" x="51.2073" y="-14.3" font-family="Times,serif" font-size="14.00">View</text>
</g>
<!-- 6&#45;&gt;5 -->
<g id="edge8" class="edge"><title>6&#45;&gt;5</title>
<path fill="none" stroke="black" d="M61.268,-35.2049C67.2786,-45.4835 75.0438,-58.7629 81.8492,-70.4008"/>
<polygon fill="black" stroke="black" points="78.9801,-72.428 87.0494,-79.2937 85.0228,-68.8944 78.9801,-72.428"/>
</g>
<!-- 7&#45;&gt;1 -->
<g id="edge3" class="edge"><title>7&#45;&gt;1</title>
<path fill="none" stroke="black" d="M187.5,-163.549C194.675,-169.793 203.102,-177.127 210.97,-183.974"/>
<polygon fill="black" stroke="black" points="208.743,-186.676 218.584,-190.6 213.338,-181.395 208.743,-186.676"/>
</g>
<!-- 7&#45;&gt;3 -->
<g id="edge1" class="edge"><title>7&#45;&gt;3</title>
<path fill="none" stroke="black" d="M161.909,-165.939C154.717,-182.446 143.932,-207.202 135.664,-226.178"/>
<polygon fill="black" stroke="black" points="132.388,-224.935 131.602,-235.501 138.805,-227.731 132.388,-224.935"/>
</g>
<!-- 7&#45;&gt;5 -->
<g id="edge5" class="edge"><title>7&#45;&gt;5</title>
<path fill="none" stroke="black" d="M149.224,-133.646C140.561,-127.548 130.413,-120.405 121.415,-114.072"/>
</g>
</g>
</svg>
