<?xml version="1.0" encoding="UTF-8" standalone="no"?>
<!DOCTYPE svg PUBLIC "-//W3C//DTD SVG 1.1//EN"
 "http://www.w3.org/Graphics/SVG/1.1/DTD/svg11.dtd">
<!-- Generated by graphviz version 2.38.0 (20140413.2041)
 -->
<!-- Title: b Pages: 1 -->
<svg width="262pt" height="235pt"
 viewBox="0.00 0.00 262.28 235.23" xmlns="http://www.w3.org/2000/svg" xmlns:xlink="http://www.w3.org/1999/xlink">
<g id="graph0" class="graph" transform="scale(1 1) rotate(0) translate(4 232.038)">
<title>b</title>
<polygon fill="white" stroke="none" points="-4,3.18993 -4,-232.038 258.276,-232.038 258.276,3.18993 -4,3.18993"/>
<!-- 0 -->
<g id="node1" class="node"><title>0</title>
<ellipse fill="#4292c6" stroke="black" cx="33.1471" cy="-92.0195" rx="33.2948" ry="18"/>
<text text-anchor="middle" x="33.1471" y="-88.3195" font-family="Times,serif" font-size="14.00">Scope</text>
</g>
<!-- 2 -->
<g id="node3" class="node"><title>2</title>
<ellipse fill="#9ecae1" stroke="black" cx="70.4142" cy="-18.8101" rx="68.4888" ry="18"/>
<text text-anchor="middle" x="70.4142" y="-15.1101" font-family="Times,serif" font-size="14.00">Entity Mapping</text>
</g>
<!-- 0&#45;&gt;2 -->
<g id="edge2" class="edge"><title>0&#45;&gt;2</title>
<path fill="none" stroke="black" d="M41.9788,-74.6699C47.7904,-63.2534 55.3802,-48.3436 61.2566,-36.7997"/>
</g>
<!-- 3 -->
<g id="node4" class="node"><title>3</title>
<ellipse fill="#9ecae1" stroke="black" cx="103.927" cy="-131.629" rx="65.7887" ry="18"/>
<text text-anchor="middle" x="103.927" y="-127.929" font-family="Times,serif" font-size="14.00">View Mapping</text>
</g>
<!-- 0&#45;&gt;3 -->
<g id="edge3" class="edge"><title>0&#45;&gt;3</title>
<path fill="none" stroke="black" d="M56.3232,-104.989C62.2902,-108.328 68.7852,-111.963 75.0043,-115.443"/>
</g>
<!-- 1 -->
<g id="node2" class="node"><title>1</title>
<ellipse fill="#6baed6" stroke="black" cx="210.73" cy="-24.6797" rx="43.5923" ry="18"/>
<text text-anchor="middle" x="210.73" y="-20.9797" font-family="Times,serif" font-size="14.00">Attribute</text>
</g>
<!-- 4 -->
<g id="node5" class="node"><title>4</title>
<ellipse fill="#4292c6" stroke="black" cx="117.398" cy="-210.038" rx="30.5947" ry="18"/>
<text text-anchor="middle" x="117.398" y="-206.338" font-family="Times,serif" font-size="14.00">View</text>
</g>
<!-- 4&#45;&gt;3 -->
<g id="edge4" class="edge"><title>4&#45;&gt;3</title>
<path fill="none" stroke="black" d="M114.274,-191.853C112.642,-182.352 110.608,-170.514 108.776,-159.853"/>
<polygon fill="black" stroke="black" points="112.178,-158.979 107.035,-149.716 105.279,-160.164 112.178,-158.979"/>
</g>
<!-- 5 -->
<g id="node6" class="node"><title>5</title>
<ellipse fill="#4292c6" stroke="black" cx="141.467" cy="-57.9365" rx="33.2948" ry="18"/>
<text text-anchor="middle" x="141.467" y="-54.2365" font-family="Times,serif" font-size="14.00">Entity</text>
</g>
<!-- 5&#45;&gt;1 -->
<g id="edge6" class="edge"><title>5&#45;&gt;1</title>
<path fill="none" stroke="black" d="M166.472,-45.93C168.55,-44.9323 170.678,-43.9105 172.823,-42.8805"/>
<polygon fill="black" stroke="black" points="174.733,-45.8461 182.233,-38.3625 171.703,-39.5358 174.733,-45.8461"/>
</g>
<!-- 5&#45;&gt;2 -->
<g id="edge5" class="edge"><title>5&#45;&gt;2</title>
<path fill="none" stroke="black" d="M117.807,-44.908C114.941,-43.3296 111.958,-41.6871 108.947,-40.0287"/>
<polygon fill="black" stroke="black" points="110.36,-36.8114 99.9119,-35.0536 106.983,-42.9432 110.36,-36.8114"/>
</g>
<!-- 5&#45;&gt;3 -->
<g id="edge1" class="edge"><title>5&#45;&gt;3</title>
<path fill="none" stroke="black" d="M132.57,-75.4005C126.673,-86.9774 118.958,-102.123 113.021,-113.778"/>
</g>
</g>
</svg>
