<?xml version="1.0" encoding="UTF-8" standalone="no"?>
<!DOCTYPE svg PUBLIC "-//W3C//DTD SVG 1.1//EN"
 "http://www.w3.org/Graphics/SVG/1.1/DTD/svg11.dtd">
<!-- Generated by graphviz version 2.36.0 (20140111.2315)
 -->
<!-- Title: b Pages: 1 -->
<svg width="327pt" height="292pt"
 viewBox="0.00 0.00 326.75 292.46" xmlns="http://www.w3.org/2000/svg" xmlns:xlink="http://www.w3.org/1999/xlink">
<g id="graph0" class="graph" transform="scale(1 1) rotate(0) translate(4 288.456)">
<title>b</title>
<polygon fill="white" stroke="none" points="-4,4 -4,-288.456 322.754,-288.456 322.754,4 -4,4"/>
<!-- 0 -->
<g id="node1" class="node"><title>0</title>
<ellipse fill="#4292c6" stroke="black" cx="58.4334" cy="-214.767" rx="33.2948" ry="18"/>
<text text-anchor="middle" x="58.4334" y="-211.067" font-family="Times,serif" font-size="14.00">Scope</text>
</g>
<!-- 3 -->
<g id="node4" class="node"><title>3</title>
<ellipse fill="#9ecae1" stroke="black" cx="68.2439" cy="-66.4741" rx="68.4888" ry="18"/>
<text text-anchor="middle" x="68.2439" y="-62.7741" font-family="Times,serif" font-size="14.00">Entity Mapping</text>
</g>
<!-- 0&#45;&gt;3 -->
<g id="edge2" class="edge"><title>0&#45;&gt;3</title>
<path fill="none" stroke="black" d="M59.6363,-196.584C61.5192,-168.122 65.1422,-113.359 67.0311,-84.8065"/>
</g>
<!-- 4 -->
<g id="node5" class="node"><title>4</title>
<ellipse fill="#9ecae1" stroke="black" cx="168.138" cy="-189.715" rx="65.7887" ry="18"/>
<text text-anchor="middle" x="168.138" y="-186.015" font-family="Times,serif" font-size="14.00">View Mapping</text>
</g>
<!-- 0&#45;&gt;4 -->
<g id="edge3" class="edge"><title>0&#45;&gt;4</title>
<path fill="none" stroke="black" d="M88.9922,-207.789C97.8682,-205.762 107.808,-203.492 117.565,-201.264"/>
</g>
<!-- 1 -->
<g id="node2" class="node"><title>1</title>
<ellipse fill="#6baed6" stroke="black" cx="275.208" cy="-101.727" rx="43.5923" ry="18"/>
<text text-anchor="middle" x="275.208" y="-98.0273" font-family="Times,serif" font-size="14.00">Attribute</text>
</g>
<!-- 2 -->
<g id="node3" class="node"><title>2</title>
<ellipse fill="#c6dbef" stroke="black" cx="178.684" cy="-18" rx="44.393" ry="18"/>
<text text-anchor="middle" x="178.684" y="-14.3" font-family="Times,serif" font-size="14.00">Category</text>
</g>
<!-- 6 -->
<g id="node7" class="node"><title>6</title>
<ellipse fill="#4292c6" stroke="black" cx="178.923" cy="-106.029" rx="33.2948" ry="18"/>
<text text-anchor="middle" x="178.923" y="-102.329" font-family="Times,serif" font-size="14.00">Entity</text>
</g>
<!-- 2&#45;&gt;6 -->
<g id="edge6" class="edge"><title>2&#45;&gt;6</title>
<path fill="none" stroke="black" d="M178.733,-36.2396C178.774,-51.3474 178.832,-72.7109 178.873,-87.8123"/>
</g>
<!-- 5 -->
<g id="node6" class="node"><title>5</title>
<ellipse fill="#4292c6" stroke="black" cx="185.081" cy="-266.456" rx="30.5947" ry="18"/>
<text text-anchor="middle" x="185.081" y="-262.756" font-family="Times,serif" font-size="14.00">View</text>
</g>
<!-- 5&#45;&gt;4 -->
<g id="edge4" class="edge"><title>5&#45;&gt;4</title>
<path fill="none" stroke="black" d="M181.066,-248.27C179.061,-239.191 176.591,-228.004 174.349,-217.849"/>
<polygon fill="black" stroke="black" points="177.698,-216.782 172.124,-207.771 170.863,-218.291 177.698,-216.782"/>
</g>
<!-- 6&#45;&gt;1 -->
<g id="edge7" class="edge"><title>6&#45;&gt;1</title>
<path fill="none" stroke="black" d="M212.059,-104.548C215.115,-104.412 218.261,-104.271 221.44,-104.129"/>
<polygon fill="black" stroke="black" points="221.805,-107.617 231.638,-103.674 221.492,-100.623 221.805,-107.617"/>
</g>
<!-- 6&#45;&gt;3 -->
<g id="edge5" class="edge"><title>6&#45;&gt;3</title>
<path fill="none" stroke="black" d="M150.994,-96.0473C141.187,-92.5425 129.844,-88.4886 118.76,-84.5276"/>
<polygon fill="black" stroke="black" points="119.727,-81.1564 109.132,-81.0868 117.371,-87.7481 119.727,-81.1564"/>
</g>
<!-- 6&#45;&gt;4 -->
<g id="edge1" class="edge"><title>6&#45;&gt;4</title>
<path fill="none" stroke="black" d="M176.583,-124.187C174.774,-138.224 172.281,-157.564 170.473,-171.592"/>
</g>
</g>
</svg>
