<?xml version="1.0" encoding="UTF-8" standalone="no"?>
<!DOCTYPE svg PUBLIC "-//W3C//DTD SVG 1.1//EN"
 "http://www.w3.org/Graphics/SVG/1.1/DTD/svg11.dtd">
<!-- Generated by graphviz version 2.36.0 (20140111.2315)
 -->
<!-- Title: b Pages: 1 -->
<svg width="267pt" height="217pt"
 viewBox="0.00 0.00 266.97 217.03" xmlns="http://www.w3.org/2000/svg" xmlns:xlink="http://www.w3.org/1999/xlink">
<g id="graph0" class="graph" transform="scale(1 1) rotate(0) translate(4 213.029)">
<title>b</title>
<polygon fill="white" stroke="none" points="-4,4 -4,-213.029 262.969,-213.029 262.969,4 -4,4"/>
<!-- 0 -->
<g id="node1" class="node"><title>0</title>
<ellipse fill="#ef3b2c" stroke="black" cx="40.2964" cy="-40.9033" rx="40.0939" ry="18"/>
<text text-anchor="middle" x="40.2964" y="-37.2033" font-family="Times,serif" font-size="14.00">Usecase</text>
</g>
<!-- 1 -->
<g id="node2" class="node"><title>1</title>
<ellipse fill="#ef3b2c" stroke="black" cx="150.854" cy="-103.555" rx="27.8951" ry="18"/>
<text text-anchor="middle" x="150.854" y="-99.8549" font-family="Times,serif" font-size="14.00">Role</text>
</g>
<!-- 0&#45;&gt;1 -->
<g id="edge7" class="edge"><title>0&#45;&gt;1</title>
<path fill="none" stroke="black" d="M65.3836,-55.1199C84.7512,-66.0953 111.251,-81.1126 129.586,-91.5029"/>
</g>
<!-- 2 -->
<g id="node3" class="node"><title>2</title>
<ellipse fill="#ef3b2c" stroke="black" cx="130.026" cy="-18" rx="30.5947" ry="18"/>
<text text-anchor="middle" x="130.026" y="-14.3" font-family="Times,serif" font-size="14.00">View</text>
</g>
<!-- 2&#45;&gt;0 -->
<g id="edge2" class="edge"><title>2&#45;&gt;0</title>
<path fill="none" stroke="black" d="M101.635,-25.2468C93.3171,-27.3698 84.1222,-29.7168 75.4379,-31.9335"/>
</g>
<!-- 2&#45;&gt;1 -->
<g id="edge1" class="edge"><title>2&#45;&gt;1</title>
<path fill="none" stroke="black" d="M134.443,-36.144C138.001,-50.761 142.977,-71.1991 146.514,-85.7304"/>
</g>
<!-- 3 -->
<g id="node4" class="node"><title>3</title>
<ellipse fill="#fb6a4a" stroke="black" cx="39.525" cy="-169.042" rx="35.9954" ry="18"/>
<text text-anchor="middle" x="39.525" y="-165.342" font-family="Times,serif" font-size="14.00">Action</text>
</g>
<!-- 2&#45;&gt;3 -->
<g id="edge10" class="edge"><title>2&#45;&gt;3</title>
<path fill="none" stroke="black" d="M119.82,-35.0328C104.152,-61.1822 74.0406,-111.437 55.4746,-142.423"/>
<polygon fill="black" stroke="black" points="52.2497,-140.996 50.1122,-151.373 58.2543,-144.593 52.2497,-140.996"/>
</g>
<!-- 3&#45;&gt;0 -->
<g id="edge4" class="edge"><title>3&#45;&gt;0</title>
<path fill="none" stroke="black" d="M39.6339,-150.955C39.7801,-126.671 40.0384,-83.761 40.1856,-59.3136"/>
</g>
<!-- 3&#45;&gt;1 -->
<g id="edge3" class="edge"><title>3&#45;&gt;1</title>
<path fill="none" stroke="black" d="M62.8632,-155.314C82.7564,-143.612 111.079,-126.952 130.171,-115.721"/>
</g>
<!-- 4 -->
<g id="node5" class="node"><title>4</title>
<ellipse fill="#41ab5d" stroke="black" cx="231.022" cy="-108.198" rx="27.8951" ry="18"/>
<text text-anchor="middle" x="231.022" y="-104.498" font-family="Times,serif" font-size="14.00">User</text>
</g>
<!-- 4&#45;&gt;1 -->
<g id="edge6" class="edge"><title>4&#45;&gt;1</title>
<path fill="none" stroke="black" d="M202.983,-106.574C195.126,-106.119 186.589,-105.625 178.741,-105.17"/>
</g>
<!-- 5 -->
<g id="node6" class="node"><title>5</title>
<ellipse fill="#fb6a4a" stroke="black" cx="125.688" cy="-191.029" rx="44.393" ry="18"/>
<text text-anchor="middle" x="125.688" y="-187.329" font-family="Times,serif" font-size="14.00">Category</text>
</g>
<!-- 5&#45;&gt;0 -->
<g id="edge5" class="edge"><title>5&#45;&gt;0</title>
<path fill="none" stroke="black" d="M115.557,-173.218C99.1227,-144.325 66.84,-87.569 50.4141,-58.691"/>
</g>
<!-- 5&#45;&gt;1 -->
<g id="edge8" class="edge"><title>5&#45;&gt;1</title>
<path fill="none" stroke="black" d="M130.902,-172.904C135.25,-157.791 141.41,-136.379 145.732,-121.357"/>
</g>
<!-- 5&#45;&gt;2 -->
<g id="edge9" class="edge"><title>5&#45;&gt;2</title>
<path fill="none" stroke="black" d="M126.144,-172.838C126.977,-139.607 128.736,-69.4493 129.569,-36.206"/>
</g>
</g>
</svg>
