<?xml version="1.0" encoding="UTF-8" standalone="no"?>
<!DOCTYPE svg PUBLIC "-//W3C//DTD SVG 1.1//EN"
 "http://www.w3.org/Graphics/SVG/1.1/DTD/svg11.dtd">
<!-- Generated by graphviz version 2.36.0 (20140111.2315)
 -->
<!-- Title: b Pages: 1 -->
<svg width="392pt" height="333pt"
 viewBox="0.00 0.00 391.64 333.22" xmlns="http://www.w3.org/2000/svg" xmlns:xlink="http://www.w3.org/1999/xlink">
<g id="graph0" class="graph" transform="scale(1 1) rotate(0) translate(4 329.222)">
<title>b</title>
<polygon fill="white" stroke="none" points="-4,4 -4,-329.222 387.639,-329.222 387.639,4 -4,4"/>
<!-- 0 -->
<g id="node1" class="node"><title>0</title>
<ellipse fill="#ef3b2c" stroke="black" cx="63.7551" cy="-307.222" rx="30.5947" ry="18"/>
<text text-anchor="middle" x="63.7551" y="-303.522" font-family="Times,serif" font-size="14.00">View</text>
</g>
<!-- 5 -->
<g id="node6" class="node"><title>5</title>
<ellipse fill="#fb6a4a" stroke="black" cx="35.7468" cy="-96.0226" rx="35.9954" ry="18"/>
<text text-anchor="middle" x="35.7468" y="-92.3226" font-family="Times,serif" font-size="14.00">Action</text>
</g>
<!-- 0&#45;&gt;5 -->
<g id="edge9" class="edge"><title>0&#45;&gt;5</title>
<path fill="none" stroke="black" d="M61.3671,-289.215C56.4786,-252.353 45.3007,-168.065 39.4585,-124.011"/>
<polygon fill="black" stroke="black" points="42.9131,-123.437 38.1287,-113.984 35.9739,-124.357 42.9131,-123.437"/>
</g>
<!-- 1 -->
<g id="node2" class="node"><title>1</title>
<ellipse fill="#ef3b2c" stroke="black" cx="129.46" cy="-239.598" rx="40.0939" ry="18"/>
<text text-anchor="middle" x="129.46" y="-235.898" font-family="Times,serif" font-size="14.00">Usecase</text>
</g>
<!-- 1&#45;&gt;0 -->
<g id="edge8" class="edge"><title>1&#45;&gt;0</title>
<path fill="none" stroke="black" d="M113.218,-256.314C102.882,-266.952 89.568,-280.655 79.3575,-291.164"/>
</g>
<!-- 1&#45;&gt;5 -->
<g id="edge6" class="edge"><title>1&#45;&gt;5</title>
<path fill="none" stroke="black" d="M118.156,-222.279C100.144,-194.683 65.1282,-141.037 47.0909,-113.403"/>
</g>
<!-- 2 -->
<g id="node3" class="node"><title>2</title>
<ellipse fill="#41ab5d" stroke="black" cx="185.399" cy="-18" rx="27.8951" ry="18"/>
<text text-anchor="middle" x="185.399" y="-14.3" font-family="Times,serif" font-size="14.00">User</text>
</g>
<!-- 3 -->
<g id="node4" class="node"><title>3</title>
<ellipse fill="#fb6a4a" stroke="black" cx="220.382" cy="-258.693" rx="44.393" ry="18"/>
<text text-anchor="middle" x="220.382" y="-254.993" font-family="Times,serif" font-size="14.00">Category</text>
</g>
<!-- 3&#45;&gt;0 -->
<g id="edge10" class="edge"><title>3&#45;&gt;0</title>
<path fill="none" stroke="black" d="M184.841,-269.705C156.32,-278.542 116.88,-290.762 90.8641,-298.822"/>
</g>
<!-- 3&#45;&gt;1 -->
<g id="edge7" class="edge"><title>3&#45;&gt;1</title>
<path fill="none" stroke="black" d="M181.031,-250.428C176.04,-249.38 170.948,-248.311 166.003,-247.272"/>
</g>
<!-- 4 -->
<g id="node5" class="node"><title>4</title>
<ellipse fill="#fb6a4a" stroke="black" cx="311.496" cy="-159.953" rx="72.2875" ry="18"/>
<text text-anchor="middle" x="311.496" y="-156.253" font-family="Times,serif" font-size="14.00">Action Template</text>
</g>
<!-- 3&#45;&gt;4 -->
<g id="edge11" class="edge"><title>3&#45;&gt;4</title>
<path fill="none" stroke="black" d="M236.253,-241.494C252.772,-223.592 278.515,-195.694 295.193,-177.62"/>
</g>
<!-- 6 -->
<g id="node7" class="node"><title>6</title>
<ellipse fill="#ef3b2c" stroke="black" cx="137.105" cy="-120.943" rx="27.8951" ry="18"/>
<text text-anchor="middle" x="137.105" y="-117.243" font-family="Times,serif" font-size="14.00">Role</text>
</g>
<!-- 3&#45;&gt;6 -->
<g id="edge2" class="edge"><title>3&#45;&gt;6</title>
<path fill="none" stroke="black" d="M209.665,-240.967C193.499,-214.226 163.087,-163.921 147.259,-137.739"/>
</g>
<!-- 6&#45;&gt;0 -->
<g id="edge5" class="edge"><title>6&#45;&gt;0</title>
<path fill="none" stroke="black" d="M130.205,-138.468C116.225,-173.971 84.7001,-254.031 70.6908,-289.608"/>
</g>
<!-- 6&#45;&gt;1 -->
<g id="edge4" class="edge"><title>6&#45;&gt;1</title>
<path fill="none" stroke="black" d="M135.944,-138.964C134.507,-161.266 132.074,-199.027 130.632,-221.407"/>
</g>
<!-- 6&#45;&gt;2 -->
<g id="edge3" class="edge"><title>6&#45;&gt;2</title>
<path fill="none" stroke="black" d="M145.298,-103.48C154.178,-84.5504 168.27,-54.512 177.166,-35.5486"/>
</g>
<!-- 6&#45;&gt;5 -->
<g id="edge1" class="edge"><title>6&#45;&gt;5</title>
<path fill="none" stroke="black" d="M110.739,-114.461C97.7175,-111.259 81.8892,-107.368 68.1363,-103.986"/>
</g>
</g>
</svg>
