<?xml version="1.0" encoding="UTF-8" standalone="no"?>
<!DOCTYPE svg PUBLIC "-//W3C//DTD SVG 1.1//EN"
 "http://www.w3.org/Graphics/SVG/1.1/DTD/svg11.dtd">
<!-- Generated by graphviz version 2.36.0 (20140111.2315)
 -->
<!-- Title: b Pages: 1 -->
<svg width="350pt" height="308pt"
 viewBox="0.00 0.00 350.00 308.00" xmlns="http://www.w3.org/2000/svg" xmlns:xlink="http://www.w3.org/1999/xlink">
<g id="graph0" class="graph" transform="scale(1 1) rotate(0) translate(4 304)">
<title>b</title>
<polygon fill="white" stroke="none" points="-4,4 -4,-304 346,-304 346,4 -4,4"/>
<!-- 0 -->
<g id="node1" class="node"><title>0</title>
<ellipse fill="#fee5d9" stroke="black" cx="51.3454" cy="-272.771" rx="51.1914" ry="18"/>
<text text-anchor="middle" x="51.3454" y="-269.071" font-family="Times,serif" font-size="14.00">Workspace</text>
</g>
<!-- 1 -->
<g id="node2" class="node"><title>1</title>
<ellipse fill="#fc9272" stroke="black" cx="107.593" cy="-224.256" rx="27.8951" ry="18"/>
<text text-anchor="middle" x="107.593" y="-220.556" font-family="Times,serif" font-size="14.00">Data</text>
</g>
<!-- 0&#45;&gt;1 -->
<g id="edge9" class="edge"><title>0&#45;&gt;1</title>
<path fill="none" stroke="black" d="M70.7026,-256.075C77.1853,-250.483 84.3585,-244.296 90.6429,-238.875"/>
</g>
<!-- 2 -->
<g id="node3" class="node"><title>2</title>
<ellipse fill="#fb6a4a" stroke="black" cx="202.014" cy="-94.0987" rx="33.2948" ry="18"/>
<text text-anchor="middle" x="202.014" y="-90.3987" font-family="Times,serif" font-size="14.00">Scope</text>
</g>
<!-- 6 -->
<g id="node7" class="node"><title>6</title>
<ellipse fill="#fb6a4a" stroke="black" cx="165.287" cy="-169.188" rx="54.6905" ry="18"/>
<text text-anchor="middle" x="165.287" y="-165.488" font-family="Times,serif" font-size="14.00">Time Series</text>
</g>
<!-- 2&#45;&gt;6 -->
<g id="edge8" class="edge"><title>2&#45;&gt;6</title>
<path fill="none" stroke="black" d="M193.496,-111.514C187.647,-123.472 179.907,-139.297 174.014,-151.345"/>
</g>
<!-- 8 -->
<g id="node9" class="node"><title>8</title>
<ellipse fill="#fee5d9" stroke="black" cx="269.609" cy="-140.067" rx="30.5947" ry="18"/>
<text text-anchor="middle" x="269.609" y="-136.367" font-family="Times,serif" font-size="14.00">Class</text>
</g>
<!-- 2&#45;&gt;8 -->
<g id="edge5" class="edge"><title>2&#45;&gt;8</title>
<path fill="none" stroke="black" d="M223.031,-108.391C231.402,-114.084 241,-120.611 249.299,-126.256"/>
</g>
<!-- 9 -->
<g id="node10" class="node"><title>9</title>
<ellipse fill="#fee5d9" stroke="black" cx="62.5223" cy="-90.6882" rx="38.9931" ry="18"/>
<text text-anchor="middle" x="62.5223" y="-86.9882" font-family="Times,serif" font-size="14.00">Interval</text>
</g>
<!-- 2&#45;&gt;9 -->
<g id="edge4" class="edge"><title>2&#45;&gt;9</title>
<path fill="none" stroke="black" d="M168.602,-93.2818C148.452,-92.7891 122.689,-92.1592 101.597,-91.6436"/>
</g>
<!-- 3 -->
<g id="node4" class="node"><title>3</title>
<ellipse fill="#fee5d9" stroke="black" cx="315" cy="-282" rx="27" ry="18"/>
<text text-anchor="middle" x="315" y="-278.3" font-family="Times,serif" font-size="14.00">Flag</text>
</g>
<!-- 4 -->
<g id="node5" class="node"><title>4</title>
<ellipse fill="#fc9272" stroke="black" cx="236.536" cy="-209.665" rx="33.2948" ry="18"/>
<text text-anchor="middle" x="236.536" y="-205.965" font-family="Times,serif" font-size="14.00">Entity</text>
</g>
<!-- 4&#45;&gt;6 -->
<g id="edge7" class="edge"><title>4&#45;&gt;6</title>
<path fill="none" stroke="black" d="M213.6,-196.635C207.01,-192.891 199.753,-188.769 192.912,-184.882"/>
</g>
<!-- 5 -->
<g id="node6" class="node"><title>5</title>
<ellipse fill="#fee5d9" stroke="black" cx="257.789" cy="-38.3499" rx="27" ry="18"/>
<text text-anchor="middle" x="257.789" y="-34.6499" font-family="Times,serif" font-size="14.00">Unit</text>
</g>
<!-- 5&#45;&gt;2 -->
<g id="edge10" class="edge"><title>5&#45;&gt;2</title>
<path fill="none" stroke="black" d="M242.548,-53.5835C234.936,-61.1918 225.73,-70.3942 218.016,-78.1047"/>
</g>
<!-- 6&#45;&gt;1 -->
<g id="edge3" class="edge"><title>6&#45;&gt;1</title>
<path fill="none" stroke="black" d="M147.349,-186.31C139.674,-193.635 130.792,-202.113 123.372,-209.195"/>
</g>
<!-- 7 -->
<g id="node8" class="node"><title>7</title>
<ellipse fill="#fee5d9" stroke="black" cx="164.728" cy="-18" rx="44.393" ry="18"/>
<text text-anchor="middle" x="164.728" y="-14.3" font-family="Times,serif" font-size="14.00">Category</text>
</g>
<!-- 7&#45;&gt;2 -->
<g id="edge6" class="edge"><title>7&#45;&gt;2</title>
<path fill="none" stroke="black" d="M173.565,-36.0343C179.551,-48.253 187.424,-64.3212 193.37,-76.4563"/>
</g>
<!-- 8&#45;&gt;4 -->
<g id="edge1" class="edge"><title>8&#45;&gt;4</title>
<path fill="none" stroke="black" d="M261.263,-157.63C256.288,-168.1 249.989,-181.355 244.994,-191.866"/>
</g>
<!-- 9&#45;&gt;6 -->
<g id="edge2" class="edge"><title>9&#45;&gt;6</title>
<path fill="none" stroke="black" d="M82.8253,-106.197C100.374,-119.602 125.669,-138.924 143.607,-152.627"/>
</g>
</g>
</svg>
