<?xml version="1.0" encoding="UTF-8" standalone="no"?>
<!DOCTYPE svg PUBLIC "-//W3C//DTD SVG 1.1//EN"
 "http://www.w3.org/Graphics/SVG/1.1/DTD/svg11.dtd">
<!-- Generated by graphviz version 2.38.0 (20140413.2041)
 -->
<!-- Title: b Pages: 1 -->
<svg width="283pt" height="270pt"
 viewBox="0.00 0.00 283.17 270.00" xmlns="http://www.w3.org/2000/svg" xmlns:xlink="http://www.w3.org/1999/xlink">
<g id="graph0" class="graph" transform="scale(1 1) rotate(0) translate(-4.61705 265.997)">
<title>b</title>
<polygon fill="white" stroke="none" points="4.61705,4 4.61705,-265.997 287.783,-265.997 287.783,4 4.61705,4"/>
<!-- 0 -->
<g id="node1" class="node"><title>0</title>
<ellipse fill="#fb6a4a" stroke="black" cx="113.545" cy="-90.8927" rx="44.393" ry="18"/>
<text text-anchor="middle" x="113.545" y="-87.1927" font-family="Times,serif" font-size="14.00">Category</text>
</g>
<!-- 2 -->
<g id="node3" class="node"><title>2</title>
<ellipse fill="#fb6a4a" stroke="black" cx="138.175" cy="-165.664" rx="54.6905" ry="18"/>
<text text-anchor="middle" x="138.175" y="-161.964" font-family="Times,serif" font-size="14.00">Time Series</text>
</g>
<!-- 0&#45;&gt;2 -->
<g id="edge4" class="edge"><title>0&#45;&gt;2</title>
<path fill="none" stroke="black" d="M119.508,-108.993C123.38,-120.749 128.406,-136.008 132.268,-147.731"/>
</g>
<!-- 1 -->
<g id="node2" class="node"><title>1</title>
<ellipse fill="#fc9272" stroke="black" cx="250.636" cy="-134.142" rx="33.2948" ry="18"/>
<text text-anchor="middle" x="250.636" y="-130.442" font-family="Times,serif" font-size="14.00">Entity</text>
</g>
<!-- 1&#45;&gt;2 -->
<g id="edge3" class="edge"><title>1&#45;&gt;2</title>
<path fill="none" stroke="black" d="M221.088,-142.424C208.463,-145.963 193.501,-150.156 179.787,-154"/>
</g>
<!-- 5 -->
<g id="node6" class="node"><title>5</title>
<ellipse fill="#fc9272" stroke="black" cx="163.478" cy="-243.997" rx="27.8951" ry="18"/>
<text text-anchor="middle" x="163.478" y="-240.297" font-family="Times,serif" font-size="14.00">Data</text>
</g>
<!-- 2&#45;&gt;5 -->
<g id="edge1" class="edge"><title>2&#45;&gt;5</title>
<path fill="none" stroke="black" d="M144.043,-183.832C148.16,-196.577 153.638,-213.534 157.728,-226.197"/>
</g>
<!-- 3 -->
<g id="node4" class="node"><title>3</title>
<ellipse fill="#fee5d9" stroke="black" cx="47.6136" cy="-198.822" rx="38.9931" ry="18"/>
<text text-anchor="middle" x="47.6136" y="-195.122" font-family="Times,serif" font-size="14.00">Interval</text>
</g>
<!-- 3&#45;&gt;2 -->
<g id="edge2" class="edge"><title>3&#45;&gt;2</title>
<path fill="none" stroke="black" d="M78.2735,-187.596C85.7653,-184.853 93.8552,-181.891 101.593,-179.058"/>
</g>
<!-- 4 -->
<g id="node5" class="node"><title>4</title>
<ellipse fill="#fee5d9" stroke="black" cx="96.055" cy="-18" rx="27" ry="18"/>
<text text-anchor="middle" x="96.055" y="-14.3" font-family="Times,serif" font-size="14.00">Unit</text>
</g>
<!-- 4&#45;&gt;0 -->
<g id="edge5" class="edge"><title>4&#45;&gt;0</title>
<path fill="none" stroke="black" d="M100.378,-36.0184C103.069,-47.2328 106.518,-61.606 109.211,-72.8289"/>
</g>
</g>
</svg>
