<?xml version="1.0" encoding="UTF-8" standalone="no"?>
<!DOCTYPE svg PUBLIC "-//W3C//DTD SVG 1.1//EN"
 "http://www.w3.org/Graphics/SVG/1.1/DTD/svg11.dtd">
<!-- Generated by graphviz version 2.36.0 (20140111.2315)
 -->
<!-- Title: b Pages: 1 -->
<svg width="385pt" height="344pt"
 viewBox="0.00 0.00 384.58 344.15" xmlns="http://www.w3.org/2000/svg" xmlns:xlink="http://www.w3.org/1999/xlink">
<g id="graph0" class="graph" transform="scale(1 1) rotate(0) translate(4 340.153)">
<title>b</title>
<polygon fill="white" stroke="none" points="-4,4 -4,-340.153 380.583,-340.153 380.583,4 -4,4"/>
<!-- 0 -->
<g id="node1" class="node"><title>0</title>
<ellipse fill="#4292c6" stroke="black" cx="92.3025" cy="-84.1396" rx="51.1914" ry="18"/>
<text text-anchor="middle" x="92.3025" y="-80.4396" font-family="Times,serif" font-size="14.00">Workspace</text>
</g>
<!-- 2 -->
<g id="node3" class="node"><title>2</title>
<ellipse fill="#6baed6" stroke="black" cx="99.4931" cy="-177.587" rx="27.8951" ry="18"/>
<text text-anchor="middle" x="99.4931" y="-173.887" font-family="Times,serif" font-size="14.00">Data</text>
</g>
<!-- 0&#45;&gt;2 -->
<g id="edge17" class="edge"><title>0&#45;&gt;2</title>
<path fill="none" stroke="black" d="M93.6889,-102.157C94.9541,-118.599 96.815,-142.783 98.0864,-159.306"/>
</g>
<!-- 6 -->
<g id="node7" class="node"><title>6</title>
<ellipse fill="#6baed6" stroke="black" cx="154.02" cy="-19.9315" rx="28.6953" ry="18"/>
<text text-anchor="middle" x="154.02" y="-16.2315" font-family="Times,serif" font-size="14.00">Staff</text>
</g>
<!-- 0&#45;&gt;6 -->
<g id="edge4" class="edge"><title>0&#45;&gt;6</title>
<path fill="none" stroke="black" d="M108.842,-66.933C118.268,-57.1262 129.985,-44.9364 139.124,-35.4284"/>
</g>
<!-- 1 -->
<g id="node2" class="node"><title>1</title>
<ellipse fill="#41ab5d" stroke="black" cx="300.407" cy="-18" rx="27.8951" ry="18"/>
<text text-anchor="middle" x="300.407" y="-14.3" font-family="Times,serif" font-size="14.00">User</text>
</g>
<!-- 3 -->
<g id="node4" class="node"><title>3</title>
<ellipse fill="#6baed6" stroke="black" cx="265.891" cy="-119.988" rx="28.6953" ry="18"/>
<text text-anchor="middle" x="265.891" y="-116.288" font-family="Times,serif" font-size="14.00">Staff</text>
</g>
<!-- 1&#45;&gt;3 -->
<g id="edge9" class="edge"><title>1&#45;&gt;3</title>
<path fill="none" stroke="black" d="M294.395,-35.765C288.098,-54.3701 278.264,-83.4278 271.95,-102.085"/>
</g>
<!-- 1&#45;&gt;6 -->
<g id="edge2" class="edge"><title>1&#45;&gt;6</title>
<path fill="none" stroke="black" d="M272.182,-18.3724C246.426,-18.7122 208.542,-19.2121 182.658,-19.5536"/>
</g>
<!-- 4 -->
<g id="node5" class="node"><title>4</title>
<ellipse fill="#4292c6" stroke="black" cx="258.081" cy="-236.507" rx="33.2948" ry="18"/>
<text text-anchor="middle" x="258.081" y="-232.807" font-family="Times,serif" font-size="14.00">Scope</text>
</g>
<!-- 4&#45;&gt;3 -->
<g id="edge8" class="edge"><title>4&#45;&gt;3</title>
<path fill="none" stroke="black" d="M259.301,-218.301C260.768,-196.411 263.216,-159.899 264.679,-138.067"/>
</g>
<!-- 9 -->
<g id="node10" class="node"><title>9</title>
<ellipse fill="#4292c6" stroke="black" cx="162.777" cy="-216.764" rx="54.6905" ry="18"/>
<text text-anchor="middle" x="162.777" y="-213.064" font-family="Times,serif" font-size="14.00">Time Series</text>
</g>
<!-- 4&#45;&gt;9 -->
<g id="edge13" class="edge"><title>4&#45;&gt;9</title>
<path fill="none" stroke="black" d="M226.875,-230.043C221.229,-228.873 215.232,-227.631 209.26,-226.393"/>
</g>
<!-- 12 -->
<g id="node13" class="node"><title>12</title>
<ellipse fill="#c6dbef" stroke="black" cx="323.252" cy="-195.132" rx="30.5947" ry="18"/>
<text text-anchor="middle" x="323.252" y="-191.432" font-family="Times,serif" font-size="14.00">Class</text>
</g>
<!-- 4&#45;&gt;12 -->
<g id="edge6" class="edge"><title>4&#45;&gt;12</title>
<path fill="none" stroke="black" d="M279.782,-222.73C287.039,-218.122 295.111,-212.998 302.309,-208.428"/>
</g>
<!-- 13 -->
<g id="node14" class="node"><title>13</title>
<ellipse fill="#c6dbef" stroke="black" cx="194.572" cy="-285.206" rx="38.9931" ry="18"/>
<text text-anchor="middle" x="194.572" y="-281.506" font-family="Times,serif" font-size="14.00">Interval</text>
</g>
<!-- 4&#45;&gt;13 -->
<g id="edge5" class="edge"><title>4&#45;&gt;13</title>
<path fill="none" stroke="black" d="M238.681,-251.383C231.093,-257.201 222.391,-263.874 214.732,-269.747"/>
</g>
<!-- 5 -->
<g id="node6" class="node"><title>5</title>
<ellipse fill="#9e9ac8" stroke="black" cx="27" cy="-213.214" rx="27" ry="18"/>
<text text-anchor="middle" x="27" y="-209.514" font-family="Times,serif" font-size="14.00">Flag</text>
</g>
<!-- 5&#45;&gt;2 -->
<g id="edge15" class="edge"><title>5&#45;&gt;2</title>
<path fill="none" stroke="black" d="M48.7503,-202.525C57.7587,-198.098 68.1974,-192.968 77.2563,-188.516"/>
</g>
<!-- 7 -->
<g id="node8" class="node"><title>7</title>
<ellipse fill="#6baed6" stroke="black" cx="239.958" cy="-181.172" rx="33.2948" ry="18"/>
<text text-anchor="middle" x="239.958" y="-177.472" font-family="Times,serif" font-size="14.00">Entity</text>
</g>
<!-- 7&#45;&gt;9 -->
<g id="edge11" class="edge"><title>7&#45;&gt;9</title>
<path fill="none" stroke="black" d="M214.686,-192.826C208.268,-195.786 201.289,-199.004 194.591,-202.093"/>
</g>
<!-- 8 -->
<g id="node9" class="node"><title>8</title>
<ellipse fill="#c6dbef" stroke="black" cx="270.98" cy="-318.153" rx="27" ry="18"/>
<text text-anchor="middle" x="270.98" y="-314.453" font-family="Times,serif" font-size="14.00">Unit</text>
</g>
<!-- 8&#45;&gt;4 -->
<g id="edge16" class="edge"><title>8&#45;&gt;4</title>
<path fill="none" stroke="black" d="M268.117,-300.033C265.98,-286.503 263.071,-268.094 260.936,-254.577"/>
</g>
<!-- 9&#45;&gt;2 -->
<g id="edge14" class="edge"><title>9&#45;&gt;2</title>
<path fill="none" stroke="black" d="M137.037,-200.829C131.288,-197.27 125.27,-193.545 119.778,-190.145"/>
</g>
<!-- 10 -->
<g id="node11" class="node"><title>10</title>
<ellipse fill="#ef3b2c" stroke="black" cx="197.365" cy="-80.7137" rx="27.8951" ry="18"/>
<text text-anchor="middle" x="197.365" y="-77.0137" font-family="Times,serif" font-size="14.00">Role</text>
</g>
<!-- 10&#45;&gt;1 -->
<g id="edge1" class="edge"><title>10&#45;&gt;1</title>
<path fill="none" stroke="black" d="M217.723,-68.3235C235.788,-57.3289 262.04,-41.3512 280.091,-30.3645"/>
</g>
<!-- 10&#45;&gt;3 -->
<g id="edge3" class="edge"><title>10&#45;&gt;3</title>
<path fill="none" stroke="black" d="M218.298,-92.7108C226.642,-97.4932 236.236,-102.992 244.614,-107.794"/>
</g>
<!-- 10&#45;&gt;6 -->
<g id="edge10" class="edge"><title>10&#45;&gt;6</title>
<path fill="none" stroke="black" d="M185.521,-64.1047C179.405,-55.5282 171.964,-45.094 165.85,-36.5204"/>
</g>
<!-- 11 -->
<g id="node12" class="node"><title>11</title>
<ellipse fill="#c6dbef" stroke="black" cx="332.386" cy="-270.212" rx="44.393" ry="18"/>
<text text-anchor="middle" x="332.386" y="-266.512" font-family="Times,serif" font-size="14.00">Category</text>
</g>
<!-- 11&#45;&gt;4 -->
<g id="edge7" class="edge"><title>11&#45;&gt;4</title>
<path fill="none" stroke="black" d="M302.592,-256.697C296.293,-253.84 289.701,-250.85 283.578,-248.073"/>
</g>
<!-- 12&#45;&gt;7 -->
<g id="edge12" class="edge"><title>12&#45;&gt;7</title>
<path fill="none" stroke="black" d="M293.651,-190.171C286.544,-188.98 278.924,-187.703 271.723,-186.496"/>
</g>
<!-- 13&#45;&gt;9 -->
<g id="edge18" class="edge"><title>13&#45;&gt;9</title>
<path fill="none" stroke="black" d="M186.384,-267.58C181.673,-257.441 175.772,-244.737 171.048,-234.567"/>
</g>
</g>
</svg>
