<?xml version="1.0" encoding="UTF-8" standalone="no"?>
<!DOCTYPE svg PUBLIC "-//W3C//DTD SVG 1.1//EN"
 "http://www.w3.org/Graphics/SVG/1.1/DTD/svg11.dtd">
<!-- Generated by graphviz version 2.36.0 (20140111.2315)
 -->
<!-- Title: b Pages: 1 -->
<svg width="567pt" height="284pt"
 viewBox="0.00 0.00 566.74 284.00" xmlns="http://www.w3.org/2000/svg" xmlns:xlink="http://www.w3.org/1999/xlink">
<g id="graph0" class="graph" transform="scale(1 1) rotate(0) translate(4 280)">
<title>b</title>
<polygon fill="white" stroke="none" points="-4,4 -4,-280 562.738,-280 562.738,4 -4,4"/>
<!-- 0 -->
<g id="node1" class="node"><title>0</title>
<ellipse fill="#fee5d9" stroke="black" cx="370.254" cy="-74.4911" rx="51.1914" ry="18"/>
<text text-anchor="middle" x="370.254" y="-70.7911" font-family="Times,serif" font-size="14.00">Workspace</text>
</g>
<!-- 2 -->
<g id="node3" class="node"><title>2</title>
<ellipse fill="#fc9272" stroke="black" cx="330.341" cy="-183.404" rx="27.8951" ry="18"/>
<text text-anchor="middle" x="330.341" y="-179.704" font-family="Times,serif" font-size="14.00">Data</text>
</g>
<!-- 0&#45;&gt;2 -->
<g id="edge2" class="edge"><title>0&#45;&gt;2</title>
<path fill="none" stroke="black" d="M363.663,-92.4759C356.223,-112.777 344.198,-145.592 336.809,-165.754"/>
</g>
<!-- 4 -->
<g id="node5" class="node"><title>4</title>
<ellipse fill="lightgrey" stroke="black" cx="443.1" cy="-118.869" rx="28.6953" ry="18"/>
<text text-anchor="middle" x="443.1" y="-115.169" font-family="Times,serif" font-size="14.00">Staff</text>
</g>
<!-- 0&#45;&gt;4 -->
<g id="edge12" class="edge"><title>0&#45;&gt;4</title>
<path fill="none" stroke="black" d="M396.142,-90.2619C404.648,-95.4438 413.993,-101.137 422.091,-106.07"/>
</g>
<!-- 1 -->
<g id="node2" class="node"><title>1</title>
<ellipse fill="#41ab5d" stroke="black" cx="529.793" cy="-195.258" rx="27.8951" ry="18"/>
<text text-anchor="middle" x="529.793" y="-191.558" font-family="Times,serif" font-size="14.00">User</text>
</g>
<!-- 1&#45;&gt;4 -->
<g id="edge10" class="edge"><title>1&#45;&gt;4</title>
<path fill="none" stroke="black" d="M513.078,-180.529C497.726,-167.003 475.099,-147.065 459.764,-133.552"/>
</g>
<!-- 9 -->
<g id="node10" class="node"><title>9</title>
<ellipse fill="#ef3b2c" stroke="black" cx="530.791" cy="-39.0842" rx="27.8951" ry="18"/>
<text text-anchor="middle" x="530.791" y="-35.3842" font-family="Times,serif" font-size="14.00">Role</text>
</g>
<!-- 1&#45;&gt;9 -->
<g id="edge9" class="edge"><title>1&#45;&gt;9</title>
<path fill="none" stroke="black" d="M529.909,-177.037C530.102,-146.944 530.483,-87.2056 530.675,-57.1889"/>
</g>
<!-- 3 -->
<g id="node4" class="node"><title>3</title>
<ellipse fill="#fb6a4a" stroke="black" cx="143.721" cy="-109.66" rx="33.2948" ry="18"/>
<text text-anchor="middle" x="143.721" y="-105.96" font-family="Times,serif" font-size="14.00">Scope</text>
</g>
<!-- 8 -->
<g id="node9" class="node"><title>8</title>
<ellipse fill="#fb6a4a" stroke="black" cx="230.088" cy="-136.543" rx="54.6905" ry="18"/>
<text text-anchor="middle" x="230.088" y="-132.843" font-family="Times,serif" font-size="14.00">Time Series</text>
</g>
<!-- 3&#45;&gt;8 -->
<g id="edge7" class="edge"><title>3&#45;&gt;8</title>
<path fill="none" stroke="black" d="M172.48,-118.612C178.172,-120.384 184.242,-122.273 190.227,-124.136"/>
</g>
<!-- 11 -->
<g id="node12" class="node"><title>11</title>
<ellipse fill="#fee5d9" stroke="black" cx="72.7512" cy="-212.235" rx="30.5947" ry="18"/>
<text text-anchor="middle" x="72.7512" y="-208.535" font-family="Times,serif" font-size="14.00">Class</text>
</g>
<!-- 3&#45;&gt;11 -->
<g id="edge6" class="edge"><title>3&#45;&gt;11</title>
<path fill="none" stroke="black" d="M132.001,-126.598C118.852,-145.604 97.6443,-176.256 84.4877,-195.271"/>
</g>
<!-- 12 -->
<g id="node13" class="node"><title>12</title>
<ellipse fill="#fee5d9" stroke="black" cx="249.459" cy="-28.9564" rx="38.9931" ry="18"/>
<text text-anchor="middle" x="249.459" y="-25.2564" font-family="Times,serif" font-size="14.00">Interval</text>
</g>
<!-- 3&#45;&gt;12 -->
<g id="edge5" class="edge"><title>3&#45;&gt;12</title>
<path fill="none" stroke="black" d="M163.115,-94.8579C181.835,-80.5694 210.069,-59.0202 229.106,-44.4901"/>
</g>
<!-- 5 -->
<g id="node6" class="node"><title>5</title>
<ellipse fill="#fee5d9" stroke="black" cx="417" cy="-258" rx="27" ry="18"/>
<text text-anchor="middle" x="417" y="-254.3" font-family="Times,serif" font-size="14.00">Flag</text>
</g>
<!-- 6 -->
<g id="node7" class="node"><title>6</title>
<ellipse fill="#fc9272" stroke="black" cx="221.311" cy="-222.697" rx="33.2948" ry="18"/>
<text text-anchor="middle" x="221.311" y="-218.997" font-family="Times,serif" font-size="14.00">Entity</text>
</g>
<!-- 6&#45;&gt;8 -->
<g id="edge4" class="edge"><title>6&#45;&gt;8</title>
<path fill="none" stroke="black" d="M223.172,-204.426C224.662,-189.805 226.741,-169.402 228.23,-154.788"/>
</g>
<!-- 7 -->
<g id="node8" class="node"><title>7</title>
<ellipse fill="#fee5d9" stroke="black" cx="27" cy="-108.927" rx="27" ry="18"/>
<text text-anchor="middle" x="27" y="-105.227" font-family="Times,serif" font-size="14.00">Unit</text>
</g>
<!-- 7&#45;&gt;3 -->
<g id="edge1" class="edge"><title>7&#45;&gt;3</title>
<path fill="none" stroke="black" d="M54.0714,-109.097C70.9076,-109.203 92.6762,-109.34 110.546,-109.452"/>
</g>
<!-- 8&#45;&gt;2 -->
<g id="edge13" class="edge"><title>8&#45;&gt;2</title>
<path fill="none" stroke="black" d="M261.809,-151.37C276.724,-158.342 294.163,-166.494 307.717,-172.829"/>
</g>
<!-- 9&#45;&gt;4 -->
<g id="edge3" class="edge"><title>9&#45;&gt;4</title>
<path fill="none" stroke="black" d="M514.297,-54.0911C498.619,-68.3552 475.173,-89.6872 459.52,-103.929"/>
</g>
<!-- 10 -->
<g id="node11" class="node"><title>10</title>
<ellipse fill="#fee5d9" stroke="black" cx="81.6036" cy="-18" rx="44.393" ry="18"/>
<text text-anchor="middle" x="81.6036" y="-14.3" font-family="Times,serif" font-size="14.00">Category</text>
</g>
<!-- 10&#45;&gt;3 -->
<g id="edge8" class="edge"><title>10&#45;&gt;3</title>
<path fill="none" stroke="black" d="M93.5804,-35.673C104.721,-52.112 121.209,-76.4424 132.201,-92.6612"/>
</g>
<!-- 11&#45;&gt;6 -->
<g id="edge11" class="edge"><title>11&#45;&gt;6</title>
<path fill="none" stroke="black" d="M103.173,-214.377C127.96,-216.123 162.9,-218.583 188.349,-220.376"/>
</g>
<!-- 12&#45;&gt;8 -->
<g id="edge14" class="edge"><title>12&#45;&gt;8</title>
<path fill="none" stroke="black" d="M246.173,-47.2071C242.589,-67.1109 236.89,-98.7654 233.326,-118.562"/>
</g>
</g>
</svg>
