<?xml version="1.0" encoding="UTF-8" standalone="no"?>
<!DOCTYPE svg PUBLIC "-//W3C//DTD SVG 1.1//EN"
 "http://www.w3.org/Graphics/SVG/1.1/DTD/svg11.dtd">
<!-- Generated by graphviz version 2.38.0 (20140413.2041)
 -->
<!-- Title: b Pages: 1 -->
<svg width="385pt" height="344pt"
 viewBox="0.00 0.00 384.58 344.15" xmlns="http://www.w3.org/2000/svg" xmlns:xlink="http://www.w3.org/1999/xlink">
<g id="graph0" class="graph" transform="scale(1 1) rotate(0) translate(4 341.539)">
<title>b</title>
<polygon fill="white" stroke="none" points="-4,2.61442 -4,-341.539 380.583,-341.539 380.583,2.61442 -4,2.61442"/>
<!-- 0 -->
<g id="node1" class="node"><title>0</title>
<ellipse fill="#4292c6" stroke="black" cx="92.3025" cy="-85.5252" rx="51.1914" ry="18"/>
<text text-anchor="middle" x="92.3025" y="-81.8252" font-family="Times,serif" font-size="14.00">Workspace</text>
</g>
<!-- 2 -->
<g id="node3" class="node"><title>2</title>
<ellipse fill="#6baed6" stroke="black" cx="99.4931" cy="-178.973" rx="27.8951" ry="18"/>
<text text-anchor="middle" x="99.4931" y="-175.273" font-family="Times,serif" font-size="14.00">Data</text>
</g>
<!-- 0&#45;&gt;2 -->
<g id="edge17" class="edge"><title>0&#45;&gt;2</title>
<path fill="none" stroke="black" d="M93.6889,-103.543C94.9541,-119.984 96.815,-144.168 98.0864,-160.692"/>
</g>
<!-- 6 -->
<g id="node7" class="node"><title>6</title>
<ellipse fill="#6baed6" stroke="black" cx="154.02" cy="-21.3171" rx="28.6953" ry="18"/>
<text text-anchor="middle" x="154.02" y="-17.6171" font-family="Times,serif" font-size="14.00">Staff</text>
</g>
<!-- 0&#45;&gt;6 -->
<g id="edge4" class="edge"><title>0&#45;&gt;6</title>
<path fill="none" stroke="black" d="M108.842,-68.3186C118.268,-58.5118 129.985,-46.322 139.124,-36.814"/>
</g>
<!-- 1 -->
<g id="node2" class="node"><title>1</title>
<ellipse fill="#41ab5d" stroke="black" cx="300.407" cy="-19.3856" rx="27.8951" ry="18"/>
<text text-anchor="middle" x="300.407" y="-15.6856" font-family="Times,serif" font-size="14.00">User</text>
</g>
<!-- 3 -->
<g id="node4" class="node"><title>3</title>
<ellipse fill="#6baed6" stroke="black" cx="265.891" cy="-121.374" rx="28.6953" ry="18"/>
<text text-anchor="middle" x="265.891" y="-117.674" font-family="Times,serif" font-size="14.00">Staff</text>
</g>
<!-- 1&#45;&gt;3 -->
<g id="edge9" class="edge"><title>1&#45;&gt;3</title>
<path fill="none" stroke="black" d="M294.395,-37.1506C288.098,-55.7557 278.264,-84.8134 271.95,-103.47"/>
</g>
<!-- 1&#45;&gt;6 -->
<g id="edge2" class="edge"><title>1&#45;&gt;6</title>
<path fill="none" stroke="black" d="M272.182,-19.758C246.426,-20.0978 208.542,-20.5977 182.658,-20.9392"/>
</g>
<!-- 4 -->
<g id="node5" class="node"><title>4</title>
<ellipse fill="#4292c6" stroke="black" cx="258.081" cy="-237.893" rx="33.2948" ry="18"/>
<text text-anchor="middle" x="258.081" y="-234.193" font-family="Times,serif" font-size="14.00">Scope</text>
</g>
<!-- 4&#45;&gt;3 -->
<g id="edge8" class="edge"><title>4&#45;&gt;3</title>
<path fill="none" stroke="black" d="M259.301,-219.687C260.768,-197.797 263.216,-161.285 264.679,-139.452"/>
</g>
<!-- 9 -->
<g id="node10" class="node"><title>9</title>
<ellipse fill="#4292c6" stroke="black" cx="162.777" cy="-218.149" rx="54.6905" ry="18"/>
<text text-anchor="middle" x="162.777" y="-214.449" font-family="Times,serif" font-size="14.00">Time Series</text>
</g>
<!-- 4&#45;&gt;9 -->
<g id="edge13" class="edge"><title>4&#45;&gt;9</title>
<path fill="none" stroke="black" d="M226.875,-231.428C221.229,-230.259 215.232,-229.016 209.26,-227.779"/>
</g>
<!-- 12 -->
<g id="node13" class="node"><title>12</title>
<ellipse fill="#c6dbef" stroke="black" cx="323.252" cy="-196.518" rx="30.5947" ry="18"/>
<text text-anchor="middle" x="323.252" y="-192.818" font-family="Times,serif" font-size="14.00">Class</text>
</g>
<!-- 4&#45;&gt;12 -->
<g id="edge6" class="edge"><title>4&#45;&gt;12</title>
<path fill="none" stroke="black" d="M279.782,-224.116C287.039,-219.508 295.111,-214.384 302.309,-209.814"/>
</g>
<!-- 13 -->
<g id="node14" class="node"><title>13</title>
<ellipse fill="#c6dbef" stroke="black" cx="194.572" cy="-286.591" rx="38.9931" ry="18"/>
<text text-anchor="middle" x="194.572" y="-282.891" font-family="Times,serif" font-size="14.00">Interval</text>
</g>
<!-- 4&#45;&gt;13 -->
<g id="edge5" class="edge"><title>4&#45;&gt;13</title>
<path fill="none" stroke="black" d="M238.681,-252.769C231.093,-258.587 222.391,-265.26 214.732,-271.133"/>
</g>
<!-- 5 -->
<g id="node6" class="node"><title>5</title>
<ellipse fill="#9e9ac8" stroke="black" cx="27" cy="-214.6" rx="27" ry="18"/>
<text text-anchor="middle" x="27" y="-210.9" font-family="Times,serif" font-size="14.00">Flag</text>
</g>
<!-- 5&#45;&gt;2 -->
<g id="edge15" class="edge"><title>5&#45;&gt;2</title>
<path fill="none" stroke="black" d="M48.7503,-203.911C57.7587,-199.483 68.1974,-194.353 77.2563,-189.901"/>
</g>
<!-- 7 -->
<g id="node8" class="node"><title>7</title>
<ellipse fill="#6baed6" stroke="black" cx="239.958" cy="-182.558" rx="33.2948" ry="18"/>
<text text-anchor="middle" x="239.958" y="-178.858" font-family="Times,serif" font-size="14.00">Entity</text>
</g>
<!-- 7&#45;&gt;9 -->
<g id="edge11" class="edge"><title>7&#45;&gt;9</title>
<path fill="none" stroke="black" d="M214.686,-194.212C208.268,-197.172 201.289,-200.39 194.591,-203.479"/>
</g>
<!-- 8 -->
<g id="node9" class="node"><title>8</title>
<ellipse fill="#c6dbef" stroke="black" cx="270.98" cy="-319.539" rx="27" ry="18"/>
<text text-anchor="middle" x="270.98" y="-315.839" font-family="Times,serif" font-size="14.00">Unit</text>
</g>
<!-- 8&#45;&gt;4 -->
<g id="edge16" class="edge"><title>8&#45;&gt;4</title>
<path fill="none" stroke="black" d="M268.117,-301.419C265.98,-287.889 263.071,-269.48 260.936,-255.962"/>
</g>
<!-- 9&#45;&gt;2 -->
<g id="edge14" class="edge"><title>9&#45;&gt;2</title>
<path fill="none" stroke="black" d="M137.037,-202.215C131.288,-198.656 125.27,-194.93 119.778,-191.53"/>
</g>
<!-- 10 -->
<g id="node11" class="node"><title>10</title>
<ellipse fill="#ef3b2c" stroke="black" cx="197.365" cy="-82.0992" rx="27.8951" ry="18"/>
<text text-anchor="middle" x="197.365" y="-78.3992" font-family="Times,serif" font-size="14.00">Role</text>
</g>
<!-- 10&#45;&gt;1 -->
<g id="edge1" class="edge"><title>10&#45;&gt;1</title>
<path fill="none" stroke="black" d="M217.723,-69.709C235.788,-58.7145 262.04,-42.7368 280.091,-31.75"/>
</g>
<!-- 10&#45;&gt;3 -->
<g id="edge3" class="edge"><title>10&#45;&gt;3</title>
<path fill="none" stroke="black" d="M218.298,-94.0963C226.642,-98.8787 236.236,-104.377 244.614,-109.179"/>
</g>
<!-- 10&#45;&gt;6 -->
<g id="edge10" class="edge"><title>10&#45;&gt;6</title>
<path fill="none" stroke="black" d="M185.521,-65.4903C179.405,-56.9138 171.964,-46.4795 165.85,-37.906"/>
</g>
<!-- 11 -->
<g id="node12" class="node"><title>11</title>
<ellipse fill="#c6dbef" stroke="black" cx="332.386" cy="-271.598" rx="44.393" ry="18"/>
<text text-anchor="middle" x="332.386" y="-267.898" font-family="Times,serif" font-size="14.00">Category</text>
</g>
<!-- 11&#45;&gt;4 -->
<g id="edge7" class="edge"><title>11&#45;&gt;4</title>
<path fill="none" stroke="black" d="M302.592,-258.083C296.293,-255.226 289.701,-252.235 283.578,-249.458"/>
</g>
<!-- 12&#45;&gt;7 -->
<g id="edge12" class="edge"><title>12&#45;&gt;7</title>
<path fill="none" stroke="black" d="M293.651,-191.557C286.544,-190.365 278.924,-189.088 271.723,-187.881"/>
</g>
<!-- 13&#45;&gt;9 -->
<g id="edge18" class="edge"><title>13&#45;&gt;9</title>
<path fill="none" stroke="black" d="M186.384,-268.966C181.673,-258.826 175.772,-246.122 171.048,-235.953"/>
</g>
</g>
</svg>
