<?xml version="1.0" encoding="UTF-8" standalone="no"?>
<!DOCTYPE svg PUBLIC "-//W3C//DTD SVG 1.1//EN"
 "http://www.w3.org/Graphics/SVG/1.1/DTD/svg11.dtd">
<!-- Generated by graphviz version 2.36.0 (20140111.2315)
 -->
<!-- Title: b Pages: 1 -->
<svg width="337pt" height="324pt"
 viewBox="0.00 0.00 337.00 324.39" xmlns="http://www.w3.org/2000/svg" xmlns:xlink="http://www.w3.org/1999/xlink">
<g id="graph0" class="graph" transform="scale(1 1) rotate(0) translate(4 320.388)">
<title>b</title>
<polygon fill="white" stroke="none" points="-4,4 -4,-320.388 333,-320.388 333,4 -4,4"/>
<!-- 0 -->
<g id="node1" class="node"><title>0</title>
<ellipse fill="#6baed6" stroke="black" cx="51.3454" cy="-250.371" rx="51.1914" ry="18"/>
<text text-anchor="middle" x="51.3454" y="-246.671" font-family="Times,serif" font-size="14.00">Workspace</text>
</g>
<!-- 2 -->
<g id="node3" class="node"><title>2</title>
<ellipse fill="#9ecae1" stroke="black" cx="46.648" cy="-166.841" rx="27.8951" ry="18"/>
<text text-anchor="middle" x="46.648" y="-163.141" font-family="Times,serif" font-size="14.00">Data</text>
</g>
<!-- 0&#45;&gt;2 -->
<g id="edge16" class="edge"><title>0&#45;&gt;2</title>
<path fill="none" stroke="black" d="M50.3262,-232.246C49.5383,-218.236 48.4527,-198.932 47.6653,-184.931"/>
</g>
<!-- 6 -->
<g id="node7" class="node"><title>6</title>
<ellipse fill="#9ecae1" stroke="black" cx="122.084" cy="-298.388" rx="28.6953" ry="18"/>
<text text-anchor="middle" x="122.084" y="-294.688" font-family="Times,serif" font-size="14.00">Staff</text>
</g>
<!-- 0&#45;&gt;6 -->
<g id="edge4" class="edge"><title>0&#45;&gt;6</title>
<path fill="none" stroke="black" d="M75.2943,-266.628C84.1123,-272.613 93.9912,-279.319 102.391,-285.021"/>
</g>
<!-- 1 -->
<g id="node2" class="node"><title>1</title>
<ellipse fill="#41ab5d" stroke="black" cx="152.237" cy="-233.364" rx="27.8951" ry="18"/>
<text text-anchor="middle" x="152.237" y="-229.664" font-family="Times,serif" font-size="14.00">User</text>
</g>
<!-- 3 -->
<g id="node4" class="node"><title>3</title>
<ellipse fill="#9ecae1" stroke="black" cx="212.369" cy="-189.164" rx="28.6953" ry="18"/>
<text text-anchor="middle" x="212.369" y="-185.464" font-family="Times,serif" font-size="14.00">Staff</text>
</g>
<!-- 1&#45;&gt;3 -->
<g id="edge9" class="edge"><title>1&#45;&gt;3</title>
<path fill="none" stroke="black" d="M170.934,-219.621C178.105,-214.35 186.288,-208.335 193.477,-203.05"/>
</g>
<!-- 1&#45;&gt;6 -->
<g id="edge2" class="edge"><title>1&#45;&gt;6</title>
<path fill="none" stroke="black" d="M144.157,-250.79C139.83,-260.119 134.516,-271.578 130.187,-280.915"/>
</g>
<!-- 4 -->
<g id="node5" class="node"><title>4</title>
<ellipse fill="#6baed6" stroke="black" cx="195.684" cy="-110.462" rx="33.2948" ry="18"/>
<text text-anchor="middle" x="195.684" y="-106.762" font-family="Times,serif" font-size="14.00">Scope</text>
</g>
<!-- 4&#45;&gt;3 -->
<g id="edge8" class="edge"><title>4&#45;&gt;3</title>
<path fill="none" stroke="black" d="M199.554,-128.715C202.268,-141.521 205.881,-158.558 208.578,-171.28"/>
</g>
<!-- 9 -->
<g id="node10" class="node"><title>9</title>
<ellipse fill="#6baed6" stroke="black" cx="98.963" cy="-117.763" rx="54.6905" ry="18"/>
<text text-anchor="middle" x="98.963" y="-114.063" font-family="Times,serif" font-size="14.00">Time Series</text>
</g>
<!-- 4&#45;&gt;9 -->
<g id="edge13" class="edge"><title>4&#45;&gt;9</title>
<path fill="none" stroke="black" d="M162.668,-112.954C159.275,-113.21 155.77,-113.475 152.229,-113.742"/>
</g>
<!-- 12 -->
<g id="node13" class="node"><title>12</title>
<ellipse fill="#eff3ff" stroke="black" cx="160.816" cy="-18" rx="30.5947" ry="18"/>
<text text-anchor="middle" x="160.816" y="-14.3" font-family="Times,serif" font-size="14.00">Class</text>
</g>
<!-- 4&#45;&gt;12 -->
<g id="edge6" class="edge"><title>4&#45;&gt;12</title>
<path fill="none" stroke="black" d="M188.961,-92.6343C182.786,-76.2614 173.686,-52.1284 167.518,-35.7728"/>
</g>
<!-- 13 -->
<g id="node14" class="node"><title>13</title>
<ellipse fill="#eff3ff" stroke="black" cx="145.17" cy="-71.9824" rx="38.9931" ry="18"/>
<text text-anchor="middle" x="145.17" y="-68.2824" font-family="Times,serif" font-size="14.00">Interval</text>
</g>
<!-- 4&#45;&gt;13 -->
<g id="edge5" class="edge"><title>4&#45;&gt;13</title>
<path fill="none" stroke="black" d="M176.298,-95.6947C172.737,-92.9819 169.011,-90.1434 165.425,-87.4117"/>
</g>
<!-- 5 -->
<g id="node6" class="node"><title>5</title>
<ellipse fill="#eff3ff" stroke="black" cx="302" cy="-193" rx="27" ry="18"/>
<text text-anchor="middle" x="302" y="-189.3" font-family="Times,serif" font-size="14.00">Flag</text>
</g>
<!-- 7 -->
<g id="node8" class="node"><title>7</title>
<ellipse fill="#9ecae1" stroke="black" cx="75.1032" cy="-26.3829" rx="33.2948" ry="18"/>
<text text-anchor="middle" x="75.1032" y="-22.6829" font-family="Times,serif" font-size="14.00">Entity</text>
</g>
<!-- 7&#45;&gt;9 -->
<g id="edge11" class="edge"><title>7&#45;&gt;9</title>
<path fill="none" stroke="black" d="M79.8171,-44.4366C84,-60.4568 90.0788,-83.7379 94.2588,-99.7467"/>
</g>
<!-- 8 -->
<g id="node9" class="node"><title>8</title>
<ellipse fill="#eff3ff" stroke="black" cx="278.009" cy="-108.329" rx="27" ry="18"/>
<text text-anchor="middle" x="278.009" y="-104.629" font-family="Times,serif" font-size="14.00">Unit</text>
</g>
<!-- 8&#45;&gt;4 -->
<g id="edge15" class="edge"><title>8&#45;&gt;4</title>
<path fill="none" stroke="black" d="M250.596,-109.039C243.673,-109.218 236.164,-109.413 228.987,-109.599"/>
</g>
<!-- 9&#45;&gt;2 -->
<g id="edge14" class="edge"><title>9&#45;&gt;2</title>
<path fill="none" stroke="black" d="M80.6657,-134.928C74.7727,-140.457 68.2929,-146.536 62.584,-151.891"/>
</g>
<!-- 10 -->
<g id="node11" class="node"><title>10</title>
<ellipse fill="#ef3b2c" stroke="black" cx="252.401" cy="-286.545" rx="27.8951" ry="18"/>
<text text-anchor="middle" x="252.401" y="-282.845" font-family="Times,serif" font-size="14.00">Role</text>
</g>
<!-- 10&#45;&gt;1 -->
<g id="edge1" class="edge"><title>10&#45;&gt;1</title>
<path fill="none" stroke="black" d="M230.667,-275.006C213.866,-266.086 190.719,-253.796 173.929,-244.881"/>
</g>
<!-- 10&#45;&gt;3 -->
<g id="edge3" class="edge"><title>10&#45;&gt;3</title>
<path fill="none" stroke="black" d="M245.244,-269.135C238.003,-251.519 226.867,-224.43 219.599,-206.751"/>
</g>
<!-- 10&#45;&gt;6 -->
<g id="edge10" class="edge"><title>10&#45;&gt;6</title>
<path fill="none" stroke="black" d="M224.445,-289.086C202.607,-291.071 172.384,-293.817 150.444,-295.811"/>
</g>
<!-- 11 -->
<g id="node12" class="node"><title>11</title>
<ellipse fill="#eff3ff" stroke="black" cx="254.08" cy="-44.0655" rx="44.393" ry="18"/>
<text text-anchor="middle" x="254.08" y="-40.3655" font-family="Times,serif" font-size="14.00">Category</text>
</g>
<!-- 11&#45;&gt;4 -->
<g id="edge7" class="edge"><title>11&#45;&gt;4</title>
<path fill="none" stroke="black" d="M239.041,-61.1642C230.12,-71.308 218.871,-84.0977 210.067,-94.1078"/>
</g>
<!-- 12&#45;&gt;7 -->
<g id="edge12" class="edge"><title>12&#45;&gt;7</title>
<path fill="none" stroke="black" d="M130.355,-20.9791C123.041,-21.6944 115.2,-22.4613 107.79,-23.186"/>
</g>
<!-- 13&#45;&gt;9 -->
<g id="edge17" class="edge"><title>13&#45;&gt;9</title>
<path fill="none" stroke="black" d="M128.488,-88.5102C124.559,-92.4032 120.36,-96.563 116.399,-100.488"/>
</g>
</g>
</svg>
