<?xml version="1.0" encoding="UTF-8" standalone="no"?>
<!DOCTYPE svg PUBLIC "-//W3C//DTD SVG 1.1//EN"
 "http://www.w3.org/Graphics/SVG/1.1/DTD/svg11.dtd">
<!-- Generated by graphviz version 2.36.0 (20140111.2315)
 -->
<!-- Title: b Pages: 1 -->
<svg width="278pt" height="337pt"
 viewBox="0.00 0.00 278.00 336.82" xmlns="http://www.w3.org/2000/svg" xmlns:xlink="http://www.w3.org/1999/xlink">
<g id="graph0" class="graph" transform="scale(1 1) rotate(0) translate(4 332.821)">
<title>b</title>
<polygon fill="white" stroke="none" points="-4,4 -4,-332.821 274,-332.821 274,4 -4,4"/>
<!-- 0 -->
<g id="node1" class="node"><title>0</title>
<ellipse fill="#fee5d9" stroke="black" cx="117.72" cy="-310.821" rx="51.1914" ry="18"/>
<text text-anchor="middle" x="117.72" y="-307.121" font-family="Times,serif" font-size="14.00">Workspace</text>
</g>
<!-- 1 -->
<g id="node2" class="node"><title>1</title>
<ellipse fill="#fc9272" stroke="black" cx="124.158" cy="-235.998" rx="27.8951" ry="18"/>
<text text-anchor="middle" x="124.158" y="-232.298" font-family="Times,serif" font-size="14.00">Data</text>
</g>
<!-- 0&#45;&gt;1 -->
<g id="edge6" class="edge"><title>0&#45;&gt;1</title>
<path fill="none" stroke="black" d="M119.279,-292.708C120.283,-281.031 121.585,-265.899 122.592,-254.203"/>
</g>
<!-- 2 -->
<g id="node3" class="node"><title>2</title>
<ellipse fill="#fb6a4a" stroke="black" cx="125.33" cy="-72.8296" rx="33.2948" ry="18"/>
<text text-anchor="middle" x="125.33" y="-69.1296" font-family="Times,serif" font-size="14.00">Scope</text>
</g>
<!-- 6 -->
<g id="node7" class="node"><title>6</title>
<ellipse fill="#fb6a4a" stroke="black" cx="125.044" cy="-153.449" rx="54.6905" ry="18"/>
<text text-anchor="middle" x="125.044" y="-149.749" font-family="Times,serif" font-size="14.00">Time Series</text>
</g>
<!-- 2&#45;&gt;6 -->
<g id="edge7" class="edge"><title>2&#45;&gt;6</title>
<path fill="none" stroke="black" d="M125.265,-91.1234C125.219,-104.317 125.156,-122.05 125.109,-135.228"/>
</g>
<!-- 3 -->
<g id="node4" class="node"><title>3</title>
<ellipse fill="#fee5d9" stroke="black" cx="243" cy="-114" rx="27" ry="18"/>
<text text-anchor="middle" x="243" y="-110.3" font-family="Times,serif" font-size="14.00">Flag</text>
</g>
<!-- 4 -->
<g id="node5" class="node"><title>4</title>
<ellipse fill="#fc9272" stroke="black" cx="33.1471" cy="-172.313" rx="33.2948" ry="18"/>
<text text-anchor="middle" x="33.1471" y="-168.613" font-family="Times,serif" font-size="14.00">Entity</text>
</g>
<!-- 4&#45;&gt;6 -->
<g id="edge4" class="edge"><title>4&#45;&gt;6</title>
<path fill="none" stroke="black" d="M64.2593,-165.927C68.8415,-164.986 73.6442,-164 78.4563,-163.012"/>
</g>
<!-- 5 -->
<g id="node6" class="node"><title>5</title>
<ellipse fill="#fee5d9" stroke="black" cx="183.737" cy="-18.4739" rx="27" ry="18"/>
<text text-anchor="middle" x="183.737" y="-14.7739" font-family="Times,serif" font-size="14.00">Unit</text>
</g>
<!-- 5&#45;&gt;2 -->
<g id="edge1" class="edge"><title>5&#45;&gt;2</title>
<path fill="none" stroke="black" d="M167.777,-33.3268C159.806,-40.745 150.165,-49.7175 142.087,-57.2352"/>
</g>
<!-- 6&#45;&gt;1 -->
<g id="edge2" class="edge"><title>6&#45;&gt;1</title>
<path fill="none" stroke="black" d="M124.848,-171.769C124.701,-185.449 124.501,-204.062 124.354,-217.729"/>
</g>
<!-- 7 -->
<g id="node8" class="node"><title>7</title>
<ellipse fill="#fee5d9" stroke="black" cx="67.1894" cy="-18" rx="44.393" ry="18"/>
<text text-anchor="middle" x="67.1894" y="-14.3" font-family="Times,serif" font-size="14.00">Category</text>
</g>
<!-- 7&#45;&gt;2 -->
<g id="edge5" class="edge"><title>7&#45;&gt;2</title>
<path fill="none" stroke="black" d="M84.9495,-34.7486C92.4299,-41.803 101.094,-49.9738 108.474,-56.9338"/>
</g>
<!-- 8 -->
<g id="node9" class="node"><title>8</title>
<ellipse fill="#fee5d9" stroke="black" cx="220.425" cy="-178.339" rx="38.9931" ry="18"/>
<text text-anchor="middle" x="220.425" y="-174.639" font-family="Times,serif" font-size="14.00">Interval</text>
</g>
<!-- 8&#45;&gt;6 -->
<g id="edge3" class="edge"><title>8&#45;&gt;6</title>
<path fill="none" stroke="black" d="M186.26,-169.423C180.38,-167.889 174.201,-166.277 168.123,-164.691"/>
</g>
</g>
</svg>
