<?xml version="1.0" encoding="UTF-8" standalone="no"?>
<!DOCTYPE svg PUBLIC "-//W3C//DTD SVG 1.1//EN"
 "http://www.w3.org/Graphics/SVG/1.1/DTD/svg11.dtd">
<!-- Generated by graphviz version 2.36.0 (20140111.2315)
 -->
<!-- Title: b Pages: 1 -->
<svg width="340pt" height="294pt"
 viewBox="0.00 0.00 339.74 293.84" xmlns="http://www.w3.org/2000/svg" xmlns:xlink="http://www.w3.org/1999/xlink">
<g id="graph0" class="graph" transform="scale(1 1) rotate(0) translate(4 289.838)">
<title>b</title>
<polygon fill="white" stroke="none" points="-4,4 -4,-289.838 335.741,-289.838 335.741,4 -4,4"/>
<!-- 0 -->
<g id="node1" class="node"><title>0</title>
<ellipse fill="#4292c6" stroke="black" cx="298.594" cy="-120.389" rx="33.2948" ry="18"/>
<text text-anchor="middle" x="298.594" y="-116.689" font-family="Times,serif" font-size="14.00">Scope</text>
</g>
<!-- 1 -->
<g id="node2" class="node"><title>1</title>
<ellipse fill="#6baed6" stroke="black" cx="212.948" cy="-243.701" rx="43.5923" ry="18"/>
<text text-anchor="middle" x="212.948" y="-240.001" font-family="Times,serif" font-size="14.00">Attribute</text>
</g>
<!-- 0&#45;&gt;1 -->
<g id="edge8" class="edge"><title>0&#45;&gt;1</title>
<path fill="none" stroke="black" d="M286.865,-137.277C272.421,-158.073 247.737,-193.612 230.901,-217.852"/>
<polygon fill="black" stroke="black" points="227.917,-216.013 225.087,-226.223 233.667,-220.006 227.917,-216.013"/>
</g>
<!-- 3 -->
<g id="node4" class="node"><title>3</title>
<ellipse fill="#9ecae1" stroke="black" cx="84.806" cy="-258.422" rx="68.4888" ry="18"/>
<text text-anchor="middle" x="84.806" y="-254.722" font-family="Times,serif" font-size="14.00">Entity Mapping</text>
</g>
<!-- 0&#45;&gt;3 -->
<g id="edge4" class="edge"><title>0&#45;&gt;3</title>
<path fill="none" stroke="black" d="M276.918,-134.384C237.323,-159.949 153.458,-214.096 110.841,-241.612"/>
</g>
<!-- 2 -->
<g id="node3" class="node"><title>2</title>
<ellipse fill="#c6dbef" stroke="black" cx="262.768" cy="-18" rx="44.393" ry="18"/>
<text text-anchor="middle" x="262.768" y="-14.3" font-family="Times,serif" font-size="14.00">Category</text>
</g>
<!-- 2&#45;&gt;0 -->
<g id="edge6" class="edge"><title>2&#45;&gt;0</title>
<path fill="none" stroke="black" d="M269.008,-35.8348C275.544,-54.5131 285.751,-83.685 292.305,-102.415"/>
</g>
<!-- 7 -->
<g id="node8" class="node"><title>7</title>
<ellipse fill="#4292c6" stroke="black" cx="184.217" cy="-99.5922" rx="33.2948" ry="18"/>
<text text-anchor="middle" x="184.217" y="-95.8922" font-family="Times,serif" font-size="14.00">Entity</text>
</g>
<!-- 2&#45;&gt;7 -->
<g id="edge2" class="edge"><title>2&#45;&gt;7</title>
<path fill="none" stroke="black" d="M246.492,-34.906C232.741,-49.1893 213.183,-69.505 199.67,-83.5407"/>
</g>
<!-- 5 -->
<g id="node6" class="node"><title>5</title>
<ellipse fill="#9ecae1" stroke="black" cx="105.254" cy="-50.5164" rx="65.7887" ry="18"/>
<text text-anchor="middle" x="105.254" y="-46.8164" font-family="Times,serif" font-size="14.00">View Mapping</text>
</g>
<!-- 3&#45;&gt;5 -->
<g id="edge7" class="edge"><title>3&#45;&gt;5</title>
<path fill="none" stroke="black" d="M86.5849,-240.335C90.4522,-201.016 99.5884,-108.125 103.465,-68.7092"/>
</g>
<!-- 4 -->
<g id="node5" class="node"><title>4</title>
<ellipse fill="#c6dbef" stroke="black" cx="301.244" cy="-267.838" rx="29.4969" ry="18"/>
<text text-anchor="middle" x="301.244" y="-264.138" font-family="Times,serif" font-size="14.00">Type</text>
</g>
<!-- 4&#45;&gt;1 -->
<g id="edge9" class="edge"><title>4&#45;&gt;1</title>
<path fill="none" stroke="black" d="M274.273,-260.465C266.462,-258.33 257.802,-255.963 249.511,-253.696"/>
</g>
<!-- 6 -->
<g id="node7" class="node"><title>6</title>
<ellipse fill="#4292c6" stroke="black" cx="30.5473" cy="-108.073" rx="30.5947" ry="18"/>
<text text-anchor="middle" x="30.5473" y="-104.373" font-family="Times,serif" font-size="14.00">View</text>
</g>
<!-- 6&#45;&gt;5 -->
<g id="edge10" class="edge"><title>6&#45;&gt;5</title>
<path fill="none" stroke="black" d="M49.3991,-93.5493C57.1952,-87.543 66.4298,-80.4283 75.122,-73.7315"/>
<polygon fill="black" stroke="black" points="77.4394,-76.3644 83.225,-67.4887 73.1673,-70.8192 77.4394,-76.3644"/>
</g>
<!-- 7&#45;&gt;1 -->
<g id="edge3" class="edge"><title>7&#45;&gt;1</title>
<path fill="none" stroke="black" d="M187.798,-117.552C192.701,-142.147 201.555,-186.557 207.342,-215.582"/>
<polygon fill="black" stroke="black" points="203.934,-216.392 209.322,-225.515 210.799,-215.023 203.934,-216.392"/>
</g>
<!-- 7&#45;&gt;3 -->
<g id="edge1" class="edge"><title>7&#45;&gt;3</title>
<path fill="none" stroke="black" d="M173.389,-116.892C156.002,-144.672 121.741,-199.411 101.298,-232.073"/>
<polygon fill="black" stroke="black" points="98.2628,-230.325 95.9241,-240.659 104.196,-234.039 98.2628,-230.325"/>
</g>
<!-- 7&#45;&gt;5 -->
<g id="edge5" class="edge"><title>7&#45;&gt;5</title>
<path fill="none" stroke="black" d="M162.222,-85.9219C152.821,-80.0794 141.763,-73.2068 131.903,-67.0789"/>
</g>
</g>
</svg>
