<?xml version="1.0" encoding="UTF-8" standalone="no"?>
<!DOCTYPE svg PUBLIC "-//W3C//DTD SVG 1.1//EN"
 "http://www.w3.org/Graphics/SVG/1.1/DTD/svg11.dtd">
<!-- Generated by graphviz version 2.36.0 (20140111.2315)
 -->
<!-- Title: b Pages: 1 -->
<svg width="391pt" height="357pt"
 viewBox="0.00 0.00 391.01 357.17" xmlns="http://www.w3.org/2000/svg" xmlns:xlink="http://www.w3.org/1999/xlink">
<g id="graph0" class="graph" transform="scale(1 1) rotate(0) translate(4 353.169)">
<title>b</title>
<polygon fill="white" stroke="none" points="-4,4 -4,-353.169 387.008,-353.169 387.008,4 -4,4"/>
<!-- 0 -->
<g id="node1" class="node"><title>0</title>
<ellipse fill="#41ab5d" stroke="black" cx="106.709" cy="-172.921" rx="27.8951" ry="18"/>
<text text-anchor="middle" x="106.709" y="-169.221" font-family="Times,serif" font-size="14.00">User</text>
</g>
<!-- 1 -->
<g id="node2" class="node"><title>1</title>
<ellipse fill="#6baed6" stroke="black" cx="129.562" cy="-243.942" rx="28.6953" ry="18"/>
<text text-anchor="middle" x="129.562" y="-240.242" font-family="Times,serif" font-size="14.00">Staff</text>
</g>
<!-- 0&#45;&gt;1 -->
<g id="edge7" class="edge"><title>0&#45;&gt;1</title>
<path fill="none" stroke="black" d="M112.476,-190.842C115.966,-201.691 120.4,-215.47 123.876,-226.272"/>
</g>
<!-- 6 -->
<g id="node7" class="node"><title>6</title>
<ellipse fill="#6baed6" stroke="black" cx="54.8822" cy="-121.13" rx="28.6953" ry="18"/>
<text text-anchor="middle" x="54.8822" y="-117.43" font-family="Times,serif" font-size="14.00">Staff</text>
</g>
<!-- 0&#45;&gt;6 -->
<g id="edge5" class="edge"><title>0&#45;&gt;6</title>
<path fill="none" stroke="black" d="M91.4393,-157.662C84.751,-150.978 76.9177,-143.15 70.2215,-136.459"/>
</g>
<!-- 11 -->
<g id="node12" class="node"><title>11</title>
<ellipse fill="#ef3b2c" stroke="black" cx="27.9475" cy="-258.616" rx="27.8951" ry="18"/>
<text text-anchor="middle" x="27.9475" y="-254.916" font-family="Times,serif" font-size="14.00">Role</text>
</g>
<!-- 0&#45;&gt;11 -->
<g id="edge9" class="edge"><title>0&#45;&gt;11</title>
<path fill="none" stroke="black" d="M92.2626,-188.638C78.0516,-204.1 56.4813,-227.57 42.3019,-242.997"/>
</g>
<!-- 2 -->
<g id="node3" class="node"><title>2</title>
<ellipse fill="#6baed6" stroke="black" cx="221.229" cy="-88.9365" rx="27.8951" ry="18"/>
<text text-anchor="middle" x="221.229" y="-85.2365" font-family="Times,serif" font-size="14.00">Data</text>
</g>
<!-- 3 -->
<g id="node4" class="node"><title>3</title>
<ellipse fill="#9e9ac8" stroke="black" cx="260.956" cy="-18" rx="27" ry="18"/>
<text text-anchor="middle" x="260.956" y="-14.3" font-family="Times,serif" font-size="14.00">Flag</text>
</g>
<!-- 3&#45;&gt;2 -->
<g id="edge16" class="edge"><title>3&#45;&gt;2</title>
<path fill="none" stroke="black" d="M251.339,-35.1718C245.093,-46.3247 236.986,-60.8015 230.757,-71.9229"/>
</g>
<!-- 4 -->
<g id="node5" class="node"><title>4</title>
<ellipse fill="#c6dbef" stroke="black" cx="273.869" cy="-317.692" rx="44.393" ry="18"/>
<text text-anchor="middle" x="273.869" y="-313.992" font-family="Times,serif" font-size="14.00">Category</text>
</g>
<!-- 10 -->
<g id="node11" class="node"><title>10</title>
<ellipse fill="#4292c6" stroke="black" cx="221.264" cy="-252.48" rx="33.2948" ry="18"/>
<text text-anchor="middle" x="221.264" y="-248.78" font-family="Times,serif" font-size="14.00">Scope</text>
</g>
<!-- 4&#45;&gt;10 -->
<g id="edge2" class="edge"><title>4&#45;&gt;10</title>
<path fill="none" stroke="black" d="M260.048,-300.558C252.255,-290.898 242.559,-278.878 234.811,-269.273"/>
</g>
<!-- 13 -->
<g id="node14" class="node"><title>13</title>
<ellipse fill="#c6dbef" stroke="black" cx="315.894" cy="-268.785" rx="30.5947" ry="18"/>
<text text-anchor="middle" x="315.894" y="-265.085" font-family="Times,serif" font-size="14.00">Class</text>
</g>
<!-- 4&#45;&gt;13 -->
<g id="edge11" class="edge"><title>4&#45;&gt;13</title>
<path fill="none" stroke="black" d="M288.567,-300.587C292.922,-295.518 297.676,-289.985 301.98,-284.977"/>
</g>
<!-- 5 -->
<g id="node6" class="node"><title>5</title>
<ellipse fill="#c6dbef" stroke="black" cx="273.455" cy="-214.234" rx="38.9931" ry="18"/>
<text text-anchor="middle" x="273.455" y="-210.534" font-family="Times,serif" font-size="14.00">Interval</text>
</g>
<!-- 12 -->
<g id="node13" class="node"><title>12</title>
<ellipse fill="#4292c6" stroke="black" cx="258.684" cy="-163.984" rx="54.6905" ry="18"/>
<text text-anchor="middle" x="258.684" y="-160.284" font-family="Times,serif" font-size="14.00">Time Series</text>
</g>
<!-- 5&#45;&gt;12 -->
<g id="edge4" class="edge"><title>5&#45;&gt;12</title>
<path fill="none" stroke="black" d="M268.205,-196.376C266.845,-191.75 265.38,-186.764 264.016,-182.123"/>
</g>
<!-- 7 -->
<g id="node8" class="node"><title>7</title>
<ellipse fill="#6baed6" stroke="black" cx="349.861" cy="-189.695" rx="33.2948" ry="18"/>
<text text-anchor="middle" x="349.861" y="-185.995" font-family="Times,serif" font-size="14.00">Entity</text>
</g>
<!-- 7&#45;&gt;12 -->
<g id="edge3" class="edge"><title>7&#45;&gt;12</title>
<path fill="none" stroke="black" d="M320.258,-181.347C313.914,-179.558 307.098,-177.636 300.394,-175.746"/>
</g>
<!-- 8 -->
<g id="node9" class="node"><title>8</title>
<ellipse fill="#c6dbef" stroke="black" cx="190.2" cy="-331.169" rx="27" ry="18"/>
<text text-anchor="middle" x="190.2" y="-327.469" font-family="Times,serif" font-size="14.00">Unit</text>
</g>
<!-- 8&#45;&gt;10 -->
<g id="edge19" class="edge"><title>8&#45;&gt;10</title>
<path fill="none" stroke="black" d="M197.094,-313.705C202.206,-300.756 209.149,-283.169 214.282,-270.167"/>
</g>
<!-- 9 -->
<g id="node10" class="node"><title>9</title>
<ellipse fill="#4292c6" stroke="black" cx="129.876" cy="-71.8292" rx="51.1914" ry="18"/>
<text text-anchor="middle" x="129.876" y="-68.1292" font-family="Times,serif" font-size="14.00">Workspace</text>
</g>
<!-- 9&#45;&gt;2 -->
<g id="edge12" class="edge"><title>9&#45;&gt;2</title>
<path fill="none" stroke="black" d="M175.285,-80.3328C181.733,-81.5403 188.188,-82.7492 194.137,-83.8631"/>
</g>
<!-- 9&#45;&gt;6 -->
<g id="edge18" class="edge"><title>9&#45;&gt;6</title>
<path fill="none" stroke="black" d="M105.32,-87.9721C95.4095,-94.4872 84.1244,-101.906 74.7453,-108.072"/>
</g>
<!-- 10&#45;&gt;1 -->
<g id="edge14" class="edge"><title>10&#45;&gt;1</title>
<path fill="none" stroke="black" d="M188.417,-249.422C178.446,-248.493 167.582,-247.482 157.933,-246.584"/>
</g>
<!-- 10&#45;&gt;5 -->
<g id="edge1" class="edge"><title>10&#45;&gt;5</title>
<path fill="none" stroke="black" d="M241.293,-237.802C244.973,-235.106 248.822,-232.285 252.527,-229.57"/>
</g>
<!-- 10&#45;&gt;12 -->
<g id="edge6" class="edge"><title>10&#45;&gt;12</title>
<path fill="none" stroke="black" d="M228.837,-234.571C235.329,-219.217 244.634,-197.211 251.122,-181.865"/>
</g>
<!-- 10&#45;&gt;13 -->
<g id="edge15" class="edge"><title>10&#45;&gt;13</title>
<path fill="none" stroke="black" d="M253.038,-257.954C263.776,-259.805 275.716,-261.862 286.281,-263.682"/>
</g>
<!-- 11&#45;&gt;1 -->
<g id="edge13" class="edge"><title>11&#45;&gt;1</title>
<path fill="none" stroke="black" d="M55.4459,-254.645C69.7874,-252.574 87.2923,-250.046 101.688,-247.967"/>
</g>
<!-- 11&#45;&gt;6 -->
<g id="edge8" class="edge"><title>11&#45;&gt;6</title>
<path fill="none" stroke="black" d="M31.4688,-240.642C36.6308,-214.293 46.1976,-165.46 51.3601,-139.108"/>
</g>
<!-- 12&#45;&gt;2 -->
<g id="edge17" class="edge"><title>12&#45;&gt;2</title>
<path fill="none" stroke="black" d="M249.807,-146.198C243.75,-134.062 235.771,-118.074 229.784,-106.077"/>
</g>
<!-- 13&#45;&gt;7 -->
<g id="edge10" class="edge"><title>13&#45;&gt;7</title>
<path fill="none" stroke="black" d="M323.432,-251.232C329.022,-238.217 336.613,-220.541 342.226,-207.472"/>
</g>
</g>
</svg>
