<?xml version="1.0" encoding="UTF-8" standalone="no"?>
<!-- Created with Inkscape (http://www.inkscape.org/) -->

<svg
   xmlns:dc="http://purl.org/dc/elements/1.1/"
   xmlns:cc="http://creativecommons.org/ns#"
   xmlns:rdf="http://www.w3.org/1999/02/22-rdf-syntax-ns#"
   xmlns:svg="http://www.w3.org/2000/svg"
   xmlns="http://www.w3.org/2000/svg"
   xmlns:sodipodi="http://sodipodi.sourceforge.net/DTD/sodipodi-0.dtd"
   xmlns:inkscape="http://www.inkscape.org/namespaces/inkscape"
   id="svg2"
   viewBox="0 0 379.64001 389.52425"
   version="1.0"
   inkscape:version="0.91 r13725"
   sodipodi:docname="ghost.svg"
   width="379.64001"
   height="389.52426"
   inkscape:export-filename="/Users/thorsten/workspace/4.6.2/jeesl/doc/src/main/resources/jeesl/svg/icon/ui/generic/ghost.png"
   inkscape:export-xdpi="2.8448002"
   inkscape:export-ydpi="2.8448002">
  <defs
     id="defs19" />
  <sodipodi:namedview
     pagecolor="#ffffff"
     bordercolor="#666666"
     borderopacity="1"
     objecttolerance="10"
     gridtolerance="10"
     guidetolerance="10"
     inkscape:pageopacity="0"
     inkscape:pageshadow="2"
     inkscape:window-width="1137"
     inkscape:window-height="664"
     id="namedview17"
     showgrid="false"
     fit-margin-top="0"
     fit-margin-left="0"
     fit-margin-right="0"
     fit-margin-bottom="0"
     inkscape:zoom="1.2271379"
     inkscape:cx="189.82001"
     inkscape:cy="194.76213"
     inkscape:window-x="0"
     inkscape:window-y="0"
     inkscape:window-maximized="0"
     inkscape:current-layer="svg2" />
  <path
     inkscape:connector-curvature="0"
     d="m 341.85001,180.15364 c 0,88.1645 35.79,110.89713 35.79,151.78332 0,22.68615 -35.4,-27.97415 -55.26,-16.50324 -18.42,10.63413 -41.11,20.67554 -64.14,4.83476 -13.72,-9.43707 5.41,-24.78973 -21.11,-24.78973 -21.15,0 -53.39,15.22482 -73.56,18.50222 -18.34,2.97524 -37.91,-16.49161 -70.270005,-5.3926 -20.11,6.90346 -91.2999995,56.09939 -91.2999995,33.42487 0,-28.88067 33.2799995,-60.35305 33.2799995,-161.8596 0,-98.345361 68.670005,-178.1536345 153.280005,-178.1536345 84.62,0 153.29,79.8082735 153.29,178.1536345 z"
     style="fill:#dbdbe3;fill-opacity:0.62744996"
     id="path2399" />
  <path
     inkscape:connector-curvature="0"
     d="m 341.85001,180.15364 c 0,88.1645 35.79,110.89713 35.79,151.78332 0,22.68615 -48.88,6.13642 -68.74,17.60733 -18.42,10.63413 -10.87,26.64925 -37.4,36.9231 -19.05,7.39159 -44.46,-26.27734 -70.98,-26.27734 -21.15,0 -60.19,28.38092 -78.53,19.36225 -18.34,-9.01867 -16.6,-39.07317 -44.950005,-41.97867 -21.16,-2.16169 -75.0399995,27.11413 -75.0399995,4.43961 0,-28.88067 33.2799995,-60.35305 33.2799995,-161.8596 0,-98.345361 68.670005,-178.1536345 153.280005,-178.1536345 84.62,0 153.29,79.8082735 153.29,178.1536345 z"
     style="fill:#dbdbe3;fill-opacity:0.62744996;stroke:#000000;stroke-width:4.00001097;stroke-linecap:round;stroke-linejoin:round"
     id="path2383" />
  <path
     inkscape:connector-curvature="0"
     d="m 138.03001,89.972329 c -20.56,0 -37.25,19.180001 -37.25,42.800001 0,23.63 16.69,42.81 37.25,42.81 15.89,0 29.46,-11.47 34.81,-27.57 5.35,16.1 18.93,27.57 34.81,27.57 20.57,0 37.26,-19.18 37.25,-42.81 0,-23.62 -16.68,-42.800001 -37.25,-42.800001 -15.88,0 -29.45,11.430001 -34.81,27.530001 -5.35,-16.1 -18.92,-27.530001 -34.81,-27.530001 z"
     style="fill:#ffffff;stroke:#000000;stroke-width:4;stroke-linecap:round;stroke-linejoin:round"
     id="path2387" />
  <path
     inkscape:connector-curvature="0"
     d="m 214.94802,140.1334 a 16.129174,16.195088 0 1 1 -32.2573,0 16.129174,16.195088 0 1 1 32.2573,0 z"
     style="fill:#000000"
     id="path2389" />
  <path
     inkscape:connector-curvature="0"
     d="m 163.75802,140.1334 a 16.129174,16.195088 0 1 1 -32.25729,0 16.129174,16.195088 0 1 1 32.25729,0 z"
     style="fill:#000000"
     id="path2396" />
  <path
     inkscape:connector-curvature="0"
     d="m 288.59001,62.652329 c 5.91,-2.08 35.6,37.21 41.02,78.490001 3.68,28.08 2.12,71.42 6.36,96.17 4.24,24.75 40.91,88.99 26.16,88.39 -34.65,-1.42 -56.75,-57.15 -48.84,-136.87 8.92,-89.900001 -38.62,-121.270001 -24.7,-126.180001 z"
     style="fill:#000000;fill-opacity:0.11764999;fill-rule:evenodd"
     id="path2398" />
  <path
     inkscape:connector-curvature="0"
     d="m 302.74001,341.96233 c -8.02,7.86 -22.63,45.26 -30.41,28.28 -7.78,-16.97 -1.29,-47.19 -7.07,-91.92 -4.4,-34.02 -20.59,-74.62 -8.68,-68.44 11.87,6.17 20.49,24.75 31.31,57.13 9.45,28.3 24.45,65.54 14.85,74.95 z"
     style="fill:#000000;fill-opacity:0.11764999;fill-rule:evenodd"
     id="path3170" />
  <path
     inkscape:connector-curvature="0"
     d="m 187.47001,351.35233 c -7.67,8.19 -26.44,17.95 -35.94,16.1 -12.51,-2.43 -14.44,-44.39 -9.41,-71.66 4.95,-26.87 14.48,-66.04 22.45,-71.92 9.69,-7.14 0.7,26.78 9.79,73.41 6.96,35.68 20.6,46.07 13.11,54.07 z"
     style="fill:#000000;fill-opacity:0.11764999;fill-rule:evenodd"
     id="path3172" />
  <path
     inkscape:connector-curvature="0"
     d="m 84.950005,328.53233 c -11.11,-1.62 -21.62,1.14 -30.41,3.53 -12.3,3.35 -0.78,-15.15 15.56,-47.38 12.35,-24.36 15.25,-49.48 22.42,-56.31 8.530005,-8.14 -2.39,23.7 -4.42,54.62 -1.88,28.69 5.04,46.73 -3.15,45.54 z"
     style="fill:#000000;fill-opacity:0.11764999;fill-rule:evenodd"
     id="path3174" />
  <path
     inkscape:connector-curvature="0"
     d="m 61.610005,110.03233 c 27.34,-73.670001 79.960005,-89.140001 93.340005,-88.390001 20.33,1.14 14.72,30.62 -24.75,41.01 -40.230005,10.59 -82.970005,86.140001 -68.590005,47.380001 z"
     style="fill:#ffffff;fill-opacity:0.62744996;fill-rule:evenodd"
     id="path3279" />
  <metadata
     id="metadata15">
    <rdf:RDF>
      <cc:Work>
        <dc:format>image/svg+xml</dc:format>
        <dc:type
           rdf:resource="http://purl.org/dc/dcmitype/StillImage" />
        <cc:license
           rdf:resource="http://creativecommons.org/publicdomain/zero/1.0/" />
        <dc:publisher>
          <cc:Agent
             rdf:about="http://openclipart.org/">
            <dc:title>Openclipart</dc:title>
          </cc:Agent>
        </dc:publisher>
        <dc:title>Cartoon ghost</dc:title>
        <dc:date>2008-07-16T10:39:43</dc:date>
        <dc:description />
        <dc:source>https://openclipart.org/detail/17847/cartoon-ghost-by-lemmling</dc:source>
        <dc:creator>
          <cc:Agent>
            <dc:title>lemmling</dc:title>
          </cc:Agent>
        </dc:creator>
        <dc:subject>
          <rdf:Bag>
            <rdf:li>cartoon</rdf:li>
            <rdf:li>ghost</rdf:li>
            <rdf:li>halloween</rdf:li>
          </rdf:Bag>
        </dc:subject>
      </cc:Work>
      <cc:License
         rdf:about="http://creativecommons.org/publicdomain/zero/1.0/">
        <cc:permits
           rdf:resource="http://creativecommons.org/ns#Reproduction" />
        <cc:permits
           rdf:resource="http://creativecommons.org/ns#Distribution" />
        <cc:permits
           rdf:resource="http://creativecommons.org/ns#DerivativeWorks" />
      </cc:License>
    </rdf:RDF>
  </metadata>
</svg>
