<?xml version="1.0" encoding="UTF-8" standalone="no"?>
<!-- Created with Inkscape (http://www.inkscape.org/) -->

<svg
   xmlns:dc="http://purl.org/dc/elements/1.1/"
   xmlns:cc="http://creativecommons.org/ns#"
   xmlns:rdf="http://www.w3.org/1999/02/22-rdf-syntax-ns#"
   xmlns:svg="http://www.w3.org/2000/svg"
   xmlns="http://www.w3.org/2000/svg"
   xmlns:sodipodi="http://sodipodi.sourceforge.net/DTD/sodipodi-0.dtd"
   xmlns:inkscape="http://www.inkscape.org/namespaces/inkscape"
   id="svg2"
   sodipodi:docname="add.svg"
   inkscape:export-filename="/datas/wiki/add.png"
   viewBox="0 0 35.001507 35.000014"
   sodipodi:version="0.32"
   inkscape:export-xdpi="90.000000"
   inkscape:output_extension="org.inkscape.output.svg.inkscape"
   inkscape:export-ydpi="90.000000"
   inkscape:version="0.48.5 r10040"
   version="1.1"
   width="100%"
   height="100%">
  <defs
     id="defs4">
    <linearGradient
       id="linearGradient1375"
       y2="57.588001"
       gradientUnits="userSpaceOnUse"
       x2="27.493999"
       gradientTransform="matrix(0.58147,-0.58147,0.58147,0.58147,-5.2146,32.001)"
       y1="6.2061"
       x1="36.304001"
       inkscape:collect="always">
      <stop
         id="stop1354"
         style="stop-color:#179807"
         offset="0" />
      <stop
         id="stop1356"
         style="stop-color:#0b5102"
         offset="1" />
    </linearGradient>
    <linearGradient
       id="linearGradient1377"
       y2="57.789001"
       gradientUnits="userSpaceOnUse"
       x2="27.573999"
       gradientTransform="matrix(0.58147,-0.58147,0.58147,0.58147,-5.2092,32)"
       y1="6.1829"
       x1="36.464001"
       inkscape:collect="always">
      <stop
         id="stop1367"
         style="stop-color:#24f00a"
         offset="0" />
      <stop
         id="stop1370"
         style="stop-color:#0b6400"
         offset="1" />
    </linearGradient>
    <linearGradient
       id="linearGradient1379"
       y2="49.282001"
       gradientUnits="userSpaceOnUse"
       x2="27.469"
       gradientTransform="matrix(0.58147,-0.58147,0.58147,0.58147,-5.2141,32)"
       y1="19.205999"
       x1="32.682999"
       inkscape:collect="always">
      <stop
         id="stop1380"
         style="stop-color:#b0ffa5"
         offset="0" />
      <stop
         id="stop1382"
         style="stop-color:#26bc14;stop-opacity:.44706"
         offset="1" />
    </linearGradient>
  </defs>
  <sodipodi:namedview
     id="base"
     bordercolor="#666666"
     inkscape:grid-points="true"
     inkscape:pageshadow="2"
     inkscape:window-y="22"
     pagecolor="#ffffff"
     inkscape:window-height="693"
     inkscape:grid-bbox="true"
     inkscape:zoom="14.583333"
     inkscape:window-x="22"
     showgrid="false"
     borderopacity="1.0"
     inkscape:current-layer="layer1"
     inkscape:cx="17.5005"
     inkscape:cy="28.471436"
     showguides="false"
     inkscape:window-width="1156"
     inkscape:pageopacity="0.0"
     inkscape:document-units="px"
     fit-margin-top="0"
     fit-margin-left="0"
     fit-margin-right="0"
     fit-margin-bottom="0"
     inkscape:window-maximized="0">
    <inkscape:grid
       id="GridFromPre046Settings"
       opacity=".2"
       color="#0000ff"
       originy="-0.49999324px"
       originx="-0.4995px"
       empspacing="4"
       spacingy="1px"
       spacingx="1px"
       empopacity="0.4"
       type="xygrid"
       empcolor="#0000ff"
       visible="true"
       enabled="true"
       snapvisiblegridlinesonly="true" />
  </sodipodi:namedview>
  <g
     id="layer1"
     inkscape:label="Calque 1"
     inkscape:groupmode="layer"
     transform="translate(-0.4995,-0.49999324)">
    <g
       id="g1370"
       transform="translate(-14,-14)">
      <path
         id="path1349"
         style="fill:url(#linearGradient1375)"
         d="m 14.501,35.392 c 0.05,0.543 0.508,0.956 1.053,0.951 h 12.104 v 12.103 c -0.002,0.28 0.109,0.549 0.307,0.747 0.198,0.198 0.467,0.308 0.746,0.307 h 6.579 c 0.28,10e-4 0.548,-0.109 0.746,-0.307 0.198,-0.198 0.309,-0.467 0.308,-0.747 V 36.343 h 12.103 c 0.28,10e-4 0.549,-0.109 0.747,-0.307 0.197,-0.198 0.308,-0.467 0.307,-0.747 v -6.578 c 0.001,-0.28 -0.11,-0.549 -0.307,-0.747 -0.198,-0.198 -0.467,-0.308 -0.747,-0.307 H 36.344 V 15.554 c 10e-4,-0.28 -0.11,-0.549 -0.308,-0.747 C 35.838,14.609 35.57,14.499 35.29,14.5 h -6.579 c -0.279,-10e-4 -0.548,0.109 -0.746,0.307 -0.198,0.198 -0.309,0.467 -0.307,0.747 V 27.657 H 15.554 c -0.28,-0.001 -0.548,0.109 -0.746,0.307 -0.198,0.198 -0.309,0.467 -0.307,0.747 v 6.578 c -0.002,0.035 -0.002,0.069 0,0.103 z"
         inkscape:connector-curvature="0" />
      <path
         id="path1468"
         style="fill:url(#linearGradient1377)"
         d="m 15.43,28.874 c -0.087,0.148 -0.129,0.318 -0.123,0.49 v 5.272 c 0.003,0.495 0.404,0.896 0.899,0.899 h 12.26 v 12.259 c 0.002,0.496 0.403,0.897 0.899,0.899 h 5.271 c 0.496,-0.002 0.897,-0.403 0.899,-0.899 V 35.535 h 12.259 c 0.496,-0.003 0.897,-0.404 0.9,-0.899 v -5.272 c -0.003,-0.495 -0.404,-0.896 -0.9,-0.899 H 35.535 V 16.206 C 35.533,15.71 35.132,15.309 34.636,15.307 h -5.271 c -0.496,0.002 -0.897,0.403 -0.899,0.899 v 12.259 h -12.26 c -0.312,-0.007 -0.605,0.148 -0.776,0.409 z"
         inkscape:connector-curvature="0" />
      <path
         id="path1472"
         style="fill:url(#linearGradient1379)"
         d="m 15.981,29.262 c -0.014,0.032 -0.021,0.067 -0.02,0.102 v 5.272 c 0.002,0.044 0.016,0.086 0.041,0.122 0.022,0.044 0.058,0.08 0.102,0.103 0.032,0.014 0.067,0.021 0.102,0.02 H 28.71 c 0.113,-0.003 0.232,0.028 0.307,0.102 0.074,0.075 0.105,0.194 0.102,0.307 v 12.504 c 0.002,0.044 0.016,0.086 0.041,0.123 0.023,0.044 0.058,0.079 0.102,0.102 0.032,0.014 0.067,0.021 0.102,0.02 h 5.272 c 0.044,-0.002 0.086,-0.016 0.122,-0.041 0.044,-0.022 0.08,-0.058 0.103,-0.102 0.014,-0.032 0.021,-0.067 0.02,-0.102 V 35.29 c -0.003,-0.113 0.028,-0.232 0.102,-0.307 0.075,-0.074 0.194,-0.105 0.307,-0.102 h 12.504 c 0.044,-0.002 0.086,-0.016 0.123,-0.041 0.044,-0.023 0.079,-0.058 0.102,-0.102 0.014,-0.032 0.021,-0.067 0.02,-0.102 V 29.364 C 48.037,29.32 48.023,29.278 47.998,29.242 47.976,29.198 47.94,29.162 47.896,29.139 47.864,29.125 47.829,29.118 47.794,29.119 H 35.29 C 35.177,29.122 35.058,29.091 34.983,29.017 34.909,28.942 34.878,28.823 34.881,28.71 V 16.206 C 34.879,16.162 34.865,16.12 34.84,16.083 34.817,16.039 34.782,16.004 34.738,15.981 34.706,15.967 34.671,15.96 34.636,15.961 h -5.272 c -0.044,0.002 -0.086,0.016 -0.122,0.041 -0.044,0.022 -0.08,0.058 -0.103,0.102 -0.014,0.032 -0.021,0.067 -0.02,0.102 V 28.71 c 0.003,0.113 -0.028,0.232 -0.102,0.307 -0.075,0.074 -0.194,0.105 -0.307,0.102 H 16.206 c -0.044,0.002 -0.086,0.016 -0.123,0.041 -0.044,0.023 -0.079,0.058 -0.102,0.102 z"
         inkscape:connector-curvature="0" />
    </g>
  </g>
  <metadata
     id="metadata3125">
    <rdf:RDF>
      <cc:Work>
        <dc:format>image/svg+xml</dc:format>
        <dc:type
           rdf:resource="http://purl.org/dc/dcmitype/StillImage" />
        <cc:license
           rdf:resource="http://creativecommons.org/licenses/publicdomain/" />
        <dc:publisher>
          <cc:Agent
             rdf:about="http://openclipart.org/">
            <dc:title>Openclipart</dc:title>
          </cc:Agent>
        </dc:publisher>
        <dc:title>add</dc:title>
        <dc:date>2008-05-26T11:24:31</dc:date>
        <dc:description />
        <dc:source>https://openclipart.org/detail/16950/add-by-jean_victor_balin</dc:source>
        <dc:creator>
          <cc:Agent>
            <dc:title>jean_victor_balin</dc:title>
          </cc:Agent>
        </dc:creator>
        <dc:subject>
          <rdf:Bag>
            <rdf:li>add</rdf:li>
            <rdf:li>icon</rdf:li>
            <rdf:li>plus</rdf:li>
          </rdf:Bag>
        </dc:subject>
      </cc:Work>
      <cc:License
         rdf:about="http://creativecommons.org/licenses/publicdomain/">
        <cc:permits
           rdf:resource="http://creativecommons.org/ns#Reproduction" />
        <cc:permits
           rdf:resource="http://creativecommons.org/ns#Distribution" />
        <cc:permits
           rdf:resource="http://creativecommons.org/ns#DerivativeWorks" />
      </cc:License>
    </rdf:RDF>
  </metadata>
</svg>
