<?xml version="1.0" encoding="UTF-8" standalone="no"?>
<!-- Created with Inkscape (http://www.inkscape.org/) -->

<svg
   xmlns:dc="http://purl.org/dc/elements/1.1/"
   xmlns:cc="http://creativecommons.org/ns#"
   xmlns:rdf="http://www.w3.org/1999/02/22-rdf-syntax-ns#"
   xmlns:svg="http://www.w3.org/2000/svg"
   xmlns="http://www.w3.org/2000/svg"
   xmlns:xlink="http://www.w3.org/1999/xlink"
   xmlns:sodipodi="http://sodipodi.sourceforge.net/DTD/sodipodi-0.dtd"
   xmlns:inkscape="http://www.inkscape.org/namespaces/inkscape"
   id="svg2"
   sodipodi:docname="Copy.svg"
   inkscape:export-filename="/Users/thorsten/Downloads/clone.png"
   viewBox="0 0 414.66 512.84"
   sodipodi:version="0.32"
   inkscape:export-xdpi="2.2506592"
   version="1.0"
   inkscape:output_extension="org.inkscape.output.svg.inkscape"
   inkscape:export-ydpi="2.2506592"
   inkscape:version="0.92.2 (5c3e80d, 2017-08-06)">
  <defs
     id="defs4">
    <linearGradient
       id="linearGradient3278">
      <stop
         id="stop3280"
         style="stop-color:#71b7ff"
         offset="0" />
      <stop
         id="stop3298"
         style="stop-color:#3b06ff;stop-opacity:.98431"
         offset=".54322" />
      <stop
         id="stop3296"
         style="stop-color:#34097c"
         offset="1" />
    </linearGradient>
    <linearGradient
       id="linearGradient4229">
      <stop
         id="stop4231"
         style="stop-color:#f9f9f9;stop-opacity:0"
         offset="0" />
      <stop
         id="stop4241"
         style="stop-color:#a5c7eb"
         offset="1" />
    </linearGradient>
    <linearGradient
       id="linearGradient4251">
      <stop
         id="stop4253"
         style="stop-color:#f9f9f9"
         offset="0" />
      <stop
         id="stop4255"
         style="stop-color:#c3e9f3"
         offset="1" />
    </linearGradient>
    <linearGradient
       id="linearGradient4316">
      <stop
         id="stop4318"
         style="stop-color:#d1e8ff"
         offset="0" />
      <stop
         id="stop4320"
         style="stop-color:#06a8ff;stop-opacity:.98431"
         offset=".40679" />
      <stop
         id="stop4322"
         style="stop-color:#7931f1"
         offset="1" />
    </linearGradient>
    <linearGradient
       id="linearGradient3290"
       y2="313.77"
       xlink:href="#linearGradient4316"
       gradientUnits="userSpaceOnUse"
       x2="689.77"
       gradientTransform="matrix(.48242 0 0 .48242 188.49 422.19)"
       y1="126.05"
       x1="506.25"
       inkscape:collect="always" />
    <linearGradient
       id="linearGradient3292"
       y2="752.36"
       xlink:href="#linearGradient4251"
       gradientUnits="userSpaceOnUse"
       x2="658.26"
       gradientTransform="matrix(.48242 0 0 .48242 188.49 422.19)"
       y1="529.51"
       x1="350.31"
       inkscape:collect="always" />
    <linearGradient
       id="linearGradient3255"
       y2="640.93"
       xlink:href="#linearGradient3278"
       gradientUnits="userSpaceOnUse"
       x2="672.54"
       gradientTransform="matrix(.48242 0 0 .48242 188.49 422.19)"
       y1="118.08"
       x1="167.46"
       inkscape:collect="always" />
    <linearGradient
       id="linearGradient3261"
       y2="756.65"
       xlink:href="#linearGradient4229"
       gradientUnits="userSpaceOnUse"
       x2="659.16"
       gradientTransform="matrix(.48250 0 0 .47930 188.45 422.52)"
       y1="255.76"
       x1="227.21"
       inkscape:collect="always" />
    <linearGradient
       id="linearGradient3271"
       y2="313.77"
       xlink:href="#linearGradient4316"
       gradientUnits="userSpaceOnUse"
       x2="689.77"
       gradientTransform="matrix(.48242 0 0 .48242 304.92 560.78)"
       y1="126.05"
       x1="506.25"
       inkscape:collect="always" />
    <linearGradient
       id="linearGradient3273"
       y2="752.36"
       xlink:href="#linearGradient4251"
       gradientUnits="userSpaceOnUse"
       x2="658.26"
       gradientTransform="matrix(.48242 0 0 .48242 304.92 560.78)"
       y1="529.51"
       x1="350.31"
       inkscape:collect="always" />
    <linearGradient
       id="linearGradient3275"
       y2="756.65"
       xlink:href="#linearGradient4229"
       gradientUnits="userSpaceOnUse"
       x2="659.16"
       gradientTransform="matrix(.48250 0 0 .47930 304.88 561.11)"
       y1="255.76"
       x1="227.21"
       inkscape:collect="always" />
    <linearGradient
       id="linearGradient3277"
       y2="640.93"
       xlink:href="#linearGradient3278"
       gradientUnits="userSpaceOnUse"
       x2="672.54"
       gradientTransform="matrix(.48242 0 0 .48242 304.92 560.78)"
       y1="118.08"
       x1="167.46"
       inkscape:collect="always" />
  </defs>
  <sodipodi:namedview
     id="base"
     bordercolor="#666666"
     inkscape:pageshadow="2"
     guidetolerance="10"
     pagecolor="#ffffff"
     gridtolerance="10000"
     inkscape:window-height="751"
     inkscape:zoom="0.90509672"
     objecttolerance="10"
     showgrid="false"
     borderopacity="1.0"
     inkscape:current-layer="g3285"
     inkscape:cx="72.89599"
     inkscape:cy="180.42505"
     inkscape:window-y="23"
     inkscape:window-x="0"
     inkscape:window-width="1264"
     inkscape:pageopacity="0.0"
     inkscape:document-units="px"
     inkscape:window-maximized="0" />
  <g
     id="layer1"
     inkscape:label="Layer 1"
     inkscape:groupmode="layer"
     transform="translate(-146.84 -283.74)">
    <g
       id="g3285"
       transform="translate(-107.27 -170.82)">
      <path
         id="path4344"
         sodipodi:nodetypes="cccc"
         style="fill-rule:evenodd;stroke-width:0;fill:url(#linearGradient3290)"
         d="m432.71 470.41v103.15l104.6-1.38-104.6-101.77z" />
      <path
         id="path4342"
         sodipodi:nodetypes="ccccccccc"
         style="fill-rule:evenodd;fill:url(#linearGradient3292)"
         d="m261.54 463.99v358.37l282.56-1.38-1.38-243.97h-113.02v-113.02h-168.16zm170.3-2l112.91 112.77" />
      <path
         id="path4340"
         style="fill-rule:evenodd;fill:url(#linearGradient3261)"
         d="m268.84 469.81v6.57 332.78 6.46h6.47 255.03 6.47v-6.46-219.13-6.59l-6.59 0.12-108.34 2.06 1.03-107 0.06-6.43-6.44-0.1-141.12-2.18-6.57-0.1zm12.94 13.13l128.13 2-1.03 107.22-0.07 6.65 6.66-0.12 108.41-2.07v206.07h-242.1v-319.75z" />
      <path
         id="path84"
         style="fill-rule:evenodd;fill:url(#linearGradient3255)"
         d="m254.12 456.56v7.44 358.34 7.47l7.44-0.03 282.56-1.37 7.44-0.03-0.03-7.44-1.37-243.97-0.04-7.38h-0.21l0.09-0.09-112.88-112.72v-0.22h-7.43-168.16-7.41zm14.85 14.85h153.31v105.59 7.44h7.41 105.62l1.31 229.15-267.65 1.32v-343.5zm168.15 6.37l91.94 91.81h-91.94v-91.81z" />
      <path
         id="path3263"
         sodipodi:nodetypes="cccc"
         style="fill-rule:evenodd;stroke-width:0;fill:url(#linearGradient3271)"
         d="m549.15 609.01v103.15l104.59-1.38-104.59-101.77z" />
      <path
         id="path3265"
         sodipodi:nodetypes="ccccccccc"
         style="fill-rule:evenodd;fill:url(#linearGradient3273)"
         d="m377.97 602.59v358.37l282.56-1.38-1.38-243.97h-113.02v-113.02h-168.16zm170.3-2l112.91 112.77" />
      <path
         id="path3267"
         style="fill-rule:evenodd;fill:url(#linearGradient3275)"
         d="m385.27 608.41v6.56 332.78 6.47h6.47 255.03 6.47v-6.47-219.12-6.59l-6.59 0.12-108.34 2.06 1.03-107 0.06-6.43-6.44-0.1-141.12-2.19-6.57-0.09zm12.94 13.13l128.13 2-1.03 107.21-0.07 6.66 6.66-0.12 108.41-2.07v206.07h-242.1v-319.75z" />
      <path
         id="path3269"
         style="fill-rule:evenodd;fill:url(#linearGradient3277)"
         d="m370.56 595.16v7.44 358.34 7.47l7.43-0.03 282.57-1.38 7.43-0.03-0.03-7.43-1.37-243.97-0.03-7.38h-0.22l0.09-0.09-112.87-112.72v-0.22h-7.44-168.16-7.4zm14.84 14.84h153.31v105.6 7.44h7.41 105.62l1.32 229.15-267.66 1.31v-343.5zm168.16 6.38l91.93 91.81h-91.93v-91.81z" />
    </g>
  </g>
  <metadata
     id="metadata119">
    <rdf:RDF>
      <cc:Work>
        <dc:format>image/svg+xml</dc:format>
        <dc:type
           rdf:resource="http://purl.org/dc/dcmitype/StillImage" />
        <cc:license
           rdf:resource="http://creativecommons.org/publicdomain/zero/1.0/" />
        <dc:publisher>
          <cc:Agent
             rdf:about="http://openclipart.org/">
            <dc:title>Openclipart</dc:title>
          </cc:Agent>
        </dc:publisher>
        <dc:title>Copy</dc:title>
        <dc:date>2010-04-07T19:19:03</dc:date>
        <dc:description />
        <dc:source>https://openclipart.org/detail/38881/copy-by-mightyman</dc:source>
        <dc:creator>
          <cc:Agent>
            <dc:title>mightyman</dc:title>
          </cc:Agent>
        </dc:creator>
        <dc:subject>
          <rdf:Bag>
            <rdf:li>button icon</rdf:li>
            <rdf:li>clipboard</rdf:li>
            <rdf:li>copy</rdf:li>
            <rdf:li>icon</rdf:li>
            <rdf:li>toolbar</rdf:li>
            <rdf:li>toolbar icon</rdf:li>
          </rdf:Bag>
        </dc:subject>
      </cc:Work>
      <cc:License
         rdf:about="http://creativecommons.org/publicdomain/zero/1.0/">
        <cc:permits
           rdf:resource="http://creativecommons.org/ns#Reproduction" />
        <cc:permits
           rdf:resource="http://creativecommons.org/ns#Distribution" />
        <cc:permits
           rdf:resource="http://creativecommons.org/ns#DerivativeWorks" />
      </cc:License>
    </rdf:RDF>
  </metadata>
</svg>
