<?xml version="1.0" encoding="UTF-8" standalone="no"?>
<!-- Created with Inkscape (http://www.inkscape.org/) -->

<svg
   xmlns:dc="http://purl.org/dc/elements/1.1/"
   xmlns:cc="http://creativecommons.org/ns#"
   xmlns:rdf="http://www.w3.org/1999/02/22-rdf-syntax-ns#"
   xmlns:svg="http://www.w3.org/2000/svg"
   xmlns="http://www.w3.org/2000/svg"
   xmlns:xlink="http://www.w3.org/1999/xlink"
   xmlns:sodipodi="http://sodipodi.sourceforge.net/DTD/sodipodi-0.dtd"
   xmlns:inkscape="http://www.inkscape.org/namespaces/inkscape"
   width="547.90247"
   height="547.90558"
   viewBox="0 0 547.90247 547.90558"
   id="svg2"
   version="1.1"
   inkscape:version="0.91 r13725"
   sodipodi:docname="move-or-resize.svg"
   style="shape-rendering:crispEdges">
  <defs
     id="defs4">
    <linearGradient
       inkscape:collect="always"
       xlink:href="#5"
       id="linearGradient4403"
       x1="69.479858"
       y1="527.96716"
       x2="157.47534"
       y2="614.65735"
       gradientUnits="userSpaceOnUse"
       gradientTransform="translate(1397.5066,595.75302)" />
    <linearGradient
       id="5">
      <stop
         stop-color="#a4c0e4"
         id="R" />
      <stop
         stop-color="#2c72c7"
         offset="1"
         id="S" />
    </linearGradient>
  </defs>
  <sodipodi:namedview
     id="base"
     pagecolor="#ffffff"
     bordercolor="#666666"
     borderopacity="1.0"
     inkscape:pageopacity="0.0"
     inkscape:pageshadow="2"
     inkscape:zoom="0.45254834"
     inkscape:cx="-76.85644"
     inkscape:cy="139.84788"
     inkscape:document-units="px"
     inkscape:current-layer="layer1"
     showgrid="false"
     units="px"
     inkscape:window-width="1108"
     inkscape:window-height="1061"
     inkscape:window-x="0"
     inkscape:window-y="0"
     inkscape:window-maximized="0"
     inkscape:snap-bbox="false"
     inkscape:object-nodes="true"
     inkscape:snap-smooth-nodes="true"
     inkscape:snap-object-midpoints="true"
     fit-margin-top="0"
     fit-margin-left="0"
     fit-margin-right="0"
     fit-margin-bottom="0" />
  <metadata
     id="metadata7">
    <rdf:RDF>
      <cc:Work
         rdf:about="">
        <dc:format>image/svg+xml</dc:format>
        <dc:type
           rdf:resource="http://purl.org/dc/dcmitype/StillImage" />
        <dc:title></dc:title>
      </cc:Work>
    </rdf:RDF>
  </metadata>
  <g
     inkscape:label="Layer 1"
     inkscape:groupmode="layer"
     id="layer1"
     transform="translate(-656.36122,-377.47186)">
    <g
       id="g4465"
       transform="matrix(1.4337724,0,0,1.4337724,-1226.0968,-1014.2604)">
      <path
         style="fill:#282f32;fill-opacity:1;fill-rule:evenodd;stroke:#282f32;stroke-width:5.17640018;stroke-opacity:1"
         d="m 1504.4492,976.56445 -21.457,43.23045 -21.4688,43.252 18.9395,0.1426 0,75.0136 -75.0117,0 -0.1446,-18.9414 -43.2519,21.4707 -43.2285,21.4551 43.5332,21.0254 43.5351,21.0234 -0.1211,-18.0996 74.6895,0 0,74.1738 -18.9395,0.1426 21.4688,43.252 21.457,43.2304 21.0235,-43.5351 21.0253,-43.5352 -18.1015,0.1211 0,-73.8496 73.8496,0 -0.1211,18.0996 43.5352,-21.0234 43.5351,-21.0254 -43.2305,-21.4551 -43.2519,-21.4707 -0.1426,18.9414 -74.1738,0 0,-74.6894 18.1015,0.1211 -21.0253,-43.5352 -21.0235,-43.53515 z"
         id="rect2568"
         inkscape:connector-curvature="0" />
      <path
         style="fill:url(#linearGradient4403);fill-opacity:1;fill-rule:evenodd;stroke:none"
         d="m 1504.4023,983.90625 -37.416,76.07615 16.7227,0 0,0.064 -0.024,0 0,27.6836 c -0.01,0.047 -0.017,0.095 -0.025,0.1425 l 0,53.5254 -53.5293,0 c -0.046,0.01 -0.093,0.017 -0.1387,0.025 l -27.6875,0 0,0.025 -0.065,0 0,-16.7246 -76.0761,37.416 76.1855,36.7305 0.02,0.012 0.062,-15.791 81.2286,-0.082 0,52.6172 c 0.01,0.046 0.017,0.093 0.025,0.1386 l 0,27.6875 0.024,0 0,0.064 -16.7227,0 37.416,76.0762 36.7305,-76.1856 0.01,-0.02 -15.791,-0.062 -0.082,-80.3164 80.3184,0.082 0.062,15.791 76.2051,-36.7402 0,0 -76.0762,-37.416 0,16.7246 -0.062,0 0,-0.025 -27.6836,0 c -0.047,-0.01 -0.095,-0.017 -0.1425,-0.025 l -52.6211,0 0.084,-81.2246 15.791,-0.062 -36.7403,-76.20505 z"
         id="path5820"
         inkscape:connector-curvature="0" />
    </g>
  </g>
</svg>
