<?xml version="1.0" encoding="UTF-8" standalone="no"?>
<!--part of the rodentia icon theme by sixsixfive released under CC0 (https://creativecommons.org/publicdomain/zero/1.0/) on openclipart-->

<svg
   xmlns:dc="http://purl.org/dc/elements/1.1/"
   xmlns:cc="http://creativecommons.org/ns#"
   xmlns:rdf="http://www.w3.org/1999/02/22-rdf-syntax-ns#"
   xmlns:svg="http://www.w3.org/2000/svg"
   xmlns="http://www.w3.org/2000/svg"
   xmlns:xlink="http://www.w3.org/1999/xlink"
   xmlns:sodipodi="http://sodipodi.sourceforge.net/DTD/sodipodi-0.dtd"
   xmlns:inkscape="http://www.inkscape.org/namespaces/inkscape"
   viewBox="0 0 40.5 42.877019"
   id="svg3092"
   version="1.1"
   inkscape:version="0.48.5 r10040"
   width="100%"
   height="100%"
   sodipodi:docname="refresh.svg"
   inkscape:export-filename="/Users/thorsten/workspace/4.7.4/jeesl/doc/src/main/resources/jeesl/svg/icon/ui/control/refresh.png"
   inkscape:export-xdpi="25.188318"
   inkscape:export-ydpi="25.188318">
  <metadata
     id="metadata3119">
    <rdf:RDF>
      <cc:Work
         rdf:about="">
        <dc:format>image/svg+xml</dc:format>
        <dc:type
           rdf:resource="http://purl.org/dc/dcmitype/StillImage" />
        <dc:title></dc:title>
      </cc:Work>
    </rdf:RDF>
  </metadata>
  <sodipodi:namedview
     pagecolor="#ffffff"
     bordercolor="#666666"
     borderopacity="1"
     objecttolerance="10"
     gridtolerance="10"
     guidetolerance="10"
     inkscape:pageopacity="0"
     inkscape:pageshadow="2"
     inkscape:window-width="640"
     inkscape:window-height="480"
     id="namedview3117"
     showgrid="false"
     fit-margin-top="0"
     fit-margin-left="0"
     fit-margin-right="0"
     fit-margin-bottom="0"
     inkscape:zoom="4.9166667"
     inkscape:cx="20.25"
     inkscape:cy="20.52576"
     inkscape:window-x="462"
     inkscape:window-y="66"
     inkscape:window-maximized="0"
     inkscape:current-layer="svg3092" />
  <defs
     id="0">
    <linearGradient
       id="2">
      <stop
         id="F"
         stop-color="#eee" />
      <stop
         id="G"
         offset="1"
         stop-color="#dcdcdc" />
    </linearGradient>
    <radialGradient
       cx="60.049999"
       cy="51.389999"
       r="15.03"
       id="3"
       xlink:href="#2"
       gradientUnits="userSpaceOnUse"
       gradientTransform="matrix(-1.404511,1.1888571,-1,-1.1813958,199.73811,11.750541)" />
    <linearGradient
       id="4">
      <stop
         id="H"
         stop-color="#2e3436" />
      <stop
         id="I"
         offset="1"
         stop-color="#2e3436"
         stop-opacity="0" />
    </linearGradient>
    <linearGradient
       id="5">
      <stop
         id="J"
         stop-color="#fff"
         stop-opacity="0.8" />
      <stop
         id="K"
         offset="1"
         stop-color="#fff"
         stop-opacity="0" />
    </linearGradient>
    <linearGradient
       id="6">
      <stop
         id="L"
         stop-color="#fff" />
      <stop
         id="M"
         offset="1"
         stop-color="#fff"
         stop-opacity="0" />
    </linearGradient>
    <radialGradient
       cx="25.02"
       cy="44.299999"
       r="16.726999"
       id="7"
       xlink:href="#4"
       gradientUnits="userSpaceOnUse"
       gradientTransform="matrix(1,0,0,0.1150442,0,39.202918)" />
    <linearGradient
       y1="5.4559999"
       x2="0"
       y2="47.844002"
       id="8"
       xlink:href="#5"
       gradientUnits="userSpaceOnUse"
       gradientTransform="matrix(0.9538134,0,0,0.9538134,-4.6118356,-1.3412107)" />
    <linearGradient
       x1="0.1"
       y1="-28.1"
       x2="21.09"
       y2="25.219999"
       id="9"
       xlink:href="#6"
       gradientUnits="userSpaceOnUse"
       gradientTransform="matrix(0.9538125,0,0,0.9538125,1.1090313,1.0887358)" />
    <linearGradient
       inkscape:collect="always"
       xlink:href="#6"
       id="linearGradient3122"
       gradientUnits="userSpaceOnUse"
       gradientTransform="matrix(0.9538125,0,0,0.9538125,-2.6409687,-1.4717448)"
       x1="0.1"
       y1="-28.1"
       x2="21.09"
       y2="25.219999" />
    <linearGradient
       inkscape:collect="always"
       xlink:href="#5"
       id="linearGradient3125"
       gradientUnits="userSpaceOnUse"
       gradientTransform="matrix(0.9538134,0,0,0.9538134,-8.3618356,-3.9016913)"
       y1="5.4559999"
       x2="0"
       y2="47.844002" />
    <radialGradient
       inkscape:collect="always"
       xlink:href="#4"
       id="radialGradient3130"
       gradientUnits="userSpaceOnUse"
       gradientTransform="matrix(1,0,0,0.21095481,-1.0167561,33.477425)"
       cx="25.02"
       cy="44.299999"
       r="16.726999" />
  </defs>
  <path
     style="fill:#445800"
     inkscape:connector-curvature="0"
     id="B"
     d="m 13.75,0.00201943 a 0.24280127,0.24280127 0 0 0 -0.0625,0.03125 l -0.03125,0 -0.09375,0 c -0.06515,-1e-7 -0.107347,0.032236 -0.15625,0.0625 a 0.24280127,0.24280127 0 0 0 -0.03125,0.03125 c -0.0068,0.00525 -0.02549,-0.00516 -0.03125,0 -0.0086,0.00773 -0.0253,0.02426 -0.03125,0.03125 0.005,-0.00484 -0.01162,-0.023108 0,-0.03125 -0.04669,-0.00105 -0.142164,0.0107 -0.21875,0.03125 -0.01066,0.00286 -0.02034,-0.00355 -0.03125,0 l -0.03125,0 a 0.24280127,0.24280127 0 0 0 -0.0625,0.03125 0.24280127,0.24280127 0 0 0 -0.125,0.0625 c -0.0032,0.00241 -0.0216,0.02364 -0.03125,0.03125 -0.02085,0.012267 -0.03986,0.047863 -0.0625,0.0625 -0.05801,0.037508 -0.11997,0.064864 -0.1875,0.125 -0.01318,0.011734 -0.01778,0.018423 -0.03125,0.03125 -0.340488,0.2063247 -0.555662,0.4744054 -0.6875,0.65624997 a 0.24280127,0.24280127 0 0 0 -0.03125,0.03125 c -0.151407,0.2365739 -0.359516,0.5951725 -0.40625,1.0625 -0.02071,0.1553123 -0.0052,0.2638056 0,0.34375 4.71e-4,0.00727 -3.19e-4,0.024868 0,0.03125 -0.0035,0.016283 -0.0061,0.060479 0,0.125 10e-4,0.010422 -0.0011,0.021607 0,0.03125 l 0.03125,0 c -6.09e-4,0.00975 9e-6,0.024791 0,0.03125 -1.8e-5,0.012917 -5.51e-4,0.019936 0,0.03125 0.0011,0.022629 -0.0022,0.041486 0,0.0625 0.0011,0.010507 -0.002,0.018332 0,0.03125 10e-4,0.00646 -0.0041,0.015352 0,0.03125 l 0.03125,0.125 a 0.24280127,0.24280127 0 0 0 0.03125,0 0.24280127,0.24280127 0 0 0 0,0.03125 0.24280127,0.24280127 0 0 0 0,0.03125 0.24280127,0.24280127 0 0 0 0,0.03125 0.24280127,0.24280127 0 0 0 0.03125,0 0.24280127,0.24280127 0 0 0 0,0.03125 0.24280127,0.24280127 0 0 0 0,0.03125 0.24280127,0.24280127 0 0 0 0,0.03125 0.24280127,0.24280127 0 0 0 0.03125,0.03125 0.24280127,0.24280127 0 0 0 0,0.03125 0.24280127,0.24280127 0 0 0 0.03125,0.03125 0.24280127,0.24280127 0 0 0 0,0.03125 c 0.0012,0.00353 0.03003,-0.00351 0.03125,0 a 0.24280127,0.24280127 0 0 0 0,0.03125 c 0.01042,0.028323 0.01898,0.058697 0.03125,0.09375 0.07358,0.1635084 0.108966,0.2388849 0.15625,0.3125 0.0057,0.00894 0.02523,0.022649 0.03125,0.03125 0.101924,0.2367679 0.216529,0.5547386 0.375,0.875 0.0048,0.00963 -0.0048,0.021574 0,0.03125 a 0.24280127,0.24280127 0 0 0 0,0.03125 c 0.0071,0.01397 0.02405,0.017198 0.03125,0.03125 a 0.24280127,0.24280127 0 0 0 0,0.03125 c 2.244725,4.2370278 4.419921,8.5191876 6.75,12.7187496 0.212801,0.370088 0.400362,0.613222 0.5,0.8125 a 0.24280127,0.24280127 0 0 0 0,0.03125 c 0.187549,0.34548 0.448537,0.656916 0.59375,0.8125 0.14288,0.190508 0.269683,0.323435 0.53125,0.46875 a 0.24280127,0.24280127 0 0 0 0.03125,0 c 0.312346,0.151135 0.686652,0.264314 1.0625,0.3125 a 0.24280127,0.24280127 0 0 0 0.03125,0 c 0.408091,0 0.777196,-0.180144 1.1875,-0.3125 a 0.24280127,0.24280127 0 0 0 0.03125,0 c 0.446949,-0.167606 0.68056,-0.552733 0.875,-0.8125 0.01477,-0.01231 0.01987,-0.02 0.03125,-0.03125 0.0588,-0.05814 0.08299,-0.123944 0.125,-0.1875 0.05014,-0.07586 0.107293,-0.144465 0.1875,-0.25 a 0.24280127,0.24280127 0 0 0 0.03125,-0.03125 c 0.155627,-0.245727 0.578245,-0.804321 0.90625,-1.3125 0.218935,-0.364891 0.435608,-0.738098 0.65625,-1.125 1.972682,1.623534 3.3125,3.916599 3.3125,6.65625 1e-6,4.92192 -3.917348,8.84375 -8.84375,8.84375 -4.921775,0 -8.84375,-3.921973 -8.84375,-8.84375 0,-2.021607 0.648423,-3.818967 1.8125,-5.3125 0.347618,-0.453415 0.609904,-1.12566 0.5,-1.875 -0.09805,-0.686354 -0.429701,-1.230592 -0.9375,-1.625 -1.824719,-1.354989 -3.349515,-2.429791 -5.1875,-3.78125 -0.830071,-0.6166238 -1.9360249,-0.5749628 -2.75,-0.0625 -0.015653,0.0099 -0.047062,-0.01023 -0.0625,0 a 0.24280127,0.24280127 0 0 0 -0.03125,0.03125 0.24280127,0.24280127 0 0 0 -0.0625,0.03125 0.24280127,0.24280127 0 0 0 -0.03125,0 C 4.4473946,10.182451 4.3106927,10.328623 4.1875,10.470769 1.6472182,13.845649 0,18.059047 0,22.627019 c 0,11.136922 9.113078,20.25 20.25,20.25 11.141379,0 20.25,-9.113143 20.25,-20.25 0,-6.813292 -3.523828,-12.6962648 -8.6875,-16.3124996 0.145532,-0.2204584 0.325228,-0.4495755 0.4375,-0.625 0.209528,-0.349216 0.415099,-0.6241697 0.59375,-0.90625 0.05212,-0.099283 0.09249,-0.2058938 0.125,-0.28125 0.03251,-0.075356 0.07797,-0.1507831 0.0625,-0.125 0.01297,-0.021212 1.23e-4,-0.062842 0,-0.0625 a 0.24280127,0.24280127 0 0 0 0.03125,-0.03125 c 0.002,-0.00739 -6.3e-4,-0.027506 0,-0.03125 0.0067,-0.011287 -5.5e-5,-0.031117 0,-0.03125 0.0043,-0.00735 -0.0065,-0.020197 0,-0.03125 0.0093,-0.012825 0.02615,0.010032 0.03125,0 0.0015,-0.00787 -0.0011,-0.021298 0,-0.03125 0.0064,-0.00918 -0.0059,-0.021947 0,-0.03125 0.0036,-0.012828 0.02919,-0.020952 0.03125,-0.03125 0.01704,-0.030641 0.02831,-0.083942 0.03125,-0.09375 0.01363,-0.014667 0.02365,-0.023055 0.03125,-0.03125 3.5e-5,-1.9e-4 -2e-6,-0.031155 0,-0.03125 0.0022,-0.00677 -0.0016,-0.026351 0,-0.03125 0.0068,-0.017892 0.03119,-0.030992 0.03125,-0.03125 1e-4,-4.304e-4 -7.73e-4,-0.022707 0,-0.03125 0.0031,-0.034173 3.93e-4,-0.055527 0,-0.0625 -7.87e-4,-0.013946 0,-0.016788 0,-0.03125 0.02559,-0.036476 0.07281,-0.020317 0.09375,-0.125 a 0.24280127,0.24280127 0 0 0 0,-0.03125 c 0.01718,-0.1145132 0.0039,-0.1958858 0,-0.21875 -5.6e-4,-0.00327 0,-0.03125 0,-0.03125 0.02556,-0.051832 0.06896,-0.089617 0.0625,-0.21875 -0.0051,-0.408089 -0.131089,-0.8130388 -0.3125,-1.15625 -0.180122,-0.3318021 -0.439697,-0.6342285 -0.78125,-0.84375 -0.01064,-0.0076 -0.02066,-0.023447 -0.03125,-0.03125 -0.08975,-0.066143 -0.195829,-0.13134957 -0.3125,-0.18749997 -0.02782,-0.021402 -0.02936,-0.019516 -0.0625,-0.03125 -0.07575,-0.026822 -0.130286,-0.030519 -0.15625,-0.03125 -0.0049,-1.371e-4 -0.03039,-7.1e-5 -0.03125,0 -0.0012,9.46e-5 -0.03869,-0.03125 -0.03125,-0.03125 -0.01621,-0.012651 -0.04235,0.010132 -0.0625,0 -0.02519,-0.012665 -0.03892,-0.025505 -0.0625,-0.03125 -0.01415,-0.00345 -0.02017,-0.03125 -0.03125,-0.03125 l -0.0625,0 c -0.09588,-0.038289 -0.199354,-0.09375 -0.34375,-0.09375 -0.0448,-3e-7 -0.02335,-3.534e-4 -0.03125,0 a 0.24280127,0.24280127 0 0 0 -0.15625,-0.03125 l -0.1875,0 c -0.0092,-0.00146 -0.02196,0.00138 -0.03125,0 -0.309044,-0.04589 -0.656475,-0.05164 -1.03125,-0.09375 a 0.24280127,0.24280127 0 0 0 -0.03125,0 c -0.807278,-0.045353 -1.820964,-0.079956 -2.875,-0.125 -1.061873,-0.045379 -2.146158,-0.049293 -2.9375,-0.09375 -0.35697,1e-7 -0.660762,-0.0625 -0.96875,-0.0625 l -0.3125,0 -0.03125,0 -0.09375,0 c 0.02284,0 -0.02761,0.00522 -0.09375,0 -0.06614,-0.00522 -0.167218,-0.022317 -0.28125,-0.03125 -0.228064,-0.017867 -0.558941,-0.039832 -0.9375,-0.0625 -0.799287,0 -1.89112,-0.017591 -2.9375,-0.0625 -1.041084,-0.045069 -2.044571,-0.09375 -2.875,-0.09375 l -1.03125,0 -0.4375,0 a 0.24280127,0.24280127 0 0 0 -0.0625,0 z" />
  <path
     style="fill:#8bb300"
     inkscape:connector-curvature="0"
     id="C"
     d="m 13.667343,1.0995394 c -0.139706,0.027107 -0.196047,0.073454 -0.238453,0.08942 -0.11726,0.044153 -0.153987,0.056902 -0.298067,0.1490332 -0.245996,0.1573092 -0.333756,0.3318028 -0.387486,0.4172929 -0.04946,0.078687 -0.193311,0.1871015 -0.238453,0.5663262 -0.01549,0.1300247 0.0031,0.3329921 0,0.2980664 0.0084,0.09367 0.03463,0.1639127 0.05961,0.2384531 0.01249,0.03727 0.01829,0.093789 0.02981,0.1192266 0.0048,0.039824 -0.03051,-0.036876 0.02981,0.1192266 0.04839,0.1252196 0.100734,0.2232541 0.149034,0.327873 0.121004,0.2621044 0.272529,0.5773556 0.447099,0.9240059 0.361385,0.7176144 0.822722,1.6038805 1.311492,2.5335644 0.48984,0.9317194 1.017203,1.8808045 1.400913,2.5931775 0.191854,0.356186 0.332209,0.6524298 0.447099,0.8643928 0.114891,0.211963 0.232535,0.45931 0.17884,0.35768 -0.03882,-0.07347 0.02169,-0.0163 0.02981,0 0.0081,0.0163 0.01457,0.02916 0.02981,0.05961 0.03045,0.06091 0.06384,0.158933 0.119227,0.26826 0.110772,0.218653 0.258233,0.50497 0.447099,0.864392 0.369422,0.703032 0.877686,1.662225 1.371106,2.593178 0.489157,0.92291 0.979922,1.855594 1.371105,2.563371 0.195583,0.353876 0.344534,0.643049 0.476907,0.864393 0.08965,0.149903 0.173392,0.276654 0.208646,0.327873 -0.02864,-0.04162 0.01344,0.02701 0.119227,0.149033 0.10586,0.122104 0.10772,0.09507 0.149033,0.119226 0.01873,0.02004 0.03754,0.03892 0.05961,0.05961 0.01231,0.0031 0.0865,0.05794 0.08942,0.05961 0.05594,0.04439 0.09333,0.09183 0.149033,0.119226 0.02901,0.01427 0.298406,0.137861 0.596133,0.149034 0.340923,0.0128 0.621502,-0.125107 0.715359,-0.17884 0.254581,-0.145751 0.623482,-0.499998 0.17884,-0.149033 -0.09746,0.07692 -0.06291,0.145066 0.208647,-0.149034 0.252449,-0.273395 0.262873,-0.359415 0.149033,-0.208646 0.02798,-0.03706 0.177002,-0.222711 0.327873,-0.4471 0.22624,-0.336482 0.486205,-0.748738 0.804779,-1.251879 0.411979,-0.650658 0.886023,-1.416323 1.341299,-2.146078 2.781839,1.748415 4.679643,4.727203 4.679643,8.25644 -1e-6,5.502696 -4.449676,9.925611 -9.955418,9.925611 -5.505744,-2e-6 -9.925612,-4.41987 -9.925612,-9.925611 -1e-6,-2.267131 0.79358,-4.333927 2.086465,-6.020942 0.20574,-0.26865 0.320608,-0.646976 0.26826,-1.013425 -0.05098,-0.356867 -0.281176,-0.67634 -0.566326,-0.8942 l 0.02981,-0.02981 c -0.01103,-0.0082 -0.01888,0.0081 -0.02981,0 -1.2762,-0.949999 -1.951515,-1.43815 -2.265305,-1.669172 -0.08174,-0.06018 -0.141246,-0.09391 -0.208646,-0.149033 0.0024,0.0026 -0.0143,-0.01394 -0.02981,-0.02981 -0.0077,-0.0079 -0.0061,-0.0087 -0.02981,-0.02981 -0.0046,-0.0041 -0.01858,-0.02154 -0.02981,-0.02981 -0.01663,-0.01167 -0.03037,-0.04392 -0.05961,-0.05961 -0.0064,-0.005 -0.01661,-0.02117 -0.02981,-0.02981 -0.07771,-0.05409 -0.09527,-0.04527 -0.119227,-0.05961 -0.0066,-0.003 -0.03102,-4.47e-4 -0.02981,0 -0.02347,-0.01387 -0.06032,-0.04628 -0.119227,-0.08942 C 8.842291,12.277997 8.21983,11.803447 6.931036,10.84629 a 0.92748155,0.92748155 0 0 0 -0.02981,0 C 6.337619,10.432502 5.4403561,10.56452 5.023417,11.11457 2.6134056,14.307689 1.0889405,18.281358 1.0889405,22.619934 c 0,10.554164 8.5816875,19.135863 19.1358635,19.135863 10.554141,-2e-6 19.16567,-8.579328 19.16567,-19.135863 1e-6,-6.812641 -3.686136,-12.6449318 -9.061219,-16.006166 0.331622,-0.5292916 0.694258,-1.0765558 0.953812,-1.4903321 0.217845,-0.3472859 0.435254,-0.6501501 0.596133,-0.9240058 0.107265,-0.1825915 0.170665,-0.3415554 0.17884,-0.3576797 -0.01284,0.025317 0.03238,-0.056161 0.08942,-0.2086465 -0.0043,0.011524 0.0016,-0.034672 0,-0.029807 0.02007,-0.039399 0.03856,-0.1379415 0.05961,-0.2086465 0.02667,-0.089559 0.0585,-0.1675786 0.05961,-0.2682598 0.0024,-0.2176037 -0.0032,-0.4097204 -0.149034,-0.6855527 -0.160134,-0.3030792 -0.477113,-0.4974136 -0.447099,-0.4769063 -0.02083,-0.014232 0.01581,-0.00121 -0.238453,-0.1192265 -0.123402,-0.05728 -0.287308,-0.1027353 -0.238453,-0.08942 -0.09331,-0.025431 -0.131889,-0.028475 -0.208647,-0.029807 -0.146849,-0.022923 -0.250722,-0.020035 -0.35768,-0.029807 -0.210105,-0.019195 -0.578937,-0.064587 -1.013425,-0.08942 -0.81163,-0.046388 -1.84916,-0.077958 -2.891245,-0.1192265 -1.059462,-0.041957 -2.127385,-0.062705 -2.92105,-0.08942 -0.397496,-0.01338 -0.717306,-0.018538 -0.953813,-0.029807 -0.118254,-0.00564 -0.232931,-0.026373 -0.298066,-0.029807 -0.06514,-0.00343 -0.0093,0.00413 -0.119227,0 -0.143963,-0.00541 -2.200278,-0.075922 -4.292156,-0.1490332 -1.044084,-0.036491 -2.052776,-0.075338 -2.861438,-0.08942 -0.409912,-0.00713 -0.792264,-0.00417 -1.043232,0 -0.06954,0.00115 -0.125416,-0.016309 -0.327873,0 0.195676,-0.015759 0.03072,-0.052229 -0.238453,0 z" />
  <path
     inkscape:connector-curvature="0"
     style="opacity:0.8;fill:none;stroke:url(#linearGradient3125);stroke-width:0.954"
     id="D"
     d="m 13.78125,1.7207694 c -0.06314,0 -0.11566,0.0625 -0.15625,0.0625 -0.05412,1e-7 -0.07958,0.048649 -0.15625,0.09375 -0.112751,0.090202 -0.164629,0.1285481 -0.21875,0.21875 -0.05412,0.090202 -0.138209,0.1771973 -0.15625,0.3125 -0.009,0.090202 0,0.1875 0,0.1875 0.0045,0.045101 0.01772,0.1423991 0.03125,0.1875 10e-7,-2e-7 0.0174,-0.010303 0.0625,0.125 0.03608,0.090202 0.07539,0.1771972 0.125,0.3125 0.108243,0.2255047 0.261606,0.5280437 0.4375,0.84375 0.360806,0.7216147 0.82541,1.646631 1.3125,2.59375 0.48709,0.902019 0.991643,1.8408848 1.375,2.5624998 0.189424,0.360807 0.351487,0.663346 0.46875,0.8437498 0.112751,0.225504 0.20554,0.375 0.1875,0.375 0.009,0.0451 0.04446,0.04865 0.0625,0.09375 0.02706,0.0451 0.07088,0.114696 0.125,0.25 0.108242,0.180403 0.252587,0.514192 0.4375,0.875 0.374337,0.676514 0.85215,1.615381 1.34375,2.5625 0.487092,0.902018 0.987132,1.854736 1.375,2.53125 0.189424,0.360808 0.342468,0.680746 0.46875,0.90625 0.07216,0.0902 0.173649,0.173649 0.21875,0.21875 0.0045,0.0451 0.03963,0.0799 0.09375,0.125 0.08118,0.0902 0.111469,0.09375 0.125,0.09375 0.01353,0 0.0045,0.0625 0,0.0625 0.03608,0.0451 0.04865,0.04865 0.09375,0.09375 0.04059,1e-6 0.203617,0.0625 0.375,0.0625 0.193936,0 0.347619,-0.0174 0.40625,-0.0625 0.117261,-0.0902 0.242583,-0.229052 0.09375,-0.09375 -0.009,1e-6 0.01676,-0.0035 0.125,-0.09375 0.117261,-0.135303 0.14304,-0.232601 0.125,-0.1875 0.05412,-0.0902 0.159478,-0.225847 0.28125,-0.40625 0.216485,-0.360807 0.496794,-0.753891 0.8125,-1.25 0.51866,-0.811817 1.096999,-1.816732 1.65625,-2.71875 3.238247,1.804035 5.46875,5.18737 5.46875,9.15625 -1e-6,5.818017 -4.735462,10.5 -10.5625,10.5 -5.827039,0 -10.5,-4.681982 -10.5,-10.5 0,-2.43545 0.825453,-4.602213 2.1875,-6.40625 0.121773,-0.135303 0.18782,-0.368245 0.15625,-0.59375 -0.02706,-0.225504 -0.141115,-0.409798 -0.3125,-0.5 -1.758935,-1.307925 -3.419545,-2.504574 -5.1875,-3.8125 -0.3247265,-0.225505 -0.8189551,-0.190706 -1.0625,0.125 -2.3407374,3.111963 -3.8125,6.948014 -3.8125,11.1875 2e-7,10.192806 8.302363,18.53125 18.53125,18.53125 10.233397,0 18.59375,-8.338443 18.59375,-18.53125 -10e-7,-6.81024 -3.76122,-12.7040848 -9.25,-15.9062496 0.437476,-0.6765142 0.880493,-1.4275392 1.21875,-1.96875 0.225504,-0.3608073 0.449427,-0.6182454 0.59375,-0.84375 0.08118,-0.1804036 0.12919,-0.2847982 0.15625,-0.375 0.009,10e-8 0.03093,-0.034798 0.0625,-0.125 -0.0045,-2e-7 0.01772,-0.048649 0.03125,-0.09375 -0.02255,0.045101 0.0087,0.058952 0.03125,-0.03125 0.01353,-0.045101 0,-0.097298 0,-0.1875 0,-0.090202 0.02319,-0.2084473 -0.0625,-0.34375 -0.08569,-0.1804038 -0.267719,-0.28125 -0.28125,-0.28125 -0.03608,-0.045101 -0.02127,-0.048649 -0.125,-0.09375 -0.07216,-0.045101 -0.15625,-0.076351 -0.15625,-0.03125 -0.05863,-0.045101 -0.08441,-0.045101 -0.125,0 -0.0451,-0.045101 -0.09407,0 -0.0625,0 -0.08569,-0.045101 -0.186538,-0.0625 -0.28125,-0.0625 -0.234523,-0.045101 -0.562842,-0.09375 -0.96875,-0.09375 -0.802795,-0.045101 -1.859908,-0.079899 -2.90625,-0.125 -1.050851,-0.045101 -2.107964,-0.048649 -2.90625,-0.09375 -0.401397,-2e-7 -0.729715,0 -0.96875,0 -0.117263,-0.045101 -0.213598,-0.03125 -0.28125,-0.03125 -0.06314,1e-7 -0.08441,0 -0.125,0 -0.07667,1e-7 -2.188568,-0.1111491 -4.28125,-0.15625 -1.046341,-0.045101 -2.076713,-0.09375 -2.875,-0.09375 -0.401398,-0.045101 -0.725205,0 -0.96875,0 -0.103732,0 -0.217468,-0.045101 -0.34375,0 0.0451,0 -0.02997,-0.045101 -0.15625,0 z" />
  <path
     inkscape:connector-curvature="0"
     style="opacity:0.8;fill:url(#linearGradient3122)"
     id="E"
     d="m 13.960677,1.0990073 c -0.04961,0 -0.162363,0 -0.297665,0.045101 -0.139813,0 -0.198444,0.045101 -0.239036,0.090202 -0.117262,0.045101 -0.153343,0.045101 -0.297665,0.1353028 -0.248055,0.1353027 -0.333747,0.3157064 -0.387868,0.4059082 -0.04961,0.090202 -0.193935,0.1804037 -0.239035,0.586312 -0.01353,0.1353027 0.0045,0.3157063 0,0.2706054 0.01353,0.1353027 0.05412,0.3157064 0.0902,0.3608073 0.0045,0.045101 -0.03157,-0.045101 0.02706,0.1353028 0.04961,0.1353027 0.103732,0.2255045 0.148833,0.3157063 0.121773,0.2706055 0.275116,0.586312 0.451009,0.947119 0.360807,0.7216144 0.820837,1.5785323 1.307927,2.5256514 0.491599,0.9471189 1.01928,1.8942377 1.402638,2.5707527 0.193934,0.360807 0.333747,0.6765128 0.446499,0.9020168 0.117262,0.180404 0.234525,0.45101 0.180404,0.315706 0.0045,0.0451 0.02706,0 0.02706,0 0.009,0.0451 0.01804,0.0451 0.03157,0.0902 0.03157,0.0451 0.06314,0.135302 0.117263,0.270605 0.112751,0.225504 0.261584,0.49611 0.451008,0.856918 0.365318,0.676513 0.874959,1.668733 1.371068,2.570751 0.248055,0.496111 0.47356,0.902019 0.712594,1.307927 5.439171,-1.488331 11.180517,-2.615853 17.228549,-3.111963 -1.565001,-2.435449 -3.698274,-4.5100916 -6.169804,-6.0435225 0.333747,-0.5412107 0.694554,-1.0824215 0.95614,-1.4883298 0.216484,-0.3608072 0.432967,-0.6765132 0.595332,-0.947119 0.108241,-0.1804036 0.171383,-0.3157064 0.175893,-0.3608073 -0.009,0.045101 0.03608,-0.045101 0.0902,-0.1804037 -0.0045,0 0.0045,-0.045101 0,-0.045101 0.0451,-0.090202 0.117262,-0.2706055 0.121773,-0.4510092 0,-0.2255045 -0.0045,-0.4059082 -0.148834,-0.7216145 -0.162363,-0.2706055 -0.47807,-0.4961101 -0.451009,-0.4510092 -0.01804,-0.045101 0.01804,0 -0.234525,-0.1353027 -0.126282,-0.045101 -0.288646,-0.090202 -0.239035,-0.090202 -0.09471,0 -0.135302,0 -0.211974,0 -0.144323,-0.045101 -0.248054,-0.045101 -0.356297,-0.045101 -0.207465,-0.045101 -0.577292,-0.090202 -1.014771,-0.090202 -0.811816,-0.045101 -1.849137,-0.090202 -2.890969,-0.1353028 -1.059871,-0.045101 -2.124252,-0.045101 -2.918029,-0.090202 -0.396888,0 -0.717104,0 -0.956139,0 -0.117262,-0.045101 -0.230014,-0.045101 -0.297666,-0.045101 -0.06314,0 -0.009,0 -0.117263,0 -0.144322,0 -2.200924,-0.090202 -4.293606,-0.1353028 -1.041831,-0.045101 -2.052092,-0.090202 -2.859398,-0.090202 -0.410419,-0.045101 -0.793776,0 -1.046341,0 -0.06765,0 -0.126283,-0.045101 -0.324727,0 0.03157,0 0.0451,-0.045101 0.05863,-0.045101 z M 5.9101645,10.6153 C 5.5628874,10.7055 5.2246306,10.885905 5.0171663,11.156511 2.6177977,14.313574 1.097897,18.282456 1.0843667,22.567042 4.3181022,21.078712 7.718711,19.635483 11.308744,18.372657 c 0.302176,-0.631412 0.653963,-1.217724 1.073401,-1.758936 0.202955,-0.270605 0.320217,-0.631412 0.266095,-0.992219 -0.05412,-0.360808 -0.270605,-0.721616 -0.568271,-0.947119 -1.294396,-0.947121 -1.94836,-1.398129 -2.264066,-1.668735 -0.08118,-0.0451 -0.139813,-0.0902 -0.207464,-0.135302 0,0 -0.01353,0 -0.03157,-0.0451 -0.0045,0 -0.0045,0 -0.02706,0 -0.0045,0 -0.01804,-0.0451 -0.03157,-0.0451 -0.01804,0 -0.03157,-0.0451 -0.05863,-0.0451 -0.009,0 -0.01804,-0.0451 -0.03157,-0.0451 -0.07667,-0.0451 -0.09471,-0.0451 -0.117262,-0.0451 -0.009,0 -0.03157,0 -0.03157,0 -0.02255,-0.0451 -0.05863,-0.0451 -0.117262,-0.0902 C 8.837219,12.28404 8.214826,11.83303 6.92494,10.885911 c -0.009,0 -0.01804,0 -0.03157,0 C 6.613745,10.660406 6.257447,10.570205 5.9101705,10.615306 z" />
</svg>
