<?xml version="1.0" encoding="UTF-8" standalone="no"?>
<!-- Created with Inkscape (http://www.inkscape.org/) -->

<svg
   xmlns:dc="http://purl.org/dc/elements/1.1/"
   xmlns:cc="http://creativecommons.org/ns#"
   xmlns:rdf="http://www.w3.org/1999/02/22-rdf-syntax-ns#"
   xmlns:svg="http://www.w3.org/2000/svg"
   xmlns="http://www.w3.org/2000/svg"
   xmlns:xlink="http://www.w3.org/1999/xlink"
   xmlns:sodipodi="http://sodipodi.sourceforge.net/DTD/sodipodi-0.dtd"
   xmlns:inkscape="http://www.inkscape.org/namespaces/inkscape"
   id="svg2"
   sodipodi:docname="bean.svg"
   viewBox="0 0 30.229311 30.128768"
   version="1.1"
   inkscape:version="0.91 r13725"
   width="30.229311"
   height="30.128769"
   inkscape:export-filename="/Volumes/ramdisk/bean.png"
   inkscape:export-xdpi="35.726913"
   inkscape:export-ydpi="35.726913">
  <defs
     id="defs4">
    <linearGradient
       id="linearGradient3970">
      <stop
         id="stop3972"
         style="stop-color:#311d01"
         offset="0" />
      <stop
         id="stop3974"
         style="stop-color:#826444;stop-opacity:0"
         offset="1" />
    </linearGradient>
    <linearGradient
       id="linearGradient3774"
       inkscape:collect="always">
      <stop
         id="stop3776"
         style="stop-color:#2f1b00"
         offset="0" />
      <stop
         id="stop3778"
         style="stop-color:#2f1b00;stop-opacity:0"
         offset="1" />
    </linearGradient>
    <filter
       id="filter3887"
       inkscape:collect="always">
      <feGaussianBlur
         id="feGaussianBlur3889"
         stdDeviation="0.59202016"
         inkscape:collect="always" />
    </filter>
    <radialGradient
       id="radialGradient4019"
       xlink:href="#linearGradient3774"
       gradientUnits="userSpaceOnUse"
       cy="738.48999"
       cx="640.96002"
       gradientTransform="matrix(-0.029315,1.9962,-0.33923,-0.0049817,910.76,-1540.4)"
       r="12.191"
       inkscape:collect="always" />
    <linearGradient
       id="linearGradient4021"
       y2="-259.37"
       xlink:href="#linearGradient3970"
       gradientUnits="userSpaceOnUse"
       x2="645.95001"
       gradientTransform="matrix(0.66986,0.74249,-0.74249,0.66986,15.674,-566.36)"
       y1="-265.73001"
       x1="654.71002"
       inkscape:collect="always" />
    <radialGradient
       inkscape:collect="always"
       xlink:href="#linearGradient3774"
       id="radialGradient3353"
       gradientUnits="userSpaceOnUse"
       gradientTransform="matrix(-0.029315,1.9962,-0.33923,-0.0049817,910.76,-1540.4)"
       cx="640.96002"
       cy="738.48999"
       r="12.191" />
    <linearGradient
       inkscape:collect="always"
       xlink:href="#linearGradient3970"
       id="linearGradient3355"
       gradientUnits="userSpaceOnUse"
       gradientTransform="matrix(0.66986,0.74249,-0.74249,0.66986,15.674,-566.36)"
       x1="654.71002"
       y1="-265.73001"
       x2="645.95001"
       y2="-259.37" />
  </defs>
  <sodipodi:namedview
     id="base"
     bordercolor="#666666"
     inkscape:pageshadow="2"
     inkscape:window-y="0"
     pagecolor="#ffffff"
     inkscape:window-height="751"
     inkscape:window-maximized="0"
     inkscape:zoom="11.427721"
     inkscape:window-x="-1"
     showgrid="true"
     borderopacity="1.0"
     inkscape:current-layer="layer1"
     inkscape:cx="25.064655"
     inkscape:cy="15.064378"
     inkscape:window-width="1280"
     inkscape:pageopacity="0.0"
     inkscape:document-units="px"
     fit-margin-top="-3.9"
     fit-margin-left="-3.9"
     fit-margin-right="-3.8"
     fit-margin-bottom="-3.9"
     borderlayer="true"
     inkscape:showpageshadow="false" />
  <g
     id="layer1"
     inkscape:label="Ebene 1"
     inkscape:groupmode="layer"
     transform="translate(-3.8455751,-1010.0509)">
    <g
       id="g4009"
       transform="matrix(0.70193,-0.70192,0.70193,0.70192,-949.93821,956.76753)">
      <g
         id="g3958"
         transform="matrix(-1,0,0,1,1282.9,0)">
        <path
           id="path3960"
           d="m 644.12,-281 c -1.0326,10e-4 -1.9317,0.5208 -2.6875,1.375 l 0,27.625 c 0.91242,1.2306 1.993,1.893 3.2812,1.75 11.053,-1.2273 11.846,-27.891 0.25,-30.625 -0.28716,-0.0677 -0.57554,-0.1253 -0.84375,-0.125 z"
           style="fill:#cab78f;stroke:#2f1b00;stroke-width:1.00740004px;stroke-linejoin:round"
           inkscape:connector-curvature="0"
           transform="translate(0,1004.4)" />
        <path
           id="path3962"
           d="m 644.12,-280.47 c -0.684,-0.007 -1.28,0.21306 -1.8438,0.6875 -0.29396,0.24739 -0.57937,0.59792 -0.84375,0.96875 l 0,25.969 c 0.27001,0.43551 0.58086,0.82076 0.875,1.125 0.7272,0.75209 1.4568,1.0985 2.3438,1 2.5664,-0.28496 4.5413,-2.0323 5.9375,-4.6562 1.3962,-2.6239 2.1566,-6.1068 2.2188,-9.625 0.0621,-3.5182 -0.53362,-7.0919 -1.875,-9.9062 -0.67065,-1.4072 -1.552,-2.6198 -2.5625,-3.5625 -1.0105,-0.94274 -2.1708,-1.5855 -3.5312,-1.9062 -0.25201,-0.0594 -0.49075,-0.0914 -0.71875,-0.0937 z"
           style="color:#000000;text-indent:0;text-transform:none;block-progression:tb;fill:url(#radialGradient3353)"
           inkscape:connector-curvature="0"
           transform="translate(0,1004.4)" />
        <path
           id="path3964"
           d="m 645.19,-279.31 c 0.20961,0.35296 0.41497,0.70903 0.59375,1.0938 1.1269,2.4246 1.6074,5.474 1.5,8.5312 -0.10741,3.0573 -0.80552,6.1057 -2.0625,8.4062 -0.96699,1.7698 -2.235,3.0717 -3.7812,3.7188 l 0,4.6562 c 0.0663,0.10877 0.11901,0.24219 0.1875,0.34375 0.006,0.008 0.0253,-0.008 0.0312,0 0.50728,0.35498 1.0442,0.51568 1.6562,0.4375 2.401,-0.30672 4.2788,-1.9736 5.625,-4.4375 1.3462,-2.4639 2.1037,-5.7257 2.2188,-9 0.11505,-3.2743 -0.38687,-6.5595 -1.5938,-9.1562 -0.45254,-0.97383 -1.0167,-1.857 -1.6562,-2.5938 -0.21334,-0.24543 -0.42416,-0.50359 -0.65625,-0.71875 -0.61164,-0.56718 -1.3091,-0.96438 -2.0625,-1.2812 z"
           style="color:#000000;text-indent:0;text-transform:none;block-progression:tb;fill:url(#linearGradient3355);filter:url(#filter3887)"
           inkscape:connector-curvature="0"
           transform="translate(0,1004.4)" />
      </g>
      <g
         id="g3976"
         transform="translate(-0.008949,0)">
        <path
           id="path3978"
           style="fill:#cab78f;stroke:#2f1b00;stroke-width:1.00740004px;stroke-linejoin:round"
           transform="translate(0,1004.4)"
           inkscape:connector-curvature="0"
           d="m 644.12,-281 c -1.0326,10e-4 -1.9317,0.5208 -2.6875,1.375 l 0,27.625 c 0.91242,1.2306 1.993,1.893 3.2812,1.75 11.053,-1.2273 11.846,-27.891 0.25,-30.625 -0.28716,-0.0677 -0.57554,-0.1253 -0.84375,-0.125 z" />
        <path
           id="path3980"
           style="color:#000000;text-indent:0;text-transform:none;block-progression:tb;fill:url(#radialGradient4019)"
           transform="translate(0,1004.4)"
           inkscape:connector-curvature="0"
           d="m 644.12,-280.47 c -0.684,-0.007 -1.28,0.21306 -1.8438,0.6875 -0.29396,0.24739 -0.57937,0.59792 -0.84375,0.96875 l 0,25.969 c 0.27001,0.43551 0.58086,0.82076 0.875,1.125 0.7272,0.75209 1.4568,1.0985 2.3438,1 2.5664,-0.28496 4.5413,-2.0323 5.9375,-4.6562 1.3962,-2.6239 2.1566,-6.1068 2.2188,-9.625 0.0621,-3.5182 -0.53362,-7.0919 -1.875,-9.9062 -0.67065,-1.4072 -1.552,-2.6198 -2.5625,-3.5625 -1.0105,-0.94274 -2.1708,-1.5855 -3.5312,-1.9062 -0.25201,-0.0594 -0.49075,-0.0914 -0.71875,-0.0937 z" />
        <path
           id="path3982"
           style="color:#000000;text-indent:0;text-transform:none;block-progression:tb;fill:url(#linearGradient4021);filter:url(#filter3887)"
           transform="translate(0,1004.4)"
           inkscape:connector-curvature="0"
           d="m 645.19,-279.31 c 0.20961,0.35296 0.41497,0.70903 0.59375,1.0938 1.1269,2.4246 1.6074,5.474 1.5,8.5312 -0.10741,3.0573 -0.80552,6.1057 -2.0625,8.4062 -0.96699,1.7698 -2.235,3.0717 -3.7812,3.7188 l 0,4.6562 c 0.0663,0.10877 0.11901,0.24219 0.1875,0.34375 0.006,0.008 0.0253,-0.008 0.0312,0 0.50728,0.35498 1.0442,0.51568 1.6562,0.4375 2.401,-0.30672 4.2788,-1.9736 5.625,-4.4375 1.3462,-2.4639 2.1037,-5.7257 2.2188,-9 0.11505,-3.2743 -0.38687,-6.5595 -1.5938,-9.1562 -0.45254,-0.97383 -1.0167,-1.857 -1.6562,-2.5938 -0.21334,-0.24543 -0.42416,-0.50359 -0.65625,-0.71875 -0.61164,-0.56718 -1.3091,-0.96438 -2.0625,-1.2812 z" />
      </g>
    </g>
  </g>
  <metadata
     id="metadata25">
    <rdf:RDF>
      <cc:Work>
        <dc:format>image/svg+xml</dc:format>
        <dc:type
           rdf:resource="http://purl.org/dc/dcmitype/StillImage" />
        <cc:license
           rdf:resource="http://creativecommons.org/publicdomain/zero/1.0/" />
        <dc:publisher>
          <cc:Agent
             rdf:about="http://openclipart.org/">
            <dc:title>Openclipart</dc:title>
          </cc:Agent>
        </dc:publisher>
        <dc:title>Bean</dc:title>
        <dc:date>2011-05-02T06:35:08</dc:date>
        <dc:description>a single bean</dc:description>
        <dc:source>https://openclipart.org/detail/135343/bean-by-aguest</dc:source>
        <dc:creator>
          <cc:Agent>
            <dc:title>aguest</dc:title>
          </cc:Agent>
        </dc:creator>
        <dc:subject>
          <rdf:Bag>
            <rdf:li>Bean</rdf:li>
            <rdf:li>Coffee</rdf:li>
            <rdf:li>Eclipse</rdf:li>
            <rdf:li>Java</rdf:li>
          </rdf:Bag>
        </dc:subject>
      </cc:Work>
      <cc:License
         rdf:about="http://creativecommons.org/publicdomain/zero/1.0/">
        <cc:permits
           rdf:resource="http://creativecommons.org/ns#Reproduction" />
        <cc:permits
           rdf:resource="http://creativecommons.org/ns#Distribution" />
        <cc:permits
           rdf:resource="http://creativecommons.org/ns#DerivativeWorks" />
      </cc:License>
    </rdf:RDF>
  </metadata>
</svg>
