<?xml version="1.0" encoding="UTF-8" standalone="no"?>
<!-- Generator: Adobe Illustrator 15.1.0, SVG Export Plug-In . SVG Version: 6.00 Build 0)  -->

<svg
   xmlns:dc="http://purl.org/dc/elements/1.1/"
   xmlns:cc="http://creativecommons.org/ns#"
   xmlns:rdf="http://www.w3.org/1999/02/22-rdf-syntax-ns#"
   xmlns:svg="http://www.w3.org/2000/svg"
   xmlns="http://www.w3.org/2000/svg"
   xmlns:sodipodi="http://sodipodi.sourceforge.net/DTD/sodipodi-0.dtd"
   xmlns:inkscape="http://www.inkscape.org/namespaces/inkscape"
   id="Calque_1"
   sodipodi:docname="construction.svg"
   xml:space="preserve"
   viewBox="0 0 141.057 124.152"
   version="1.1"
   inkscape:version="0.91 r13725"
   width="141.05701"
   height="124.152"
   inkscape:export-filename="/Volumes/ramdisk/construction.png"
   inkscape:export-xdpi="8.6991539"
   inkscape:export-ydpi="8.6991539"><defs
     id="defs13" /><title
     id="title2996">Panneau Danger</title><sodipodi:namedview
     id="namedview15"
     bordercolor="#666666"
     inkscape:pageshadow="2"
     guidetolerance="10"
     pagecolor="#ffffff"
     gridtolerance="10"
     inkscape:window-maximized="0"
     inkscape:zoom="2.2331398"
     objecttolerance="10"
     borderopacity="1"
     inkscape:current-layer="Calque_1"
     inkscape:cx="70.5285"
     inkscape:cy="62.076"
     inkscape:window-y="45"
     inkscape:window-x="186"
     inkscape:window-width="933"
     showgrid="false"
     inkscape:pageopacity="0"
     inkscape:window-height="663"
     fit-margin-top="0"
     fit-margin-left="0"
     fit-margin-right="0"
     fit-margin-bottom="0" /><g
     id="g3"><path
       id="path5"
       d="m 133.56,124.15 c -0.006,-0.001 -0.012,-0.001 -0.02,0 l -126.04,0 c -2.68,0 -5.155,-1.43 -6.495,-3.75 -1.34,-2.32 -1.34,-5.18 0,-7.5 L 64.023,3.75 C 65.363,1.43 67.839,0 70.519,0 c 2.68,0 5.155,1.43 6.495,3.75 l 62.764,108.71 c 0.808,1.197 1.279,2.64 1.279,4.192 0,4.14 -3.36,7.5 -7.5,7.5 z"
       inkscape:connector-curvature="0"
       style="fill:#222221" /><path
       id="path7"
       d="m 133.56,122.15 -0.02,0 -126.04,0 c -1.965,0 -3.781,-1.048 -4.763,-2.75 -0.982,-1.702 -0.982,-3.798 0,-5.5 L 65.756,4.75 C 66.738,3.048 68.554,2 70.519,2 c 1.965,0 3.78,1.048 4.763,2.75 l 62.803,108.78 c 0.614,0.887 0.973,1.964 0.973,3.124 0.01,3.04 -2.45,5.5 -5.49,5.5 z"
       inkscape:connector-curvature="0"
       style="fill:#ffffff" /><polygon
       id="polygon9"
       points="70.519,116.65 7.5,116.65 39.009,62.075 70.519,7.5 102.03,62.075 133.54,116.65 "
       style="fill:#f2cb13" /><path
       id="path11"
       d="m 133.56,119.65 c -0.006,-0.001 -0.014,-0.001 -0.02,0 l -126.04,0 c -1.072,0 -2.062,-0.572 -2.598,-1.5 -0.536,-0.928 -0.536,-2.071 0,-3 L 67.921,6 c 0.535,-0.928 1.525,-1.5 2.598,-1.5 1.073,0 2.063,0.572 2.598,1.5 l 62.862,108.88 c 0.363,0.496 0.578,1.108 0.578,1.771 0,1.66 -1.35,3 -3,3 z m -120.86,-6 115.64,0 L 70.519,13.5 12.696,113.65 Z"
       inkscape:connector-curvature="0"
       style="fill:#222221" /><path
       id="path13"
       d="m 70.749,91.65 c -4.694,0 -8.5,3.806 -8.5,8.5 0,4.694 3.806,8.5 8.5,8.5 4.693,0 8.5,-3.806 8.5,-8.5 0,-4.694 -3.807,-8.5 -8.5,-8.5 z m -5,-13 c 0,2.761 2.239,5 5,5 2.76,0 5,-2.239 5,-5 l 2.914,-37.896 c 0.05,-0.362 0.086,-0.728 0.086,-1.104 0,-4.418 -3.582,-8 -8,-8 -4.419,0 -8,3.582 -8,8 0,0.375 0.035,0.742 0.085,1.104 l 2.915,37.896 z"
       inkscape:connector-curvature="0"
       style="fill:#222221" /></g><metadata
     id="metadata11"><rdf:RDF><cc:Work><dc:format>image/svg+xml</dc:format><dc:type
           rdf:resource="http://purl.org/dc/dcmitype/StillImage" /><cc:license
           rdf:resource="http://creativecommons.org/publicdomain/zero/1.0/" /><dc:publisher><cc:Agent
             rdf:about="http://openclipart.org/"><dc:title>Openclipart</dc:title></cc:Agent></dc:publisher><dc:title>Panneau Danger</dc:title></cc:Work><cc:License
         rdf:about="http://creativecommons.org/publicdomain/zero/1.0/"><cc:permits
           rdf:resource="http://creativecommons.org/ns#Reproduction" /><cc:permits
           rdf:resource="http://creativecommons.org/ns#Distribution" /><cc:permits
           rdf:resource="http://creativecommons.org/ns#DerivativeWorks" /></cc:License></rdf:RDF></metadata></svg>