<?xml version="1.0" encoding="UTF-8" standalone="no"?>
<!-- Created with Inkscape (http://www.inkscape.org/) -->

<svg
   xmlns:dc="http://purl.org/dc/elements/1.1/"
   xmlns:cc="http://creativecommons.org/ns#"
   xmlns:rdf="http://www.w3.org/1999/02/22-rdf-syntax-ns#"
   xmlns:svg="http://www.w3.org/2000/svg"
   xmlns="http://www.w3.org/2000/svg"
   xmlns:sodipodi="http://sodipodi.sourceforge.net/DTD/sodipodi-0.dtd"
   xmlns:inkscape="http://www.inkscape.org/namespaces/inkscape"
   id="svg2"
   sodipodi:docname="label.svg"
   inkscape:export-filename="D:\Cliparts\box_label_explorer.png"
   viewBox="0 0 436 262"
   inkscape:export-xdpi="52.900784"
   version="1.1"
   inkscape:export-ydpi="52.900784"
   inkscape:version="0.91 r13725">
  <defs
     id="defs35" />
  <title
     id="title3689">Box Label - Explorer Theme</title>
  <sodipodi:namedview
     id="base"
     inkscape:showpageshadow="false"
     inkscape:zoom="1.5183451"
     borderopacity="1.0"
     inkscape:current-layer="layer1"
     inkscape:cx="217.9995"
     inkscape:cy="131"
     inkscape:window-maximized="1"
     showgrid="false"
     inkscape:snap-global="true"
     showguides="false"
     bordercolor="#666666"
     inkscape:window-x="0"
     inkscape:window-y="1"
     objecttolerance="10000"
     inkscape:window-width="1280"
     inkscape:pageopacity="0.0"
     inkscape:pageshadow="2"
     pagecolor="#ffffff"
     gridtolerance="10"
     inkscape:document-units="px"
     inkscape:window-height="751">
    <inkscape:grid
       id="grid2816"
       enabled="true"
       visible="true"
       snapvisiblegridlinesonly="true"
       type="xygrid"
       empspacing="5" />
  </sodipodi:namedview>
  <g
     id="layer1"
     inkscape:label="Calque 1"
     inkscape:groupmode="layer"
     transform="translate(50.469 568.99)">
    <path
       inkscape:connector-curvature="0"
       d="m 167.53,-568.99 c 36.365,0 66.892,12.744 75.531,30 l 32.469,0 10,0 0,25 90,0 10,0 0,152 -10,0 -90,0 0,25 -10,0 -32.469,0 c -8.6391,17.256 -39.166,30 -75.531,30 -36.365,0 -66.892,-12.744 -75.531,-30 l -32.469,0 -10,0 0,-25 -90,0 -10,0 0,-152 10,0 90,0 0,-25 10,0 32.469,0 c 8.6391,-17.256 39.166,-30 75.531,-30 z"
       style="fill:#d7dbd3"
       id="path5126" />
    <path
       inkscape:connector-curvature="0"
       d="m 167.53,-558.96 c -37.555,0 -68,13.412 -68,29.969 l -40,0 0,25 -10,0 -90,0 0,132 90,0 10,0 0,25 30,0 10,0 c 0,16.557 30.445,29.969 68,29.969 37.555,0 68,-13.412 68,-29.969 l 10,0 30,0 0,-25 10,0 90,0 0,-132 -90,0 -10,0 0,-25 -30,0 -10,0 c 0,-16.557 -30.445,-29.969 -68,-29.969 z"
       style="fill:#feedcf"
       id="rect5034" />
    <path
       inkscape:connector-curvature="0"
       style="fill:#bf8b64"
       d="m 167.531,-547.99 c -31.11,0 -56.67,11.843 -59.69,27 l -40.31,0 0,3 0,22 -100,0 0,3 0,110 0,3 100,0 0,22 0,3 40.31,0 c 3.02,15.16 28.58,27 59.69,27 31.11,0 56.67,-11.84 59.69,-27 l 40.31,0 0,-3 0,-22 100,0 0,-3 0,-110 0,-3 -100,0 0,-22 0,-3 -40.31,0 c -3.02,-15.157 -28.58,-27 -59.69,-27 z m 0,3 c 31.48,0 57,12.088 57,27 l 3,0 37,0 0,25 3,0 97,0 0,110 -97,0 -3,0 0,25 -37,0 -3,0 c 0,14.91 -25.52,27 -57,27 -31.48,0 -57,-12.09 -57,-27 l -40,0 0,-25 -3,0 -97,0 0,-110 97,0 3,0 0,-25 40,0 c 0,-14.912 25.52,-27 57,-27 z"
       id="rect2915-1" />
    <path
       inkscape:connector-curvature="0"
       style="fill:#945d34"
       d="m 167.531,-568.99 c -36.37,0 -66.89,12.744 -75.53,30 l -32.47,0 -10,0 0,25 -90,0 -10,0 0,152 10,0 90,0 0,25 10,0 32.47,0 c 8.64,17.26 39.16,30 75.53,30 36.37,0 66.89,-12.74 75.53,-30 l 32.47,0 10,0 0,-25 90,0 10,0 0,-152 -10,0 -90,0 0,-25 -10,0 -32.47,0 c -8.64,-17.256 -39.16,-30 -75.53,-30 z m 0,10.031 c 37.56,0 68,13.412 68,29.969 l 10,0 30,0 0,25 10,0 90,0 0,132 -90,0 -10,0 0,25 -30,0 -10,0 c 0,16.56 -30.44,29.97 -68,29.97 -37.56,0 -68,-13.41 -68,-29.97 l -10,0 -30,0 0,-25 -10,0 -90,0 0,-132 90,0 10,0 0,-25 40,0 c 0,-16.557 30.44,-29.969 68,-29.969 z"
       id="rect2915-1-0-8" />
    <text
       xml:space="preserve"
       style="font-style:normal;font-variant:normal;font-weight:normal;font-stretch:normal;font-size:98.58743286px;line-height:125%;font-family:Arial;-inkscape-font-specification:Arial;letter-spacing:0px;word-spacing:0px;fill:#000000;fill-opacity:1;stroke:none;stroke-width:1px;stroke-linecap:butt;stroke-linejoin:miter;stroke-opacity:1"
       x="77.825546"
       y="-317.77899"
       id="text3388"
       sodipodi:linespacing="125%"
       transform="scale(0.80022523,1.2496482)"><tspan
         sodipodi:role="line"
         id="tspan3390"
         x="77.825546"
         y="-317.77899">Name</tspan></text>
  </g>
  <metadata
     id="metadata33">
    <rdf:RDF>
      <cc:Work>
        <dc:format>image/svg+xml</dc:format>
        <dc:type
           rdf:resource="http://purl.org/dc/dcmitype/StillImage" />
        <cc:license
           rdf:resource="http://creativecommons.org/licenses/publicdomain/" />
        <dc:publisher>
          <cc:Agent
             rdf:about="http://openclipart.org/">
            <dc:title>Openclipart</dc:title>
          </cc:Agent>
        </dc:publisher>
        <dc:title>box_label_explorer</dc:title>
        <dc:date>2010-03-01T09:04:23</dc:date>
        <dc:description>Label to print and to stick on a box.</dc:description>
        <dc:source>https://openclipart.org/detail/29689/box_label_explorer-by-jean_victor_balin</dc:source>
        <dc:creator>
          <cc:Agent>
            <dc:title>jean_victor_balin</dc:title>
          </cc:Agent>
        </dc:creator>
        <dc:subject>
          <rdf:Bag>
            <rdf:li>box label</rdf:li>
            <rdf:li>explorer</rdf:li>
            <rdf:li>label</rdf:li>
            <rdf:li>spices</rdf:li>
            <rdf:li>sticker</rdf:li>
          </rdf:Bag>
        </dc:subject>
      </cc:Work>
      <cc:License
         rdf:about="http://creativecommons.org/licenses/publicdomain/">
        <cc:permits
           rdf:resource="http://creativecommons.org/ns#Reproduction" />
        <cc:permits
           rdf:resource="http://creativecommons.org/ns#Distribution" />
        <cc:permits
           rdf:resource="http://creativecommons.org/ns#DerivativeWorks" />
      </cc:License>
    </rdf:RDF>
  </metadata>
</svg>
