<?xml version="1.0" encoding="UTF-8" standalone="no"?>
<!-- Created with Inkscape (http://www.inkscape.org/) -->

<svg
   xmlns:dc="http://purl.org/dc/elements/1.1/"
   xmlns:cc="http://creativecommons.org/ns#"
   xmlns:rdf="http://www.w3.org/1999/02/22-rdf-syntax-ns#"
   xmlns:svg="http://www.w3.org/2000/svg"
   xmlns="http://www.w3.org/2000/svg"
   xmlns:sodipodi="http://sodipodi.sourceforge.net/DTD/sodipodi-0.dtd"
   xmlns:inkscape="http://www.inkscape.org/namespaces/inkscape"
   id="svg2"
   sodipodi:modified="true"
   inkscape:export-ydpi="100"
   inkscape:export-filename="/home/marco/subcycle.png"
   viewBox="0 0 543.12397 301.13272"
   sodipodi:version="0.32"
   inkscape:export-xdpi="100"
   version="1.0"
   inkscape:output_extension="org.inkscape.output.svg.inkscape"
   inkscape:version="0.48.5 r10040"
   sodipodi:docname="flat.svg"
   width="100%"
   height="100%">
  <defs
     id="defs30" />
  <sodipodi:namedview
     id="namedview6"
     bordercolor="#666666"
     inkscape:pageshadow="0"
     inkscape:window-y="53"
     pagecolor="#ffffff"
     inkscape:window-height="943"
     inkscape:window-maximized="0"
     inkscape:zoom="2.0271615"
     inkscape:window-x="715"
     showgrid="false"
     borderopacity="1.0"
     inkscape:current-layer="layer1"
     inkscape:cx="271.56199"
     inkscape:cy="150.56637"
     inkscape:window-width="1670"
     inkscape:pageopacity="0.0"
     inkscape:document-units="pt"
     units="pt"
     fit-margin-top="0"
     fit-margin-left="0"
     fit-margin-right="0"
     fit-margin-bottom="0" />
  <g
     id="layer1"
     inkscape:label="Layer 1"
     inkscape:groupmode="layer"
     transform="translate(-1.7098402,-76.198681)">
    <rect
       style="fill:#000000;fill-opacity:1;stroke:#000000;stroke-width:0;stroke-miterlimit:4;stroke-opacity:1;stroke-dasharray:none"
       id="rect3996-9-3"
       width="66.57991"
       height="6.4130588"
       x="-314.14728"
       y="468.09991"
       transform="matrix(0.00683161,-0.99997666,0.99993866,0.01107569,0,0)" />
    <rect
       style="fill:#000000;fill-opacity:1;stroke:#000000;stroke-width:0;stroke-miterlimit:4;stroke-opacity:1;stroke-dasharray:none"
       id="rect3996-6-0"
       width="175.77011"
       height="13.451229"
       x="-130.91333"
       y="362.68887"
       transform="matrix(0.86858509,0.49554005,0.59453973,0.80406624,0,0)" />
    <rect
       style="fill:#000000;fill-opacity:1;stroke:#000000;stroke-width:0;stroke-miterlimit:4;stroke-opacity:1;stroke-dasharray:none"
       id="rect3996-6"
       width="175.77011"
       height="13.451229"
       x="427.70923"
       y="-116.55774"
       transform="matrix(0.86858509,0.49554006,0.59453973,0.80406624,0,0)" />
    <rect
       style="fill:#000000;fill-opacity:1;stroke:#000000;stroke-width:0;stroke-miterlimit:4;stroke-opacity:1;stroke-dasharray:none"
       id="rect3996"
       width="175.77011"
       height="13.451229"
       x="-542.66321"
       y="559.33752"
       transform="matrix(0.86600661,-0.50003255,0.99417479,-0.10777985,0,0)" />
    <rect
       style="fill:#000000;fill-opacity:1;stroke:#000000;stroke-width:0;stroke-miterlimit:4;stroke-opacity:1;stroke-dasharray:none"
       id="rect3996-9"
       width="66.57991"
       height="6.4130588"
       x="-312.87277"
       y="78.099243"
       transform="matrix(0.00683161,-0.99997666,0.99993866,0.01107569,0,0)" />
    <path
       sodipodi:type="arc"
       style="fill:#ff0000;fill-opacity:1;stroke:#000000;stroke-width:0;stroke-miterlimit:4;stroke-opacity:1;stroke-dasharray:none"
       id="path3901"
       sodipodi:cx="111.86661"
       sodipodi:cy="112.14365"
       sodipodi:rx="76.854919"
       sodipodi:ry="35.438656"
       d="m 188.72153,112.14365 a 76.854919,35.438656 0 1 1 -153.709842,0 76.854919,35.438656 0 1 1 153.709842,0 z"
       transform="matrix(1,0,0,-1,160.56529,223.78097)" />
    <path
       sodipodi:type="arc"
       style="fill:#008000;fill-opacity:1;stroke:#000000;stroke-width:0;stroke-miterlimit:4;stroke-opacity:1;stroke-dasharray:none"
       id="path3901-8"
       sodipodi:cx="111.86661"
       sodipodi:cy="112.14365"
       sodipodi:rx="76.854919"
       sodipodi:ry="35.438656"
       d="m 188.72153,112.14365 a 76.854919,35.438656 0 1 1 -153.709842,0 76.854919,35.438656 0 1 1 153.709842,0 z"
       transform="matrix(1,0,0,-1,-29.502128,337.24011)" />
    <path
       sodipodi:type="arc"
       style="fill:#008000;fill-opacity:1;stroke:#000000;stroke-width:0;stroke-miterlimit:4;stroke-opacity:1;stroke-dasharray:none"
       id="path3901-8-8"
       sodipodi:cx="111.86661"
       sodipodi:cy="112.14365"
       sodipodi:rx="76.854919"
       sodipodi:ry="35.438656"
       d="m 188.72153,112.14365 a 76.854919,35.438656 0 1 1 -153.709842,0 76.854919,35.438656 0 1 1 153.709842,0 z"
       transform="matrix(1,0,0,-1,356.11229,337.24011)" />
    <path
       sodipodi:type="arc"
       style="fill:#0000ff;fill-opacity:1;stroke:#000000;stroke-width:0;stroke-miterlimit:4;stroke-opacity:1;stroke-dasharray:none"
       id="path3901-8-1-3"
       sodipodi:cx="111.86661"
       sodipodi:cy="112.14365"
       sodipodi:rx="76.854919"
       sodipodi:ry="35.438656"
       d="m 188.72153,112.14365 a 76.854919,35.438656 0 1 1 -153.709842,0 76.854919,35.438656 0 1 1 153.709842,0 z"
       transform="matrix(1,0,0,-1,-29.502128,454.03638)" />
    <path
       sodipodi:type="arc"
       style="fill:#0000ff;fill-opacity:1;stroke:#000000;stroke-width:0;stroke-miterlimit:4;stroke-opacity:1;stroke-dasharray:none"
       id="path3901-8-1-1"
       sodipodi:cx="111.86661"
       sodipodi:cy="112.14365"
       sodipodi:rx="76.854919"
       sodipodi:ry="35.438656"
       d="m 188.72153,112.14365 c 0,19.57223 -34.40912,35.43865 -76.85492,35.43865 -42.445802,0 -76.854922,-15.86642 -76.854922,-35.43865 0,-19.572233 34.40912,-35.43866 76.854922,-35.43866 42.4458,0 76.85492,15.866427 76.85492,35.43866 z"
       transform="matrix(1,0,0,-1,356.11229,454.03638)" />
    <path
       sodipodi:type="arc"
       style="fill:#0000ff;fill-opacity:1;stroke:#000000;stroke-width:0;stroke-miterlimit:4;stroke-opacity:1;stroke-dasharray:none"
       id="path3901-8-1-1-3"
       sodipodi:cx="111.86661"
       sodipodi:cy="112.14365"
       sodipodi:rx="76.854919"
       sodipodi:ry="35.438656"
       d="m 188.72153,112.14365 a 76.854919,35.438656 0 1 1 -153.709842,0 76.854919,35.438656 0 1 1 153.709842,0 z"
       transform="matrix(1,0,0,-1,161.40521,454.03638)" />
  </g>
  <metadata
     id="metadata29">
    <rdf:RDF>
      <cc:Work>
        <dc:format>image/svg+xml</dc:format>
        <dc:type
           rdf:resource="http://purl.org/dc/dcmitype/StillImage" />
        <cc:license
           rdf:resource="http://creativecommons.org/licenses/publicdomain/" />
        <dc:publisher>
          <cc:Agent
             rdf:about="http://openclipart.org/">
            <dc:title>Openclipart</dc:title>
          </cc:Agent>
        </dc:publisher>
        <dc:title></dc:title>
      </cc:Work>
      <cc:License
         rdf:about="http://creativecommons.org/licenses/publicdomain/">
        <cc:permits
           rdf:resource="http://creativecommons.org/ns#Reproduction" />
        <cc:permits
           rdf:resource="http://creativecommons.org/ns#Distribution" />
        <cc:permits
           rdf:resource="http://creativecommons.org/ns#DerivativeWorks" />
      </cc:License>
    </rdf:RDF>
  </metadata>
</svg>
