<?xml version="1.0" encoding="UTF-8" standalone="no"?>
<!-- Created with Inkscape (http://www.inkscape.org/) -->

<svg
   xmlns:osb="http://www.openswatchbook.org/uri/2009/osb"
   xmlns:dc="http://purl.org/dc/elements/1.1/"
   xmlns:cc="http://creativecommons.org/ns#"
   xmlns:rdf="http://www.w3.org/1999/02/22-rdf-syntax-ns#"
   xmlns:svg="http://www.w3.org/2000/svg"
   xmlns="http://www.w3.org/2000/svg"
   xmlns:xlink="http://www.w3.org/1999/xlink"
   xmlns:sodipodi="http://sodipodi.sourceforge.net/DTD/sodipodi-0.dtd"
   xmlns:inkscape="http://www.inkscape.org/namespaces/inkscape"
   width="1336.7611"
   height="839.47711"
   viewBox="0 0 353.68472 222.11165"
   version="1.1"
   id="svg3752"
   inkscape:version="0.92.1 r15371"
   sodipodi:docname="drawing.svg">
  <title
     id="title9418">jb_pg_geo_mg</title>
  <defs
     id="defs3746">
    <linearGradient
       inkscape:collect="always"
       id="linearGradient8959">
      <stop
         style="stop-color:#b3b3b3;stop-opacity:1;"
         offset="0"
         id="stop8955" />
      <stop
         style="stop-color:#b3b3b3;stop-opacity:0;"
         offset="1"
         id="stop8957" />
    </linearGradient>
    <linearGradient
       inkscape:collect="always"
       id="linearGradient8951">
      <stop
         style="stop-color:#b3b3b3;stop-opacity:1;"
         offset="0"
         id="stop8947" />
      <stop
         style="stop-color:#b3b3b3;stop-opacity:0;"
         offset="1"
         id="stop8949" />
    </linearGradient>
    <linearGradient
       inkscape:collect="always"
       id="linearGradient8943">
      <stop
         style="stop-color:#b3b3b3;stop-opacity:1;"
         offset="0"
         id="stop8939" />
      <stop
         style="stop-color:#b3b3b3;stop-opacity:0;"
         offset="1"
         id="stop8941" />
    </linearGradient>
    <linearGradient
       inkscape:collect="always"
       id="linearGradient8921">
      <stop
         style="stop-color:#000000;stop-opacity:1;"
         offset="0"
         id="stop8917" />
      <stop
         style="stop-color:#000000;stop-opacity:0;"
         offset="1"
         id="stop8919" />
    </linearGradient>
    <linearGradient
       id="linearGradient8164"
       inkscape:collect="always">
      <stop
         id="stop8160"
         offset="0"
         style="stop-color:#000000;stop-opacity:0" />
      <stop
         id="stop8162"
         offset="1"
         style="stop-color:#000000;stop-opacity:0;" />
    </linearGradient>
    <linearGradient
       inkscape:collect="always"
       id="linearGradient4847"
       osb:paint="gradient">
      <stop
         style="stop-color:#000000;stop-opacity:1;"
         offset="0"
         id="stop4843" />
      <stop
         style="stop-color:#000000;stop-opacity:0;"
         offset="1"
         id="stop4845" />
    </linearGradient>
    <linearGradient
       inkscape:collect="always"
       id="linearGradient4839"
       osb:paint="gradient">
      <stop
         style="stop-color:#000000;stop-opacity:1;"
         offset="0"
         id="stop4835" />
      <stop
         style="stop-color:#000000;stop-opacity:0;"
         offset="1"
         id="stop4837" />
    </linearGradient>
    <linearGradient
       inkscape:collect="always"
       id="linearGradient4831"
       osb:paint="gradient">
      <stop
         style="stop-color:#000000;stop-opacity:1;"
         offset="0"
         id="stop4827" />
      <stop
         style="stop-color:#000000;stop-opacity:0;"
         offset="1"
         id="stop4829" />
    </linearGradient>
    <linearGradient
       inkscape:collect="always"
       id="linearGradient4823"
       osb:paint="gradient">
      <stop
         style="stop-color:#000000;stop-opacity:1;"
         offset="0"
         id="stop4819" />
      <stop
         style="stop-color:#000000;stop-opacity:0;"
         offset="1"
         id="stop4821" />
    </linearGradient>
    <linearGradient
       inkscape:collect="always"
       id="linearGradient4815"
       osb:paint="gradient">
      <stop
         style="stop-color:#000000;stop-opacity:1;"
         offset="0"
         id="stop4811" />
      <stop
         style="stop-color:#000000;stop-opacity:0;"
         offset="1"
         id="stop4813" />
    </linearGradient>
    <linearGradient
       inkscape:collect="always"
       id="linearGradient4807"
       osb:paint="gradient">
      <stop
         style="stop-color:#000000;stop-opacity:1;"
         offset="0"
         id="stop4803" />
      <stop
         style="stop-color:#000000;stop-opacity:0;"
         offset="1"
         id="stop4805" />
    </linearGradient>
    <linearGradient
       inkscape:collect="always"
       id="linearGradient4799"
       osb:paint="gradient">
      <stop
         style="stop-color:#000000;stop-opacity:1;"
         offset="0"
         id="stop4795" />
      <stop
         style="stop-color:#000000;stop-opacity:0;"
         offset="1"
         id="stop4797" />
    </linearGradient>
    <linearGradient
       inkscape:collect="always"
       id="linearGradient4791"
       osb:paint="gradient">
      <stop
         style="stop-color:#000000;stop-opacity:1;"
         offset="0"
         id="stop4787" />
      <stop
         style="stop-color:#000000;stop-opacity:0;"
         offset="1"
         id="stop4789" />
    </linearGradient>
    <linearGradient
       inkscape:collect="always"
       id="linearGradient4783"
       osb:paint="gradient">
      <stop
         style="stop-color:#000000;stop-opacity:1;"
         offset="0"
         id="stop4779" />
      <stop
         style="stop-color:#000000;stop-opacity:0;"
         offset="1"
         id="stop4781" />
    </linearGradient>
    <linearGradient
       inkscape:collect="always"
       id="linearGradient4775"
       osb:paint="gradient">
      <stop
         style="stop-color:#000000;stop-opacity:1;"
         offset="0"
         id="stop4771" />
      <stop
         style="stop-color:#000000;stop-opacity:0;"
         offset="1"
         id="stop4773" />
    </linearGradient>
    <linearGradient
       inkscape:collect="always"
       id="linearGradient4767"
       osb:paint="gradient">
      <stop
         style="stop-color:#000000;stop-opacity:1;"
         offset="0"
         id="stop4763" />
      <stop
         style="stop-color:#000000;stop-opacity:0;"
         offset="1"
         id="stop4765" />
    </linearGradient>
    <linearGradient
       inkscape:collect="always"
       id="linearGradient4759"
       osb:paint="gradient">
      <stop
         style="stop-color:#000000;stop-opacity:1;"
         offset="0"
         id="stop4755" />
      <stop
         style="stop-color:#000000;stop-opacity:0;"
         offset="1"
         id="stop4757" />
    </linearGradient>
    <radialGradient
       gradientUnits="userSpaceOnUse"
       fy="94.282302"
       fx="357.72984"
       gradientTransform="scale(0.91894112,1.088209)"
       id="grad35"
       cx="357.72984"
       cy="94.282302"
       r="11.051278">
      <stop
         offset="0%"
         stop-color="#ffffff"
         stop-opacity="1.0000"
         id="stop386" />
      <stop
         offset="100%"
         stop-color="#da8c36"
         stop-opacity="1.0000"
         id="stop388" />
    </radialGradient>
    <linearGradient
       xlink:href="#grad33"
       id="grad34"
       x1="235.93478"
       y1="148.2195"
       x2="235.93478"
       y2="152.19518"
       gradientTransform="matrix(0.51699038,0,0,0.28601922,12.063747,89.456528)"
       gradientUnits="userSpaceOnUse" />
    <linearGradient
       id="grad33"
       osb:paint="gradient">
      <stop
         offset="0%"
         stop-color="#658eb8"
         stop-opacity="1.0000"
         id="stop376" />
      <stop
         offset="100%"
         stop-color="#7bb4d2"
         stop-opacity="1.0000"
         id="stop378" />
    </linearGradient>
    <linearGradient
       xlink:href="#grad31"
       id="grad32"
       x1="537.44322"
       y1="70.950737"
       x2="537.44322"
       y2="79.8996"
       gradientTransform="matrix(0.23137411,0,0,0.63909126,12.063747,89.456528)"
       gradientUnits="userSpaceOnUse" />
    <linearGradient
       id="grad31"
       osb:paint="gradient">
      <stop
         offset="0%"
         stop-color="#7bb4d2"
         stop-opacity="1.0000"
         id="stop366" />
      <stop
         offset="100%"
         stop-color="#b7e4ee"
         stop-opacity="1.0000"
         id="stop368" />
    </linearGradient>
    <linearGradient
       xlink:href="#grad29"
       id="grad30"
       x1="254.36893"
       y1="135.84127"
       x2="254.36893"
       y2="148.18057"
       gradientTransform="matrix(0.47278501,0,0,0.31276199,12.063747,89.456528)"
       gradientUnits="userSpaceOnUse" />
    <linearGradient
       id="grad29"
       osb:paint="gradient">
      <stop
         offset="0%"
         stop-color="#b7e4ee"
         stop-opacity="1.0000"
         id="stop356" />
      <stop
         offset="100%"
         stop-color="#f7f3e8"
         stop-opacity="1.0000"
         id="stop358" />
    </linearGradient>
    <linearGradient
       xlink:href="#grad27"
       id="grad28"
       x1="386.00955"
       y1="90.337128"
       x2="386.00955"
       y2="107.09931"
       gradientTransform="matrix(0.31004799,0,0,0.47692354,12.063747,89.456528)"
       gradientUnits="userSpaceOnUse" />
    <linearGradient
       id="grad27"
       osb:paint="gradient">
      <stop
         offset="0%"
         stop-color="#7bb4d2"
         stop-opacity="1.0000"
         id="stop346" />
      <stop
         offset="100%"
         stop-color="#e1f4f9"
         stop-opacity="1.0000"
         id="stop348" />
    </linearGradient>
    <radialGradient
       gradientUnits="userSpaceOnUse"
       fy="94.282302"
       fx="329.96767"
       gradientTransform="scale(0.91894112,1.088209)"
       id="grad26"
       cx="329.96767"
       cy="94.282302"
       r="11.051278">
      <stop
         offset="0%"
         stop-color="#ffffff"
         stop-opacity="1.0000"
         id="stop328" />
      <stop
         offset="100%"
         stop-color="#da8c36"
         stop-opacity="1.0000"
         id="stop330" />
    </radialGradient>
    <linearGradient
       xlink:href="#grad33"
       id="grad25"
       x1="217.47946"
       y1="148.2195"
       x2="217.47946"
       y2="152.19518"
       gradientTransform="matrix(0.51699038,0,0,0.28601922,12.063747,89.456528)"
       gradientUnits="userSpaceOnUse" />
    <linearGradient
       xlink:href="#grad31"
       id="grad23"
       x1="496.21049"
       y1="70.950096"
       x2="496.21049"
       y2="79.898879"
       gradientTransform="matrix(0.23137204,0,0,0.63909705,12.063747,89.456528)"
       gradientUnits="userSpaceOnUse" />
    <linearGradient
       xlink:href="#grad29"
       id="grad21"
       x1="234.1872"
       y1="135.8417"
       x2="234.1872"
       y2="148.18104"
       gradientTransform="matrix(0.4727865,0,0,0.31276099,12.063747,89.456528)"
       gradientUnits="userSpaceOnUse" />
    <linearGradient
       xlink:href="#grad27"
       id="grad19"
       x1="355.23528"
       y1="90.337437"
       x2="355.23528"
       y2="107.09958"
       gradientTransform="matrix(0.31004877,0,0,0.47692231,12.063747,89.456528)"
       gradientUnits="userSpaceOnUse" />
    <radialGradient
       gradientUnits="userSpaceOnUse"
       fy="91.677359"
       fx="305.29041"
       gradientTransform="scale(0.91894045,1.0882098)"
       id="grad17"
       cx="305.29041"
       cy="91.677359"
       r="11.051178">
      <stop
         offset="0%"
         stop-color="#ffffff"
         stop-opacity="1.0000"
         id="stop270" />
      <stop
         offset="100%"
         stop-color="#da8c36"
         stop-opacity="1.0000"
         id="stop272" />
    </radialGradient>
    <linearGradient
       xlink:href="#grad33"
       id="grad16"
       x1="201.07287"
       y1="144.30239"
       x2="201.07287"
       y2="148.27811"
       gradientTransform="matrix(0.51699505,0,0,0.28601662,12.063747,89.456528)"
       gradientUnits="userSpaceOnUse" />
    <linearGradient
       xlink:href="#grad31"
       id="grad14"
       x1="459.55254"
       y1="69.196719"
       x2="459.55254"
       y2="78.145619"
       gradientTransform="matrix(0.23137316,0,0,0.63909392,12.063747,89.456528)"
       gradientUnits="userSpaceOnUse" />
    <linearGradient
       xlink:href="#grad29"
       id="grad12"
       x1="216.24777"
       y1="132.25889"
       x2="216.24777"
       y2="144.59818"
       gradientTransform="matrix(0.47278864,0,0,0.3127596,12.063747,89.456528)"
       gradientUnits="userSpaceOnUse" />
    <linearGradient
       xlink:href="#grad27"
       id="grad10"
       x1="327.88201"
       y1="87.987105"
       x2="327.88201"
       y2="104.74929"
       gradientTransform="matrix(0.31004798,0,0,0.47692354,12.063747,89.456528)"
       gradientUnits="userSpaceOnUse" />
    <radialGradient
       id="radialGradient482"
       cx="0.5"
       cy="0.5"
       r="1">
      <stop
         offset="0%"
         stop-color="#ffffff"
         stop-opacity="1.0000"
         id="stop478" />
      <stop
         offset="100%"
         stop-color="#da8c36"
         stop-opacity="1.0000"
         id="stop480" />
    </radialGradient>
    <radialGradient
       id="radialGradient499"
       cx="0.5"
       cy="0.5"
       r="1">
      <stop
         offset="0%"
         stop-color="#ffffff"
         stop-opacity="1.0000"
         id="stop495" />
      <stop
         offset="100%"
         stop-color="#da8c36"
         stop-opacity="1.0000"
         id="stop497" />
    </radialGradient>
    <radialGradient
       id="radialGradient516"
       cx="0.5"
       cy="0.5"
       r="1">
      <stop
         offset="0%"
         stop-color="#ffffff"
         stop-opacity="1.0000"
         id="stop512" />
      <stop
         offset="100%"
         stop-color="#da8c36"
         stop-opacity="1.0000"
         id="stop514" />
    </radialGradient>
    <linearGradient
       inkscape:collect="always"
       xlink:href="#linearGradient8164"
       id="linearGradient7984"
       x1="280.54645"
       y1="93.751213"
       x2="274.15192"
       y2="120.24693"
       gradientUnits="userSpaceOnUse" />
    <linearGradient
       inkscape:collect="always"
       xlink:href="#linearGradient8164"
       id="linearGradient8000"
       x1="280.54645"
       y1="93.751213"
       x2="274.15192"
       y2="120.24693"
       gradientUnits="userSpaceOnUse" />
    <linearGradient
       inkscape:collect="always"
       xlink:href="#linearGradient8921"
       id="linearGradient8927"
       x1="274.94558"
       y1="99.76336"
       x2="286.14178"
       y2="99.76336"
       gradientUnits="userSpaceOnUse" />
    <linearGradient
       inkscape:collect="always"
       xlink:href="#linearGradient8943"
       id="linearGradient8945"
       x1="119.87677"
       y1="126.32571"
       x2="114.49114"
       y2="137.33606"
       gradientUnits="userSpaceOnUse"
       gradientTransform="matrix(1.4178017,0,0,1.6154629,-10.865979,-100.78262)" />
    <linearGradient
       inkscape:collect="always"
       xlink:href="#linearGradient8951"
       id="linearGradient8953"
       x1="129.01228"
       y1="127.54409"
       x2="122.97208"
       y2="138.45682"
       gradientUnits="userSpaceOnUse"
       gradientTransform="matrix(1.4178017,0,0,1.6154629,-8.484729,-102.6347)" />
    <linearGradient
       inkscape:collect="always"
       xlink:href="#linearGradient8959"
       id="linearGradient8961"
       x1="138.68715"
       y1="127.67772"
       x2="132.51347"
       y2="138.45682"
       gradientUnits="userSpaceOnUse"
       gradientTransform="matrix(1.4178017,0,0,1.6154629,-8.484729,-102.6347)" />
    <linearGradient
       inkscape:collect="always"
       xlink:href="#linearGradient8959"
       id="linearGradient8975"
       x1="67.268745"
       y1="162.4594"
       x2="67.404167"
       y2="187.06564"
       gradientUnits="userSpaceOnUse"
       gradientTransform="matrix(0.99991913,0,0,1.0320007,43.929684,-23.18837)" />
    <linearGradient
       inkscape:collect="always"
       xlink:href="#linearGradient8959"
       id="linearGradient8975-6"
       x1="67.268745"
       y1="162.4594"
       x2="67.404167"
       y2="187.06564"
       gradientUnits="userSpaceOnUse"
       gradientTransform="matrix(0.99991912,0,0,1.0320007,152.40886,-23.188373)" />
    <linearGradient
       inkscape:collect="always"
       xlink:href="#linearGradient8959"
       id="linearGradient8975-5"
       x1="67.268745"
       y1="162.4594"
       x2="67.404167"
       y2="187.06564"
       gradientUnits="userSpaceOnUse"
       gradientTransform="matrix(0.99991912,0,0,1.0320007,107.4297,37.665813)" />
    <linearGradient
       inkscape:collect="always"
       xlink:href="#linearGradient8959"
       id="linearGradient8975-3"
       x1="67.268745"
       y1="162.4594"
       x2="67.404167"
       y2="187.06564"
       gradientUnits="userSpaceOnUse"
       gradientTransform="matrix(0.99991912,0,0,1.0320007,221.20053,37.66579)" />
    <linearGradient
       inkscape:collect="always"
       xlink:href="#linearGradient8959"
       id="linearGradient8975-0"
       x1="67.268745"
       y1="162.4594"
       x2="67.404167"
       y2="187.06564"
       gradientUnits="userSpaceOnUse"
       gradientTransform="matrix(0.99991912,0,0,1.0320007,-6.3411519,37.665793)" />
    <marker
       id="endMarker6"
       markerUnits="strokeWidth"
       orient="auto"
       markerWidth="8"
       markerHeight="6"
       viewBox="0 0 10 10"
       refX="1"
       refY="5">
      <polyline
         points="0,0 10,5 0,10 1,5"
         fill="solid"
         id="polyline221" />
    </marker>
    <marker
       id="endMarker6-3"
       markerUnits="strokeWidth"
       orient="auto"
       markerWidth="8"
       markerHeight="6"
       viewBox="0 0 10 10"
       refX="1"
       refY="5">
      <polyline
         points="0,0 10,5 0,10 1,5"
         fill="solid"
         id="polyline221-7" />
    </marker>
    <marker
       id="endMarker6-5"
       markerUnits="strokeWidth"
       orient="auto"
       markerWidth="8"
       markerHeight="6"
       viewBox="0 0 10 10"
       refX="1"
       refY="5">
      <polyline
         points="0,0 10,5 0,10 1,5"
         fill="solid"
         id="polyline221-9" />
    </marker>
    <marker
       id="endMarker6-30"
       markerUnits="strokeWidth"
       orient="auto"
       markerWidth="8"
       markerHeight="6"
       viewBox="0 0 10 10"
       refX="1"
       refY="5">
      <polyline
         points="0,0 10,5 0,10 1,5"
         fill="solid"
         id="polyline221-1" />
    </marker>
    <marker
       id="endMarker6-9"
       markerUnits="strokeWidth"
       orient="auto"
       markerWidth="8"
       markerHeight="6"
       viewBox="0 0 10 10"
       refX="1"
       refY="5">
      <polyline
         points="0,0 10,5 0,10 1,5"
         fill="solid"
         id="polyline221-3" />
    </marker>
    <marker
       id="endMarker6-302"
       markerUnits="strokeWidth"
       orient="auto"
       markerWidth="8"
       markerHeight="6"
       viewBox="0 0 10 10"
       refX="1"
       refY="5">
      <polyline
         points="0,0 10,5 0,10 1,5"
         fill="solid"
         id="polyline221-2" />
    </marker>
    <marker
       id="endMarker6-58"
       markerUnits="strokeWidth"
       orient="auto"
       markerWidth="8"
       markerHeight="6"
       viewBox="0 0 10 10"
       refX="1"
       refY="5">
      <polyline
         points="0,0 10,5 0,10 1,5"
         fill="solid"
         id="polyline221-5" />
    </marker>
  </defs>
  <sodipodi:namedview
     id="base"
     pagecolor="#ffffff"
     bordercolor="#666666"
     borderopacity="1.0"
     inkscape:pageopacity="0.0"
     inkscape:pageshadow="2"
     inkscape:zoom="1"
     inkscape:cx="675.63484"
     inkscape:cy="432.62305"
     inkscape:document-units="mm"
     inkscape:current-layer="layer1"
     showgrid="false"
     units="px"
     inkscape:snap-grids="true"
     inkscape:window-width="1920"
     inkscape:window-height="1017"
     inkscape:window-x="1912"
     inkscape:window-y="-8"
     inkscape:window-maximized="1"
     inkscape:measure-start="556.279,667.895"
     inkscape:measure-end="729.705,666.803">
    <inkscape:grid
       type="xygrid"
       id="grid9109" />
  </sodipodi:namedview>
  <metadata
     id="metadata3749">
    <rdf:RDF>
      <cc:Work
         rdf:about="">
        <dc:format>image/svg+xml</dc:format>
        <dc:type
           rdf:resource="http://purl.org/dc/dcmitype/StillImage" />
        <dc:title>jb_pg_geo_mg</dc:title>
      </cc:Work>
    </rdf:RDF>
  </metadata>
  <g
     inkscape:label="Layer 1"
     inkscape:groupmode="layer"
     id="layer1"
     transform="translate(0,-74.888358)">
    <path
       inkscape:connector-curvature="0"
       d="m 151.14892,112.50238 -0.0659,0.0449 a 1.6796647,2.0232786 0 0 0 -0.62331,1.61017 l -0.0793,2.15976 -0.0568,1.55677 -0.0631,1.72677 a 1.2069491,1.4538582 0 0 0 1.19926,1.47794 5.4731076,6.5927571 0 0 0 2.34538,2.16514 42.378062,51.047466 0 0 0 1.96542,0.77623 2.1871644,2.6345991 0 0 0 1.85818,0.83948 3.0128658,3.6488253 0 0 0 1.34954,-0.61477 1.5106749,1.8295543 0 0 0 0.83726,-1.40487 78.044516,94.519438 0 0 0 -0.15231,-3.73301 155.72406,188.59695 0 0 0 -0.0888,-1.55841 7.1509165,8.660427 0 0 0 -0.22013,-1.83389 5.7940133,7.0170602 0 0 0 -2.93229,-4.00735 l -0.006,-0.63106 a 3.4768854,4.1881618 0 0 0 1.14848,-3.1651 3.0233116,3.6417993 0 0 0 -2.67838,-3.8584 2.9851868,3.5958751 0 0 0 -2.67793,3.8584 3.341354,4.0249046 0 0 0 1.09753,3.13029 l -2.10107,1.42275 z"
       style="fill:none;fill-opacity:1;fill-rule:evenodd;stroke:#154f00;stroke-width:0.60536349;stroke-linejoin:miter;stroke-miterlimit:3.79999995;stroke-dasharray:none;stroke-opacity:1;paint-order:markers stroke fill"
       id="path228" />
    <path
       inkscape:connector-curvature="0"
       d="m 150.49094,115.87657 0.0792,-2.15979 a 2.023053,2.4369149 0 0 1 3.52371,-1.37988 6.8854216,8.2939925 0 0 1 3.37581,9.46693 l 0.26947,2.61507 a 2.1871644,2.6345991 0 0 1 -1.85821,-0.8394 42.378062,51.047466 0 0 1 -1.9654,-0.77633 5.4731076,6.5927571 0 0 1 -2.34539,-2.16512 1.2069491,1.4538582 0 0 1 -1.19926,-1.47789 l 0.0631,-1.72683 z"
       style="fill:none;fill-opacity:1;fill-rule:evenodd;stroke:#154f00;stroke-width:0.60536349;stroke-linejoin:miter;stroke-miterlimit:3.79999995;stroke-dasharray:none;stroke-opacity:1;paint-order:markers stroke fill"
       id="path238" />
    <path
       inkscape:connector-curvature="0"
       d="m 156.99021,116.78955 2.4744,-1.51563 a 5.7940133,7.0170602 0 0 0 -6.03972,-4.68534 l -2.23155,1.51806 a 5.6940088,6.8960223 0 0 1 5.79687,4.68291 z"
       style="fill:none;fill-opacity:1;fill-rule:evenodd;stroke:#154f00;stroke-width:0.60536349;stroke-linejoin:miter;stroke-miterlimit:3.79999995;stroke-dasharray:none;stroke-opacity:1;paint-order:markers stroke fill"
       id="path248" />
    <path
       inkscape:connector-curvature="0"
       d="m 156.99021,116.78955 a 2.0164779,2.4421523 0 0 1 2.4744,-1.51563 7.1509165,8.660427 0 0 1 0.22019,1.83389 155.72406,188.59695 0 0 1 0.0887,1.55844 78.044516,94.519438 0 0 1 0.15232,3.73301 1.5106749,1.8295543 0 0 1 -0.83731,1.40487 2.7550064,3.3365542 0 0 1 -1.73141,0.60231 z"
       style="fill:none;fill-opacity:1;fill-rule:evenodd;stroke:#154f00;stroke-width:0.60536349;stroke-linejoin:miter;stroke-miterlimit:3.79999995;stroke-dasharray:none;stroke-opacity:1;paint-order:markers stroke fill"
       id="path258" />
    <path
       inkscape:connector-curvature="0"
       d="m 153.62374,110.68483 0.0128,0.80251 a 1.0670699,1.2853635 0 0 0 1.25599,0.70706 2.732524,3.2915243 0 0 0 1.64604,-0.27349 l -0.0128,-1.51499 a 2.4727027,2.9785508 0 0 1 -2.85272,0.24724 z"
       style="fill:none;fill-opacity:1;fill-rule:evenodd;stroke:#154f00;stroke-width:0.60536349;stroke-linejoin:miter;stroke-miterlimit:3.79999995;stroke-dasharray:none;stroke-opacity:1;paint-order:markers stroke fill"
       id="path268" />
    <g
       transform="matrix(0.5302474,0,0,0.63872165,6.238024,43.731095)"
       id="Layer1008"
       style="fill:none;fill-opacity:1;stroke:#154f00;stroke-width:1.04021025;stroke-linejoin:miter;stroke-miterlimit:3.79999995;stroke-dasharray:none;stroke-opacity:1;paint-order:markers stroke fill">
      <defs
         id="defs275"
         style="fill:url(#linearGradient8927);fill-opacity:1">
        <radialGradient
           id="radialGradient3908"
           cx="0.5"
           cy="0.5"
           r="1"
           style="fill:url(#linearGradient8927);fill-opacity:1">
          <stop
             offset="0%"
             stop-color="#ffffff"
             stop-opacity="1.0000"
             id="stop3904"
             style="fill-opacity:1;fill:url(#linearGradient8927)" />
          <stop
             offset="100%"
             stop-color="#da8c36"
             stop-opacity="1.0000"
             id="stop3906"
             style="fill-opacity:1;fill:url(#linearGradient8927)" />
        </radialGradient>
      </defs>
      <path
         inkscape:connector-curvature="0"
         d="m 285.5975,99.792 a 5.4892,5.4892 0 0 1 -5.0511,5.9852 5.4257,5.4257 0 0 1 -5.0503,-5.9852 5.6298,5.6298 0 0 1 5.0503,-6.0408 5.7017,5.7017 0 0 1 5.0511,6.0408 z"
         style="fill:none;fill-opacity:1;fill-rule:evenodd;stroke:#154f00;stroke-width:1.04021025;stroke-linecap:butt;stroke-linejoin:miter;stroke-miterlimit:3.79999995;stroke-dasharray:none;stroke-opacity:1;paint-order:markers stroke fill"
         id="path277" />
      <path
         inkscape:connector-curvature="0"
         d="m 285.5975,99.792 a 5.4892,5.4892 0 0 1 -5.0511,5.9852 5.4257,5.4257 0 0 1 -5.0503,-5.9852 5.6298,5.6298 0 0 1 5.0503,-6.0408 5.7017,5.7017 0 0 1 5.0511,6.0408 z"
         style="fill:none;fill-opacity:1;stroke:#154f00;stroke-width:1.04021025;stroke-linecap:butt;stroke-linejoin:miter;stroke-miterlimit:3.79999995;stroke-dasharray:none;stroke-opacity:1;paint-order:markers stroke fill"
         id="path279" />
    </g>
    <path
       inkscape:connector-curvature="0"
       d="m 151.60636,120.5354 v -4.72033 m 4.28254,7.66093 v -4.72034"
       style="fill:none;fill-opacity:1;stroke:#154f00;stroke-width:0.60536349;stroke-linecap:round;stroke-linejoin:miter;stroke-miterlimit:3.79999995;stroke-dasharray:none;stroke-opacity:1;paint-order:markers stroke fill"
       id="path282" />
    <path
       inkscape:connector-curvature="0"
       d="m 158.62455,124.1038 a 1.8917637,2.2787673 0 0 0 1.3013,-1.70454 106.32563,128.07698 0 0 0 -0.28004,-5.8993 5.4347176,6.5465138 0 0 0 -2.02614,-4.39747 3.4093847,4.1068525 0 0 0 -1.07071,-0.826 l -0.022,-0.63489 a 3.496027,4.2112196 0 0 0 1.14839,-3.17119 2.9934058,3.6057755 0 0 0 -2.67833,-3.85839 2.9932996,3.6056477 0 0 0 -2.67789,3.85839 3.4347306,4.1373834 0 0 0 1.10576,3.11817 l -2.23153,1.51806 a 1.6883077,2.0336898 0 0 0 -0.62335,1.61014 l -0.19922,5.44338 a 1.086742,1.30906 0 0 0 0.19839,0.85576 1.3291181,1.6010197 0 0 0 1.00087,0.62213 7.128593,8.5869102 0 0 0 4.3108,2.94145 2.2562557,2.7178245 0 0 0 2.74376,0.5243 z"
       style="fill:url(#linearGradient8945);fill-opacity:1;stroke:#154f00;stroke-width:0.60536349;stroke-linecap:round;stroke-linejoin:miter;stroke-miterlimit:3.79999995;stroke-dasharray:none;stroke-opacity:1;paint-order:normal"
       id="path284" />
    <path
       inkscape:connector-curvature="0"
       d="m 165.55469,112.46083 -0.0659,0.0449 a 1.6796647,2.0232786 0 0 0 -0.62332,1.61017 l -0.0793,2.15976 -0.0569,1.55684 -0.0634,1.72678 a 1.2069491,1.4538582 0 0 0 1.19933,1.47786 5.4731076,6.5927571 0 0 0 2.34534,2.16512 42.378062,51.047466 0 0 0 1.96547,0.77633 2.1871644,2.6345991 0 0 0 1.85814,0.8394 3.0128658,3.6488253 0 0 0 1.34958,-0.61477 1.5106749,1.8295543 0 0 0 0.83726,-1.40487 78.044516,94.519438 0 0 0 -0.15232,-3.73295 155.72406,188.59695 0 0 0 -0.0887,-1.55847 7.1509165,8.660427 0 0 0 -0.22015,-1.83384 5.7940133,7.0170602 0 0 0 -2.93235,-4.0074 l -0.006,-0.631 a 3.4768854,4.1881618 0 0 0 1.14842,-3.16517 3.0233116,3.6417993 0 0 0 -2.67836,-3.85841 2.9851868,3.5958751 0 0 0 -2.67788,3.85841 3.341354,4.0249046 0 0 0 1.09749,3.13038 l -2.10111,1.42275 z"
       style="fill:none;fill-opacity:1;fill-rule:evenodd;stroke:#154f00;stroke-width:0.58196259;stroke-opacity:1"
       id="path286" />
    <path
       inkscape:connector-curvature="0"
       d="m 164.8967,115.83507 0.0793,-2.15984 a 2.023053,2.4369149 0 0 1 3.52362,-1.37983 6.8854216,8.2939925 0 0 1 3.37583,9.46695 l 0.26952,2.61506 a 2.1871644,2.6345991 0 0 1 -1.8582,-0.83949 42.378062,51.047466 0 0 1 -1.96541,-0.7763 5.4731076,6.5927571 0 0 1 -2.34538,-2.16507 1.2069491,1.4538582 0 0 1 -1.19925,-1.47794 l 0.0631,-1.72678 z"
       style="fill:none;fill-opacity:1;fill-rule:evenodd;stroke:#154f00;stroke-width:0.58196259;stroke-opacity:1"
       id="path296" />
    <path
       inkscape:connector-curvature="0"
       d="m 171.39601,116.74806 2.47433,-1.51562 a 5.7940133,7.0170602 0 0 0 -6.03968,-4.68541 l -2.23159,1.51803 a 5.6940088,6.8960223 0 0 1 5.79694,4.683 z"
       style="fill:none;fill-opacity:1;fill-rule:evenodd;stroke:#154f00;stroke-width:0.58196259;stroke-opacity:1"
       id="path306" />
    <path
       inkscape:connector-curvature="0"
       d="m 171.39601,116.74806 a 2.0164779,2.4421523 0 0 1 2.47433,-1.51562 7.1509165,8.660427 0 0 1 0.22017,1.8339 155.72406,188.59695 0 0 1 0.0887,1.55842 78.044516,94.519438 0 0 1 0.1523,3.73295 1.5106749,1.8295543 0 0 1 -0.83726,1.4049 2.7550064,3.3365542 0 0 1 -1.73141,0.60226 z"
       style="fill:none;fill-opacity:1;fill-rule:evenodd;stroke:#154f00;stroke-width:0.58196259;stroke-opacity:1"
       id="path316" />
    <path
       inkscape:connector-curvature="0"
       d="m 168.02951,110.64328 0.0128,0.80248 a 1.0670699,1.2853635 0 0 0 1.256,0.70709 2.732524,3.2915243 0 0 0 1.64604,-0.27352 l -0.0128,-1.51498 a 2.4727027,2.9785508 0 0 1 -2.85277,0.24733 z"
       style="fill:none;fill-opacity:1;fill-rule:evenodd;stroke:#154f00;stroke-width:0.58196259;stroke-opacity:1"
       id="path326" />
    <g
       transform="matrix(0.5302474,0,0,0.63872165,8.619274,41.879012)"
       id="Layer1009"
       style="fill:none;fill-opacity:1;stroke:#154f00;stroke-opacity:1">
      <defs
         id="defs333"
         style="fill:url(#linearGradient8000);fill-opacity:1">
        <radialGradient
           id="radialGradient3925"
           cx="0.5"
           cy="0.5"
           r="1"
           style="fill:url(#linearGradient8000);fill-opacity:1">
          <stop
             offset="0%"
             stop-color="#ffffff"
             stop-opacity="1.0000"
             id="stop3921"
             style="fill-opacity:1.0;fill:url(#linearGradient8000)" />
          <stop
             offset="100%"
             stop-color="#da8c36"
             stop-opacity="1.0000"
             id="stop3923"
             style="fill-opacity:1.0;fill:url(#linearGradient8000)" />
        </radialGradient>
      </defs>
      <path
         inkscape:connector-curvature="0"
         d="m 308.2747,102.6267 a 5.4892,5.4892 0 0 1 -5.0512,5.9852 5.4257,5.4257 0 0 1 -5.0503,-5.9852 5.6298,5.6298 0 0 1 5.0503,-6.0409 5.7017,5.7017 0 0 1 5.0512,6.0409 z"
         style="fill:none;fill-opacity:1;fill-rule:evenodd;stroke:#154f00;stroke-width:0.375;stroke-linecap:butt;stroke-linejoin:miter;stroke-opacity:1"
         id="path335" />
      <path
         inkscape:connector-curvature="0"
         d="m 308.2747,102.6267 a 5.4892,5.4892 0 0 1 -5.0512,5.9852 5.4257,5.4257 0 0 1 -5.0503,-5.9852 5.6298,5.6298 0 0 1 5.0503,-6.0409 5.7017,5.7017 0 0 1 5.0512,6.0409 z"
         style="fill:none;fill-opacity:1;stroke:#154f00;stroke-width:0.375;stroke-linecap:butt;stroke-linejoin:miter;stroke-dasharray:none;stroke-opacity:1"
         id="path337" />
    </g>
    <path
       inkscape:connector-curvature="0"
       d="m 166.01209,120.49385 v -4.72035 m 4.28255,7.66103 v -4.72035"
       style="fill:none;fill-opacity:1;stroke:#154f00;stroke-width:0.21823597;stroke-linecap:round;stroke-linejoin:round;stroke-dasharray:none;stroke-opacity:1"
       id="path340" />
    <path
       inkscape:connector-curvature="0"
       d="m 173.03032,124.06233 a 1.8917637,2.2787673 0 0 0 1.30123,-1.70462 106.32563,128.07698 0 0 0 -0.27996,-5.89927 5.4347176,6.5465138 0 0 0 -2.02614,-4.39745 3.4093847,4.1068525 0 0 0 -1.07076,-0.82605 l -0.022,-0.63483 a 3.496027,4.2112196 0 0 0 1.14839,-3.17118 2.9934058,3.6057755 0 0 0 -2.67837,-3.85847 2.9932996,3.6056477 0 0 0 -2.67793,3.85847 3.4347306,4.1373834 0 0 0 1.10585,3.1181 l -2.23162,1.51803 a 1.6883077,2.0336898 0 0 0 -0.62328,1.61017 l -0.19922,5.44338 a 1.086742,1.30906 0 0 0 0.19841,0.85576 1.3291181,1.6010197 0 0 0 1.00084,0.62218 7.128593,8.5869102 0 0 0 4.31081,2.94137 2.2562557,2.7178245 0 0 0 2.74377,0.52441 z"
       style="fill:url(#linearGradient8953);fill-opacity:1;stroke:#154f00;stroke-width:0.60536349;stroke-linecap:round;stroke-linejoin:round;stroke-miterlimit:4;stroke-dasharray:none;stroke-opacity:1"
       id="path342" />
    <path
       inkscape:connector-curvature="0"
       d="m 179.08226,112.46083 -0.0659,0.0449 a 1.6796647,2.0232786 0 0 0 -0.6233,1.61017 l -0.0793,2.15976 -0.0569,1.55684 -0.0631,1.72678 a 1.2069491,1.4538582 0 0 0 1.19926,1.47786 5.4731076,6.5927571 0 0 0 2.3454,2.16512 42.378062,51.047466 0 0 0 1.9654,0.77633 2.1871644,2.6345991 0 0 0 1.85817,0.8394 3.0128658,3.6488253 0 0 0 1.34956,-0.61477 1.5106749,1.8295543 0 0 0 0.83727,-1.40487 78.044516,94.519438 0 0 0 -0.15231,-3.73295 155.72406,188.59695 0 0 0 -0.0888,-1.55847 7.1509165,8.660427 0 0 0 -0.22015,-1.83384 5.7940133,7.0170602 0 0 0 -2.93233,-4.0074 l -0.006,-0.631 a 3.4768854,4.1881618 0 0 0 1.14842,-3.16517 3.0233116,3.6417993 0 0 0 -2.67834,-3.85841 2.9851868,3.5958751 0 0 0 -2.67789,3.85841 3.341354,4.0249046 0 0 0 1.09749,3.13038 l -2.10111,1.42275 z"
       style="fill:none;fill-opacity:1;fill-rule:evenodd;stroke:#154f00;stroke-width:0.58196259;stroke-opacity:1"
       id="path344" />
    <path
       inkscape:connector-curvature="0"
       d="m 178.42426,115.83507 0.0793,-2.15984 a 2.023053,2.4369149 0 0 1 3.52372,-1.37983 6.8854216,8.2939925 0 0 1 3.37575,9.46695 l 0.26954,2.61506 a 2.1871644,2.6345991 0 0 1 -1.85821,-0.83949 42.378062,51.047466 0 0 1 -1.9654,-0.7763 5.4731076,6.5927571 0 0 1 -2.34541,-2.16507 1.2069491,1.4538582 0 0 1 -1.19926,-1.47794 l 0.0631,-1.72678 z"
       style="fill:none;fill-opacity:1;fill-rule:evenodd;stroke:#154f00;stroke-width:0.58196259;stroke-opacity:1"
       id="path354" />
    <path
       inkscape:connector-curvature="0"
       d="m 184.92356,116.74806 2.47435,-1.51562 a 5.7940133,7.0170602 0 0 0 -6.03966,-4.68541 l -2.23155,1.51803 a 5.6940088,6.8960223 0 0 1 5.79686,4.683 z"
       style="fill:none;fill-opacity:1;fill-rule:evenodd;stroke:#154f00;stroke-width:0.58196259;stroke-opacity:1"
       id="path364" />
    <path
       inkscape:connector-curvature="0"
       d="m 184.92356,116.74806 a 2.0164779,2.4421523 0 0 1 2.47435,-1.51562 7.1509165,8.660427 0 0 1 0.22021,1.8339 155.72406,188.59695 0 0 1 0.0888,1.55842 78.044516,94.519438 0 0 1 0.1523,3.73295 1.5106749,1.8295543 0 0 1 -0.83731,1.4049 2.7550064,3.3365542 0 0 1 -1.73141,0.60226 z"
       style="fill:none;fill-opacity:1;fill-rule:evenodd;stroke:#154f00;stroke-width:0.58196259;stroke-opacity:1"
       id="path374" />
    <path
       inkscape:connector-curvature="0"
       d="m 181.55709,110.64328 0.0128,0.80248 a 1.0670699,1.2853635 0 0 0 1.25599,0.70709 2.732524,3.2915243 0 0 0 1.64604,-0.27352 l -0.0142,-1.51498 a 2.4727027,2.9785508 0 0 1 -2.8528,0.24733 z"
       style="fill:none;fill-opacity:1;fill-rule:evenodd;stroke:#154f00;stroke-width:0.58196259;stroke-opacity:1"
       id="path384" />
    <g
       transform="matrix(0.5302474,0,0,0.63872165,8.619274,41.879012)"
       id="Layer1010"
       style="fill:none;fill-opacity:1;stroke:#154f00;stroke-opacity:1">
      <defs
         id="defs391"
         style="fill:url(#linearGradient7984);fill-opacity:1">
        <radialGradient
           id="radialGradient3942"
           cx="0.5"
           cy="0.5"
           r="1"
           style="fill:url(#linearGradient7984);fill-opacity:1">
          <stop
             offset="0%"
             stop-color="#ffffff"
             stop-opacity="1.0000"
             id="stop3938"
             style="fill-opacity:1.0;fill:url(#linearGradient7984)" />
          <stop
             offset="100%"
             stop-color="#da8c36"
             stop-opacity="1.0000"
             id="stop3940"
             style="fill-opacity:1.0;fill:url(#linearGradient7984)" />
        </radialGradient>
      </defs>
      <path
         inkscape:connector-curvature="0"
         d="m 333.7865,102.6267 a 5.4892,5.4892 0 0 1 -5.0511,5.9852 5.4257,5.4257 0 0 1 -5.0504,-5.9852 5.6298,5.6298 0 0 1 5.0504,-6.0409 5.7017,5.7017 0 0 1 5.0511,6.0409 z"
         style="fill:none;fill-opacity:1;fill-rule:evenodd;stroke:#154f00;stroke-width:0.375;stroke-linecap:butt;stroke-linejoin:miter;stroke-opacity:1"
         id="path393" />
      <path
         inkscape:connector-curvature="0"
         d="m 333.7865,102.6267 a 5.4892,5.4892 0 0 1 -5.0511,5.9852 5.4257,5.4257 0 0 1 -5.0504,-5.9852 5.6298,5.6298 0 0 1 5.0504,-6.0409 5.7017,5.7017 0 0 1 5.0511,6.0409 z"
         style="fill:none;fill-opacity:1;stroke:#154f00;stroke-width:0.375;stroke-linecap:butt;stroke-linejoin:miter;stroke-dasharray:none;stroke-opacity:1"
         id="path395" />
    </g>
    <path
       inkscape:connector-curvature="0"
       d="m 179.53965,120.49385 v -4.72035 m 4.28254,7.66103 v -4.72035"
       style="fill:none;fill-opacity:1;stroke:#154f00;stroke-width:0.21823597;stroke-linecap:round;stroke-linejoin:round;stroke-dasharray:none;stroke-opacity:1"
       id="path398" />
    <path
       inkscape:connector-curvature="0"
       d="m 186.55791,124.06233 a 1.8917637,2.2787673 0 0 0 1.30125,-1.70462 106.32563,128.07698 0 0 0 -0.28,-5.89927 5.4347176,6.5465138 0 0 0 -2.02613,-4.39745 3.4093847,4.1068525 0 0 0 -1.07074,-0.82605 l -0.022,-0.63483 a 3.496027,4.2112196 0 0 0 1.14841,-3.17118 2.9934058,3.6057755 0 0 0 -2.67833,-3.85847 2.9932996,3.6056477 0 0 0 -2.67796,3.85847 3.4347306,4.1373834 0 0 0 1.10583,3.1181 l -2.23155,1.51803 a 1.6883077,2.0336898 0 0 0 -0.62338,1.61017 l -0.1992,5.44338 a 1.086742,1.30906 0 0 0 0.19841,0.85576 1.3291181,1.6010197 0 0 0 1.00084,0.62218 7.128593,8.5869102 0 0 0 4.31081,2.94137 2.2562557,2.7178245 0 0 0 2.74377,0.52441 z"
       style="fill:url(#linearGradient8961);fill-opacity:1;stroke:#154f00;stroke-width:0.60536349;stroke-linecap:round;stroke-linejoin:round;stroke-miterlimit:4;stroke-dasharray:none;stroke-opacity:1"
       id="path400" />
    <rect
       style="fill:url(#linearGradient8975);fill-opacity:1;stroke:#154f00;stroke-width:0.40633333;stroke-linecap:butt;stroke-linejoin:round;stroke-miterlimit:4;stroke-dasharray:none;stroke-dashoffset:0;stroke-opacity:1;paint-order:normal"
       id="rect8963"
       width="78.310333"
       height="25.393665"
       x="75.147995"
       y="144.60635" />
    <flowRoot
       xml:space="preserve"
       id="flowRoot9006"
       style="font-style:normal;font-weight:normal;font-size:29.33333397px;line-height:1.25;font-family:sans-serif;text-align:center;letter-spacing:0px;word-spacing:0px;text-anchor:middle;fill:#000000;fill-opacity:1;stroke:none"
       transform="matrix(0.26458333,0,0,0.26458333,43.659409,60.074865)"><flowRegion
         id="flowRegion9008"
         style="font-size:29.33333397px;text-align:center;text-anchor:middle"><rect
           id="rect9010"
           width="295.97607"
           height="95.976044"
           x="118.01196"
           y="331.48911"
           style="font-size:29.33333397px;text-align:center;text-anchor:middle" /></flowRegion><flowPara
         id="flowPara9012">Java AS </flowPara><flowPara
         id="flowPara9107">JBOSS</flowPara></flowRoot>    <rect
       style="fill:url(#linearGradient8975-6);fill-opacity:1;stroke:#154f00;stroke-width:0.40633333;stroke-linecap:butt;stroke-linejoin:round;stroke-miterlimit:4;stroke-dasharray:none;stroke-dashoffset:0;stroke-opacity:1;paint-order:normal"
       id="rect8963-1"
       width="78.310333"
       height="25.393665"
       x="183.62717"
       y="144.60635" />
    <rect
       style="fill:url(#linearGradient8975-5);fill-opacity:1;stroke:#154f00;stroke-width:0.40633333;stroke-linecap:butt;stroke-linejoin:round;stroke-miterlimit:4;stroke-dasharray:none;stroke-dashoffset:0;stroke-opacity:1;paint-order:normal"
       id="rect8963-15"
       width="78.310333"
       height="25.393665"
       x="138.64799"
       y="205.46051" />
    <rect
       style="fill:url(#linearGradient8975-3);fill-opacity:1;stroke:#154f00;stroke-width:0.40633333;stroke-linecap:butt;stroke-linejoin:round;stroke-miterlimit:4;stroke-dasharray:none;stroke-dashoffset:0;stroke-opacity:1;paint-order:normal"
       id="rect8963-158"
       width="78.310333"
       height="25.393665"
       x="252.41884"
       y="205.46051" />
    <rect
       style="fill:url(#linearGradient8975-0);fill-opacity:1;stroke:#154f00;stroke-width:0.40633333;stroke-linecap:butt;stroke-linejoin:round;stroke-miterlimit:4;stroke-dasharray:none;stroke-dashoffset:0;stroke-opacity:1;paint-order:normal"
       id="rect8963-5"
       width="78.310333"
       height="25.393665"
       x="24.877165"
       y="205.46051" />
    <flowRoot
       xml:space="preserve"
       id="flowRoot9071"
       style="font-style:normal;font-weight:normal;font-size:29.33333397px;line-height:1.25;font-family:sans-serif;text-align:center;letter-spacing:0px;word-spacing:0px;text-anchor:middle;fill:#000000;fill-opacity:1;stroke:none"
       transform="matrix(0.26458333,0,0,0.26458333,-1.8489075,73.833193)"><flowRegion
         id="flowRegion9073"
         style="font-size:29.33333397px;text-align:center;text-anchor:middle"><rect
           id="rect9075"
           width="295.97607"
           height="95.976044"
           x="701.01196"
           y="277.48907"
           style="font-size:29.33333397px;text-align:center;text-anchor:middle" /></flowRegion><flowPara
         id="flowPara9077">WMS/WFS GeoServer</flowPara></flowRoot>    <flowRoot
       xml:space="preserve"
       id="flowRoot9079"
       style="font-style:normal;font-weight:normal;font-size:29.33333397px;line-height:1.25;font-family:sans-serif;letter-spacing:0px;word-spacing:0px;fill:#000000;fill-opacity:1;stroke:none"
       transform="matrix(0.26458333,0,0,0.26047737,-0.52600861,76.206337)"><flowRegion
         id="flowRegion9081"
         style="font-size:29.33333397px;letter-spacing:0px"><rect
           id="rect9083"
           width="295.97604"
           height="95.976044"
           x="93.011993"
           y="508.48911"
           style="font-size:29.33333397px;letter-spacing:0px" /></flowRegion><flowPara
         id="flowPara9085"
         style="font-size:29.33333397px;letter-spacing:0px"><flowSpan
   style="font-size:29.33333397px;text-align:center;letter-spacing:0px;text-anchor:middle"
   id="flowSpan9087">Content Repository </flowSpan>MongoDB</flowPara></flowRoot>    <flowRoot
       xml:space="preserve"
       id="flowRoot9091"
       style="font-style:normal;font-weight:normal;font-size:26.66666794px;line-height:1.25;font-family:sans-serif;text-align:center;letter-spacing:0px;word-spacing:0px;text-anchor:middle;fill:#000000;fill-opacity:1;stroke:none"
       transform="matrix(0.26458333,0,0,0.26458333,6.3531748,73.039462)"><flowRegion
         id="flowRegion9093"
         style="font-size:26.66666794px;text-align:center;text-anchor:middle"><rect
           id="rect9095"
           width="295.97607"
           height="95.976044"
           x="497.01196"
           y="510.48901"
           style="font-size:26.66666794px;text-align:center;text-anchor:middle" /></flowRegion><flowPara
         id="flowPara9097">Database PostgreSQL/PostGIS</flowPara></flowRoot>    <flowRoot
       xml:space="preserve"
       id="flowRoot9099"
       style="font-style:normal;font-weight:normal;font-size:29.33333397px;line-height:1.25;font-family:sans-serif;text-align:center;letter-spacing:0px;word-spacing:0px;text-anchor:middle;fill:#000000;fill-opacity:1;stroke:none"
       transform="matrix(0.26458333,0,0,0.26458333,4.7656657,73.833188)"><flowRegion
         id="flowRegion9101"
         style="font-size:29.33333397px;text-align:center;text-anchor:middle"><rect
           id="rect9103"
           width="295.97607"
           height="95.976044"
           x="937.01196"
           y="507.48911"
           style="font-size:29.33333397px;text-align:center;text-anchor:middle" /></flowRegion><flowPara
         id="flowPara9105">DataStore RasterData</flowPara></flowRoot>    <path
       inkscape:connector-curvature="0"
       d="m 147.18227,120.28607 -36.17233,21.50552"
       style="fill:none;stroke:#000000;stroke-width:0.73505801;stroke-linecap:round;stroke-linejoin:round;stroke-dasharray:none;stroke-opacity:1;marker-end:url(#endMarker6)"
       id="path226" />
    <path
       inkscape:connector-curvature="0"
       d="m 193.06765,120.57498 36.56104,21.1353"
       style="fill:none;stroke:#000000;stroke-width:0.77416104;stroke-linecap:round;stroke-linejoin:round;stroke-dasharray:none;stroke-opacity:1;marker-end:url(#endMarker6-3)"
       id="path226-7"
       inkscape:transform-center-x="22.89485"
       inkscape:transform-center-y="8.3509538"
       sodipodi:nodetypes="cc" />
    <path
       inkscape:connector-curvature="0"
       d="m 153.54682,155.7497 26.60144,-0.30529"
       style="fill:none;stroke:#000000;stroke-width:0.71455574;stroke-linecap:round;stroke-linejoin:round;stroke-dasharray:none;stroke-opacity:1;marker-end:url(#endMarker6-5)"
       id="path226-2" />
    <path
       inkscape:connector-curvature="0"
       d="m 223.18251,171.25664 -39.32972,30.65532"
       style="fill:none;stroke:#000000;stroke-width:0.85437685;stroke-linecap:round;stroke-linejoin:round;stroke-dasharray:none;stroke-opacity:1;marker-end:url(#endMarker6-30)"
       id="path226-9" />
    <path
       inkscape:connector-curvature="0"
       d="m 111.97745,170.94886 49.70503,30.97488"
       style="fill:none;stroke:#000000;stroke-width:0.98344475;stroke-linecap:round;stroke-linejoin:round;stroke-dasharray:none;stroke-opacity:1;marker-end:url(#endMarker6-9)"
       id="path226-3" />
    <path
       inkscape:connector-curvature="0"
       d="M 104.12176,170.92308 65.786987,201.72462"
       style="fill:none;stroke:#000000;stroke-width:0.85345352;stroke-linecap:round;stroke-linejoin:round;stroke-dasharray:none;stroke-opacity:1;marker-end:url(#endMarker6-302)"
       id="path226-0" />
    <path
       inkscape:connector-curvature="0"
       d="m 228.53373,171.33605 57.79598,30.74015"
       style="fill:none;stroke:#000000;stroke-width:1.05122817;stroke-linecap:round;stroke-linejoin:round;stroke-dasharray:none;stroke-opacity:1;marker-end:url(#endMarker6-58)"
       id="path226-6" />
  </g>
</svg>
